Busra-Black.ufo
<glyph name="exclam" format="2">
  <advance width="1151"/>
  <unicode hex="0021"/>
  <outline>
    <contour>
      <point x="844" y="375" type="line"/>
      <point x="915" y="746"/>
      <point x="937" y="1117"/>
      <point x="937" y="1500" type="curve" smooth="yes"/>
      <point x="937" y="1575"/>
      <point x="825" y="1657"/>
      <point x="694" y="1657" type="curve" smooth="yes"/>
      <point x="555" y="1657"/>
      <point x="450" y="1575"/>
      <point x="450" y="1500" type="curve" smooth="yes"/>
      <point x="450" y="1117"/>
      <point x="472" y="746"/>
      <point x="544" y="375" type="curve"/>
    </contour>
    <contour>
      <point x="487" y="150" type="curve" smooth="yes"/>
      <point x="487" y="56"/>
      <point x="592" y="0"/>
      <point x="694" y="0" type="curve" smooth="yes"/>
      <point x="795" y="0"/>
      <point x="900" y="56"/>
      <point x="900" y="150" type="curve" smooth="yes"/>
      <point x="900" y="244"/>
      <point x="795" y="300"/>
      <point x="694" y="300" type="curve" smooth="yes"/>
      <point x="592" y="300"/>
      <point x="487" y="244"/>
    </contour>
  </outline>
</glyph>
<glyph name="percent" format="2">
  <advance width="1730"/>
  <unicode hex="0025"/>
  <outline>
    <contour>
      <point x="361" y="75" type="line"/>
      <point x="635" y="75" type="line"/>
      <point x="1366" y="1395" type="line"/>
      <point x="1091" y="1395" type="line"/>
    </contour>
    <contour>
      <point x="120" y="1079" type="curve" smooth="yes"/>
      <point x="120" y="905"/>
      <point x="260" y="761"/>
      <point x="438" y="761" type="curve"/>
      <point x="618" y="761"/>
      <point x="759" y="905"/>
      <point x="759" y="1079" type="curve"/>
      <point x="759" y="1254"/>
      <point x="618" y="1395"/>
      <point x="438" y="1395" type="curve"/>
      <point x="260" y="1395"/>
      <point x="120" y="1254"/>
    </contour>
    <contour>
      <point x="972" y="392" type="curve" smooth="yes"/>
      <point x="972" y="219"/>
      <point x="1113" y="75"/>
      <point x="1292" y="75" type="curve"/>
      <point x="1471" y="75"/>
      <point x="1610" y="219"/>
      <point x="1610" y="392" type="curve"/>
      <point x="1610" y="567"/>
      <point x="1471" y="710"/>
      <point x="1292" y="710" type="curve"/>
      <point x="1113" y="710"/>
      <point x="972" y="567"/>
    </contour>
    <contour>
      <point x="1220" y="392" type="curve" smooth="yes"/>
      <point x="1220" y="488"/>
      <point x="1242" y="597"/>
      <point x="1292" y="597" type="curve"/>
      <point x="1342" y="597"/>
      <point x="1363" y="488"/>
      <point x="1363" y="392" type="curve"/>
      <point x="1363" y="296"/>
      <point x="1342" y="189"/>
      <point x="1292" y="189" type="curve"/>
      <point x="1242" y="189"/>
      <point x="1220" y="296"/>
    </contour>
    <contour>
      <point x="368" y="1079" type="curve" smooth="yes"/>
      <point x="368" y="1174"/>
      <point x="388" y="1283"/>
      <point x="438" y="1283" type="curve"/>
      <point x="488" y="1283"/>
      <point x="511" y="1174"/>
      <point x="511" y="1079" type="curve"/>
      <point x="511" y="983"/>
      <point x="488" y="875"/>
      <point x="438" y="875" type="curve"/>
      <point x="388" y="875"/>
      <point x="368" y="983"/>
    </contour>
  </outline>
</glyph>
<glyph name="quotesingle" format="2">
  <advance width="379"/>
  <unicode hex="0027"/>
  <outline>
    <contour>
      <point x="120" y="1447" type="line"/>
      <point x="120" y="904" type="line"/>
      <point x="259" y="904" type="line"/>
      <point x="259" y="1447" type="line"/>
    </contour>
  </outline>
</glyph>
<glyph name="parenleft" format="2">
  <advance width="997"/>
  <unicode hex="0028"/>
  <outline>
    <contour>
      <point x="611" y="696" type="curve" smooth="yes"/>
      <point x="611" y="994"/>
      <point x="776" y="1474"/>
      <point x="909" y="1586" type="curve"/>
      <point x="917" y="1594"/>
      <point x="922" y="1597"/>
      <point x="922" y="1612" type="curve" smooth="yes"/>
      <point x="922" y="1628"/>
      <point x="900" y="1639"/>
      <point x="865" y="1639" type="curve" smooth="yes"/>
      <point x="829" y="1639"/>
      <point x="781" y="1627"/>
      <point x="728" y="1598" type="curve" smooth="yes"/>
      <point x="604" y="1528"/>
      <point x="231" y="1168"/>
      <point x="231" y="696" type="curve"/>
      <point x="231" y="234"/>
      <point x="604" y="-54"/>
      <point x="729" y="-123" type="curve" smooth="yes"/>
      <point x="782" y="-152"/>
      <point x="831" y="-164"/>
      <point x="867" y="-164" type="curve" smooth="yes"/>
      <point x="901" y="-164"/>
      <point x="922" y="-154"/>
      <point x="922" y="-139" type="curve" smooth="yes"/>
      <point x="922" y="-124"/>
      <point x="917" y="-114"/>
      <point x="909" y="-107" type="curve" smooth="yes"/>
      <point x="776" y="4"/>
      <point x="611" y="399"/>
    </contour>
  </outline>
</glyph>
<glyph name="asterisk" format="2">
  <advance width="1444"/>
  <unicode hex="002A"/>
  <outline>
    <contour>
      <point x="872" y="1130" type="curve" smooth="yes"/>
      <point x="872" y="1210"/>
      <point x="832" y="1290"/>
      <point x="722" y="1290" type="curve" smooth="yes"/>
      <point x="612" y="1290"/>
      <point x="572" y="1210"/>
      <point x="572" y="1130" type="curve" smooth="yes"/>
      <point x="572" y="1041"/>
      <point x="606" y="947"/>
      <point x="636" y="864" type="curve"/>
      <point x="580" y="930"/>
      <point x="515" y="1007"/>
      <point x="438" y="1052" type="curve" smooth="yes"/>
      <point x="409" y="1069"/>
      <point x="376" y="1079"/>
      <point x="344" y="1079" type="curve" smooth="yes"/>
      <point x="265" y="1079"/>
      <point x="200" y="1000"/>
      <point x="200" y="923" type="curve" smooth="yes"/>
      <point x="200" y="866"/>
      <point x="239" y="821"/>
      <point x="288" y="793" type="curve" smooth="yes"/>
      <point x="365" y="748"/>
      <point x="464" y="730"/>
      <point x="550" y="715" type="curve"/>
      <point x="464" y="699"/>
      <point x="365" y="681"/>
      <point x="288" y="637" type="curve" smooth="yes"/>
      <point x="239" y="609"/>
      <point x="200" y="564"/>
      <point x="200" y="507" type="curve" smooth="yes"/>
      <point x="200" y="430"/>
      <point x="265" y="351"/>
      <point x="344" y="351" type="curve" smooth="yes"/>
      <point x="376" y="351"/>
      <point x="409" y="361"/>
      <point x="438" y="378" type="curve" smooth="yes"/>
      <point x="515" y="422"/>
      <point x="580" y="500"/>
      <point x="636" y="566" type="curve"/>
      <point x="606" y="483"/>
      <point x="572" y="389"/>
      <point x="572" y="300" type="curve" smooth="yes"/>
      <point x="572" y="220"/>
      <point x="612" y="140"/>
      <point x="722" y="140" type="curve" smooth="yes"/>
      <point x="832" y="140"/>
      <point x="872" y="220"/>
      <point x="872" y="300" type="curve" smooth="yes"/>
      <point x="872" y="389"/>
      <point x="838" y="483"/>
      <point x="808" y="566" type="curve"/>
      <point x="864" y="500"/>
      <point x="929" y="422"/>
      <point x="1006" y="378" type="curve" smooth="yes"/>
      <point x="1035" y="361"/>
      <point x="1068" y="351"/>
      <point x="1100" y="351" type="curve" smooth="yes"/>
      <point x="1179" y="351"/>
      <point x="1244" y="430"/>
      <point x="1244" y="507" type="curve" smooth="yes"/>
      <point x="1244" y="564"/>
      <point x="1205" y="609"/>
      <point x="1156" y="637" type="curve" smooth="yes"/>
      <point x="1078" y="681"/>
      <point x="979" y="699"/>
      <point x="893" y="715" type="curve"/>
      <point x="979" y="730"/>
      <point x="1078" y="748"/>
      <point x="1156" y="793" type="curve" smooth="yes"/>
      <point x="1205" y="821"/>
      <point x="1244" y="866"/>
      <point x="1244" y="923" type="curve" smooth="yes"/>
      <point x="1244" y="1000"/>
      <point x="1179" y="1079"/>
      <point x="1100" y="1079" type="curve" smooth="yes"/>
      <point x="1068" y="1079"/>
      <point x="1035" y="1069"/>
      <point x="1006" y="1052" type="curve" smooth="yes"/>
      <point x="929" y="1007"/>
      <point x="864" y="930"/>
      <point x="808" y="864" type="curve"/>
      <point x="838" y="947"/>
      <point x="872" y="1041"/>
    </contour>
  </outline>
</glyph>
<glyph name="plus" format="2">
  <advance width="1267"/>
  <unicode hex="002B"/>
  <outline>
    <contour>
      <point x="231" y="769" type="line"/>
      <point x="231" y="499" type="line"/>
      <point x="538" y="499" type="line"/>
      <point x="538" y="231" type="line"/>
      <point x="806" y="231" type="line"/>
      <point x="806" y="499" type="line"/>
      <point x="1114" y="499" type="line"/>
      <point x="1114" y="769" type="line"/>
      <point x="806" y="769" type="line"/>
      <point x="806" y="1037" type="line"/>
      <point x="538" y="1037" type="line"/>
      <point x="538" y="769" type="line"/>
    </contour>
  </outline>
</glyph>
<glyph name="hyphen" format="2">
  <advance width="1024"/>
  <unicode hex="002D"/>
  <outline>
    <contour>
      <point x="150" y="520" type="line"/>
      <point x="150" y="720" type="line"/>
      <point x="874" y="720" type="line"/>
      <point x="874" y="520" type="line"/>
    </contour>
  </outline>
</glyph>
<glyph name="period" format="2">
  <advance width="560"/>
  <unicode hex="002E"/>
  <outline>
    <contour>
      <point x="140" y="136" type="curve" smooth="yes"/>
      <point x="140" y="50"/>
      <point x="209" y="-19"/>
      <point x="295" y="-19" type="curve" smooth="yes"/>
      <point x="381" y="-19"/>
      <point x="450" y="50"/>
      <point x="450" y="136" type="curve" smooth="yes"/>
      <point x="450" y="222"/>
      <point x="381" y="291"/>
      <point x="295" y="291" type="curve" smooth="yes"/>
      <point x="209" y="291"/>
      <point x="140" y="222"/>
    </contour>
  </outline>
</glyph>
<glyph name="two" format="2">
  <advance width="1157"/>
  <unicode hex="0032"/>
  <outline>
    <contour>
      <point x="974" y="0" type="line"/>
      <point x="1087" y="308" type="line"/>
      <point x="959" y="308" type="line"/>
      <point x="912" y="217"/>
      <point x="832" y="196"/>
      <point x="763" y="196" type="curve"/>
      <point x="394" y="196" type="line"/>
      <point x="646" y="457" type="line" smooth="yes"/>
      <point x="820" y="637"/>
      <point x="988" y="846"/>
      <point x="988" y="1065" type="curve"/>
      <point x="988" y="1282"/>
      <point x="837" y="1470"/>
      <point x="548" y="1470" type="curve"/>
      <point x="318" y="1470"/>
      <point x="115" y="1267"/>
      <point x="98" y="1012" type="curve"/>
      <point x="213" y="1012" type="line"/>
      <point x="234" y="1155"/>
      <point x="359" y="1267"/>
      <point x="482" y="1267" type="curve"/>
      <point x="638" y="1267"/>
      <point x="719" y="1121"/>
      <point x="719" y="962" type="curve"/>
      <point x="719" y="794"/>
      <point x="637" y="652"/>
      <point x="518" y="528" type="curve" smooth="yes"/>
      <point x="67" y="58" type="line"/>
      <point x="67" y="0" type="line"/>
    </contour>
  </outline>
</glyph>
<glyph name="three" format="2">
  <advance width="1082"/>
  <unicode hex="0033"/>
  <outline>
    <contour>
      <point x="333" y="692" type="line"/>
      <point x="620" y="692"/>
      <point x="755" y="555"/>
      <point x="755" y="373" type="curve" smooth="yes"/>
      <point x="755" y="231"/>
      <point x="672" y="101"/>
      <point x="523" y="101" type="curve" smooth="yes"/>
      <point x="476" y="101"/>
      <point x="440" y="118"/>
      <point x="411" y="141" type="curve" smooth="yes"/>
      <point x="368" y="176"/>
      <point x="307" y="227"/>
      <point x="228" y="227" type="curve" smooth="yes"/>
      <point x="171" y="227"/>
      <point x="109" y="204"/>
      <point x="109" y="137" type="curve" smooth="yes"/>
      <point x="109" y="4"/>
      <point x="356" y="-32"/>
      <point x="453" y="-32" type="curve"/>
      <point x="713" y="-32"/>
      <point x="992" y="138"/>
      <point x="992" y="479" type="curve" smooth="yes"/>
      <point x="992" y="627"/>
      <point x="882" y="789"/>
      <point x="738" y="853" type="curve"/>
      <point x="840" y="945"/>
      <point x="923" y="1072"/>
      <point x="923" y="1156" type="curve" smooth="yes"/>
      <point x="923" y="1334"/>
      <point x="751" y="1470"/>
      <point x="548" y="1470" type="curve" smooth="yes"/>
      <point x="326" y="1470"/>
      <point x="185" y="1320"/>
      <point x="127" y="1138" type="curve"/>
      <point x="226" y="1091" type="line"/>
      <point x="282" y="1199"/>
      <point x="392" y="1282"/>
      <point x="471" y="1282" type="curve" smooth="yes"/>
      <point x="585" y="1282"/>
      <point x="661" y="1192"/>
      <point x="661" y="1079" type="curve" smooth="yes"/>
      <point x="661" y="907"/>
      <point x="527" y="785"/>
      <point x="333" y="764" type="curve"/>
    </contour>
  </outline>
</glyph>
<glyph name="four" format="2">
  <advance width="1109"/>
  <unicode hex="0034"/>
  <outline>
    <contour>
      <point x="639" y="0" type="line"/>
      <point x="897" y="0" type="line"/>
      <point x="897" y="360" type="line"/>
      <point x="1079" y="360" type="line"/>
      <point x="1079" y="553" type="line"/>
      <point x="897" y="553" type="line"/>
      <point x="897" y="1470" type="line"/>
      <point x="711" y="1470" type="line"/>
      <point x="30" y="508" type="line"/>
      <point x="30" y="360" type="line"/>
      <point x="639" y="360" type="line"/>
    </contour>
    <contour>
      <point x="249" y="553" type="line"/>
      <point x="639" y="1105" type="line"/>
      <point x="639" y="553" type="line"/>
    </contour>
  </outline>
</glyph>
<glyph name="six" format="2">
  <advance width="1110"/>
  <unicode hex="0036"/>
  <outline>
    <contour>
      <point x="1009" y="1039" type="line"/>
      <point x="997" y="1222"/>
      <point x="825" y="1406"/>
      <point x="581" y="1406" type="curve" smooth="yes"/>
      <point x="277" y="1406"/>
      <point x="75" y="1189"/>
      <point x="75" y="619" type="curve" smooth="yes"/>
      <point x="75" y="221"/>
      <point x="270" y="-19"/>
      <point x="574" y="-19" type="curve" smooth="yes"/>
      <point x="855" y="-19"/>
      <point x="1031" y="191"/>
      <point x="1031" y="439" type="curve" smooth="yes"/>
      <point x="1031" y="709"/>
      <point x="825" y="904"/>
      <point x="570" y="904" type="curve" smooth="yes"/>
      <point x="469" y="904"/>
      <point x="375" y="859"/>
      <point x="292" y="780" type="curve"/>
      <point x="285" y="780" type="line"/>
      <point x="292" y="997"/>
      <point x="345" y="1249"/>
      <point x="585" y="1249" type="curve" smooth="yes"/>
      <point x="724" y="1249"/>
      <point x="825" y="1136"/>
      <point x="832" y="1039" type="curve"/>
    </contour>
    <contour>
      <point x="570" y="139" type="curve" smooth="yes"/>
      <point x="405" y="139"/>
      <point x="292" y="259"/>
      <point x="292" y="435" type="curve" smooth="yes"/>
      <point x="292" y="570"/>
      <point x="360" y="742"/>
      <point x="574" y="742" type="curve" smooth="yes"/>
      <point x="742" y="742"/>
      <point x="832" y="596"/>
      <point x="832" y="435" type="curve" smooth="yes"/>
      <point x="832" y="270"/>
      <point x="746" y="139"/>
    </contour>
  </outline>
</glyph>
<glyph name="seven" format="2">
  <advance width="1110"/>
  <unicode hex="0037"/>
  <outline>
    <contour>
      <point x="1040" y="1437" type="line"/>
      <point x="199" y="1437" type="line"/>
      <point x="67" y="1074" type="line"/>
      <point x="175" y="1042" type="line"/>
      <point x="244" y="1166"/>
      <point x="326" y="1228"/>
      <point x="447" y="1228" type="curve"/>
      <point x="786" y="1228" type="line"/>
      <point x="367" y="-32" type="line"/>
      <point x="566" y="-32" type="line"/>
      <point x="1040" y="1381" type="line"/>
    </contour>
  </outline>
</glyph>
<glyph name="A" format="2">
  <advance width="1634"/>
  <unicode hex="0041"/>
  <anchor x="743" y="-110" name="LL"/>
  <anchor x="742" y="1745" name="LU"/>
  <outline>
    <contour>
      <point x="-24" y="0" type="line"/>
      <point x="521" y="0" type="line"/>
      <point x="521" y="105" type="line"/>
      <point x="233" y="157" type="line"/>
      <point x="305" y="39" type="line"/>
      <point x="825" y="1650" type="line"/>
      <point x="639" y="1650" type="line"/>
      <point x="120" y="45" type="line"/>
      <point x="263" y="167" type="line"/>
      <point x="-24" y="105" type="line"/>
    </contour>
    <contour>
      <point x="425" y="693" type="line"/>
      <point x="405" y="523" type="line"/>
      <point x="1114" y="523" type="line"/>
      <point x="1092" y="693" type="line"/>
    </contour>
    <contour>
      <point x="969" y="0" type="line"/>
      <point x="1697" y="0" type="line"/>
      <point x="1697" y="105" type="line"/>
      <point x="1395" y="167" type="line"/>
      <point x="1553" y="44" type="line"/>
      <point x="1035" y="1650" type="line"/>
      <point x="665" y="1650" type="line"/>
      <point x="1185" y="39" type="line"/>
      <point x="1242" y="157" type="line"/>
      <point x="969" y="105" type="line"/>
    </contour>
  </outline>
</glyph>
<glyph name="D" format="2">
  <advance width="1447"/>
  <unicode hex="0044"/>
  <outline>
    <contour>
      <point x="150" y="0" type="line"/>
      <point x="754" y="0" type="line" smooth="yes"/>
      <point x="1125" y="0"/>
      <point x="1335" y="315"/>
      <point x="1335" y="724" type="curve" smooth="yes"/>
      <point x="1335" y="1121"/>
      <point x="1125" y="1440"/>
      <point x="739" y="1440" type="curve" smooth="yes"/>
      <point x="150" y="1440" type="line"/>
    </contour>
    <contour>
      <point x="345" y="1264" type="line"/>
      <point x="701" y="1264" type="line" smooth="yes"/>
      <point x="982" y="1264"/>
      <point x="1125" y="1099"/>
      <point x="1125" y="720" type="curve" smooth="yes"/>
      <point x="1125" y="375"/>
      <point x="982" y="176"/>
      <point x="697" y="176" type="curve" smooth="yes"/>
      <point x="345" y="176" type="line"/>
    </contour>
  </outline>
</glyph>
<glyph name="E" format="2">
  <advance width="1270"/>
  <unicode hex="0045"/>
  <outline>
    <contour>
      <point x="145" y="1440" type="line"/>
      <point x="145" y="0" type="line"/>
      <point x="1165" y="0" type="line"/>
      <point x="1165" y="176" type="line"/>
      <point x="340" y="176" type="line"/>
      <point x="340" y="656" type="line"/>
      <point x="1083" y="656" type="line"/>
      <point x="1083" y="832" type="line"/>
      <point x="340" y="832" type="line"/>
      <point x="340" y="1264" type="line"/>
      <point x="1128" y="1264" type="line"/>
      <point x="1128" y="1440" type="line"/>
    </contour>
  </outline>
</glyph>
<glyph name="I" format="2">
  <advance width="510"/>
  <unicode hex="0049"/>
  <outline>
    <contour>
      <point x="157" y="1440" type="line"/>
      <point x="157" y="0" type="line"/>
      <point x="352" y="0" type="line"/>
      <point x="352" y="1440" type="line"/>
    </contour>
  </outline>
</glyph>
<glyph name="K" format="2">
  <advance width="1324"/>
  <unicode hex="004B"/>
  <outline>
    <contour>
      <point x="146" y="1440" type="line"/>
      <point x="146" y="0" type="line"/>
      <point x="341" y="0" type="line"/>
      <point x="341" y="506" type="line"/>
      <point x="570" y="731" type="line"/>
      <point x="1057" y="0" type="line"/>
      <point x="1305" y="0" type="line"/>
      <point x="705" y="874" type="line"/>
      <point x="1286" y="1440" type="line"/>
      <point x="1027" y="1440" type="line"/>
      <point x="349" y="757" type="line"/>
      <point x="341" y="757" type="line"/>
      <point x="341" y="1440" type="line"/>
    </contour>
  </outline>
</glyph>
<glyph name="L" format="2">
  <advance width="1345"/>
  <unicode hex="004C"/>
  <outline>
    <contour>
      <point x="240" y="242" type="line"/>
      <point x="240" y="108"/>
      <point x="186" y="75"/>
      <point x="40" y="75" type="curve"/>
      <point x="40" y="0" type="line"/>
      <point x="1206" y="0" type="line"/>
      <point x="1335" y="408" type="line"/>
      <point x="1222" y="441" type="line"/>
      <point x="1163" y="255"/>
      <point x="1045" y="108"/>
      <point x="834" y="108" type="curve"/>
      <point x="572" y="108" type="line"/>
      <point x="550" y="108"/>
      <point x="531" y="147"/>
      <point x="531" y="194" type="curve"/>
      <point x="531" y="1196" type="line"/>
      <point x="531" y="1329"/>
      <point x="586" y="1362"/>
      <point x="728" y="1362" type="curve"/>
      <point x="728" y="1437" type="line"/>
      <point x="40" y="1437" type="line"/>
      <point x="40" y="1362" type="line"/>
      <point x="186" y="1362"/>
      <point x="240" y="1329"/>
      <point x="240" y="1196" type="curve"/>
    </contour>
  </outline>
</glyph>
<glyph name="M" format="2">
  <advance width="1631"/>
  <unicode hex="004D"/>
  <outline>
    <contour>
      <point x="146" y="1440" type="line"/>
      <point x="146" y="0" type="line"/>
      <point x="341" y="0" type="line"/>
      <point x="341" y="1181" type="line"/>
      <point x="349" y="1181" type="line"/>
      <point x="731" y="0" type="line"/>
      <point x="904" y="0" type="line"/>
      <point x="1282" y="1181" type="line"/>
      <point x="1290" y="1181" type="line"/>
      <point x="1290" y="0" type="line"/>
      <point x="1485" y="0" type="line"/>
      <point x="1485" y="1440" type="line"/>
      <point x="1211" y="1440" type="line"/>
      <point x="817" y="217" type="line"/>
      <point x="814" y="217" type="line"/>
      <point x="446" y="1440" type="line"/>
    </contour>
  </outline>
</glyph>
<glyph name="N" format="2">
  <advance width="1417"/>
  <unicode hex="004E"/>
  <outline>
    <contour>
      <point x="150" y="1440" type="line"/>
      <point x="150" y="0" type="line"/>
      <point x="345" y="0" type="line"/>
      <point x="345" y="1144" type="line"/>
      <point x="352" y="1144" type="line"/>
      <point x="1031" y="0" type="line"/>
      <point x="1267" y="0" type="line"/>
      <point x="1267" y="1440" type="line"/>
      <point x="1072" y="1440" type="line"/>
      <point x="1072" y="300" type="line"/>
      <point x="1061" y="300" type="line"/>
      <point x="390" y="1440" type="line"/>
    </contour>
  </outline>
</glyph>
<glyph name="R" format="2">
  <advance width="1339"/>
  <unicode hex="0052"/>
  <outline>
    <contour>
      <point x="146" y="0" type="line"/>
      <point x="341" y="0" type="line"/>
      <point x="341" y="607" type="line"/>
      <point x="772" y="607" type="line" smooth="yes"/>
      <point x="919" y="607"/>
      <point x="982" y="502"/>
      <point x="982" y="405" type="curve" smooth="yes"/>
      <point x="982" y="180" type="line" smooth="yes"/>
      <point x="982" y="131"/>
      <point x="990" y="37"/>
      <point x="1027" y="0" type="curve"/>
      <point x="1245" y="0" type="line"/>
      <point x="1207" y="37"/>
      <point x="1177" y="97"/>
      <point x="1177" y="187" type="curve" smooth="yes"/>
      <point x="1177" y="401" type="line" smooth="yes"/>
      <point x="1177" y="536"/>
      <point x="1140" y="660"/>
      <point x="982" y="697" type="curve"/>
      <point x="1114" y="724"/>
      <point x="1207" y="881"/>
      <point x="1207" y="1057" type="curve" smooth="yes"/>
      <point x="1207" y="1241"/>
      <point x="1057" y="1440"/>
      <point x="836" y="1440" type="curve" smooth="yes"/>
      <point x="146" y="1440" type="line"/>
    </contour>
    <contour>
      <point x="341" y="1264" type="line"/>
      <point x="769" y="1264" type="line" smooth="yes"/>
      <point x="881" y="1264"/>
      <point x="997" y="1166"/>
      <point x="997" y="1031" type="curve" smooth="yes"/>
      <point x="997" y="892"/>
      <point x="900" y="784"/>
      <point x="769" y="784" type="curve" smooth="yes"/>
      <point x="341" y="784" type="line"/>
    </contour>
  </outline>
</glyph>
<glyph name="S" format="2">
  <advance width="1301"/>
  <unicode hex="0053"/>
  <outline>
    <contour>
      <point x="97" y="480" type="line"/>
      <point x="97" y="169"/>
      <point x="360" y="-41"/>
      <point x="645" y="-41" type="curve" smooth="yes"/>
      <point x="949" y="-41"/>
      <point x="1174" y="82"/>
      <point x="1174" y="375" type="curve" smooth="yes"/>
      <point x="1174" y="656"/>
      <point x="937" y="773"/>
      <point x="682" y="832" type="curve" smooth="yes"/>
      <point x="531" y="867"/>
      <point x="334" y="914"/>
      <point x="334" y="1110" type="curve" smooth="yes"/>
      <point x="334" y="1260"/>
      <point x="480" y="1312"/>
      <point x="626" y="1312" type="curve" smooth="yes"/>
      <point x="791" y="1312"/>
      <point x="937" y="1215"/>
      <point x="937" y="1027" type="curve"/>
      <point x="1132" y="1027" type="line"/>
      <point x="1132" y="1215"/>
      <point x="1024" y="1485"/>
      <point x="630" y="1485" type="curve" smooth="yes"/>
      <point x="379" y="1485"/>
      <point x="139" y="1350"/>
      <point x="139" y="1106" type="curve" smooth="yes"/>
      <point x="139" y="836"/>
      <point x="360" y="716"/>
      <point x="589" y="663" type="curve" smooth="yes"/>
      <point x="750" y="626"/>
      <point x="979" y="577"/>
      <point x="979" y="371" type="curve" smooth="yes"/>
      <point x="979" y="184"/>
      <point x="821" y="135"/>
      <point x="645" y="135" type="curve" smooth="yes"/>
      <point x="435" y="135"/>
      <point x="292" y="281"/>
      <point x="292" y="480" type="curve"/>
    </contour>
  </outline>
</glyph>
<glyph name="T" format="2">
  <advance width="1170"/>
  <unicode hex="0054"/>
  <outline>
    <contour>
      <point x="22" y="1440" type="line"/>
      <point x="22" y="1264" type="line"/>
      <point x="487" y="1264" type="line"/>
      <point x="487" y="0" type="line"/>
      <point x="682" y="0" type="line"/>
      <point x="682" y="1264" type="line"/>
      <point x="1144" y="1264" type="line"/>
      <point x="1144" y="1440" type="line"/>
    </contour>
  </outline>
</glyph>
<glyph name="Z" format="2">
  <advance width="1219"/>
  <unicode hex="005A"/>
  <outline>
    <contour>
      <point x="109" y="1440" type="line"/>
      <point x="109" y="1264" type="line"/>
      <point x="915" y="1264" type="line"/>
      <point x="915" y="1260" type="line"/>
      <point x="49" y="180" type="line"/>
      <point x="49" y="0" type="line"/>
      <point x="1147" y="0" type="line"/>
      <point x="1147" y="176" type="line"/>
      <point x="296" y="176" type="line"/>
      <point x="296" y="180" type="line"/>
      <point x="1147" y="1237" type="line"/>
      <point x="1147" y="1440" type="line"/>
    </contour>
  </outline>
</glyph>
<glyph name="asciicircum" format="2">
  <advance width="1050"/>
  <unicode hex="005E"/>
  <outline>
    <contour>
      <point x="154" y="694" type="line"/>
      <point x="521" y="1312" type="line"/>
      <point x="892" y="694" type="line"/>
      <point x="1024" y="694" type="line"/>
      <point x="559" y="1474" type="line"/>
      <point x="491" y="1474" type="line"/>
      <point x="26" y="694" type="line"/>
    </contour>
  </outline>
</glyph>
<glyph name="c" format="2">
  <advance width="1042"/>
  <unicode hex="0063"/>
  <anchor x="520" y="0" name="PB"/>
  <anchor x="560" y="0" name="def"/>
  <outline>
    <contour>
      <point x="967" y="705" type="line"/>
      <point x="934" y="904"/>
      <point x="784" y="1057"/>
      <point x="521" y="1057" type="curve" smooth="yes"/>
      <point x="255" y="1057"/>
      <point x="75" y="829"/>
      <point x="75" y="536" type="curve" smooth="yes"/>
      <point x="75" y="270"/>
      <point x="217" y="-19"/>
      <point x="521" y="-19" type="curve" smooth="yes"/>
      <point x="784" y="-19"/>
      <point x="945" y="133"/>
      <point x="967" y="380" type="curve"/>
      <point x="784" y="380" type="line"/>
      <point x="761" y="230"/>
      <point x="682" y="131"/>
      <point x="521" y="131" type="curve" smooth="yes"/>
      <point x="330" y="131"/>
      <point x="259" y="334"/>
      <point x="259" y="536" type="curve" smooth="yes"/>
      <point x="259" y="731"/>
      <point x="337" y="904"/>
      <point x="525" y="904" type="curve" smooth="yes"/>
      <point x="675" y="904"/>
      <point x="757" y="851"/>
      <point x="784" y="705" type="curve"/>
    </contour>
  </outline>
</glyph>
<glyph name="e" format="2">
  <advance width="1090"/>
  <unicode hex="0065"/>
  <anchor x="520" y="0" name="PB"/>
  <anchor x="560" y="0" name="def"/>
  <outline>
    <contour>
      <point x="1016" y="480" type="line"/>
      <point x="1016" y="551" type="line" smooth="yes"/>
      <point x="1016" y="844"/>
      <point x="836" y="1057"/>
      <point x="551" y="1057" type="curve" smooth="yes"/>
      <point x="259" y="1057"/>
      <point x="75" y="810"/>
      <point x="75" y="536" type="curve" smooth="yes"/>
      <point x="75" y="236"/>
      <point x="259" y="-19"/>
      <point x="551" y="-19" type="curve" smooth="yes"/>
      <point x="769" y="-19"/>
      <point x="960" y="109"/>
      <point x="994" y="337" type="curve"/>
      <point x="836" y="337" type="line"/>
      <point x="791" y="202"/>
      <point x="697" y="131"/>
      <point x="551" y="131" type="curve" smooth="yes"/>
      <point x="382" y="131"/>
      <point x="259" y="304"/>
      <point x="259" y="480" type="curve"/>
    </contour>
    <contour>
      <point x="259" y="619" type="line"/>
      <point x="259" y="765"/>
      <point x="375" y="904"/>
      <point x="544" y="904" type="curve" smooth="yes"/>
      <point x="724" y="904"/>
      <point x="836" y="780"/>
      <point x="836" y="619" type="curve"/>
    </contour>
  </outline>
</glyph>
<glyph name="f" format="2">
  <advance width="596"/>
  <unicode hex="0066"/>
  <anchor x="520" y="0" name="PB"/>
  <anchor x="580" y="200" name="def"/>
  <outline>
    <contour>
      <point x="22" y="1039" type="line"/>
      <point x="22" y="889" type="line"/>
      <point x="199" y="889" type="line"/>
      <point x="199" y="0" type="line"/>
      <point x="379" y="0" type="line"/>
      <point x="379" y="889" type="line"/>
      <point x="551" y="889" type="line"/>
      <point x="551" y="1039" type="line"/>
      <point x="379" y="1039" type="line"/>
      <point x="379" y="1230" type="line" smooth="yes"/>
      <point x="379" y="1282"/>
      <point x="412" y="1331"/>
      <point x="476" y="1331" type="curve" smooth="yes"/>
      <point x="499" y="1331"/>
      <point x="544" y="1316"/>
      <point x="562" y="1301" type="curve"/>
      <point x="562" y="1444" type="line"/>
      <point x="532" y="1462"/>
      <point x="472" y="1485"/>
      <point x="424" y="1485" type="curve" smooth="yes"/>
      <point x="285" y="1485"/>
      <point x="199" y="1399"/>
      <point x="199" y="1279" type="curve" smooth="yes"/>
      <point x="199" y="1039" type="line"/>
    </contour>
  </outline>
</glyph>
<glyph name="h" format="2">
  <advance width="1090"/>
  <unicode hex="0068"/>
  <outline>
    <contour>
      <point x="126" y="1447" type="line"/>
      <point x="126" y="0" type="line"/>
      <point x="303" y="0" type="line"/>
      <point x="303" y="660" type="line" smooth="yes"/>
      <point x="303" y="799"/>
      <point x="456" y="904"/>
      <point x="588" y="904" type="curve" smooth="yes"/>
      <point x="696" y="904"/>
      <point x="794" y="866"/>
      <point x="794" y="731" type="curve" smooth="yes"/>
      <point x="794" y="0" type="line"/>
      <point x="970" y="0" type="line"/>
      <point x="970" y="784" type="line" smooth="yes"/>
      <point x="970" y="956"/>
      <point x="839" y="1057"/>
      <point x="636" y="1057" type="curve" smooth="yes"/>
      <point x="501" y="1057"/>
      <point x="396" y="1020"/>
      <point x="303" y="904" type="curve"/>
      <point x="303" y="1447" type="line"/>
    </contour>
  </outline>
</glyph>
<glyph name="j" format="2">
  <advance width="431"/>
  <unicode hex="006A"/>
  <anchor x="400" y="-200" name="PB"/>
  <anchor x="440" y="200" name="def"/>
  <outline>
    <contour>
      <point x="127" y="1447" type="line"/>
      <point x="127" y="1249" type="line"/>
      <point x="304" y="1249" type="line"/>
      <point x="304" y="1447" type="line"/>
    </contour>
    <contour>
      <point x="127" y="1039" type="line"/>
      <point x="127" y="-150" type="line" smooth="yes"/>
      <point x="127" y="-225"/>
      <point x="97" y="-289"/>
      <point x="30" y="-289" type="curve" smooth="yes"/>
      <point x="7" y="-289"/>
      <point x="-19" y="-278"/>
      <point x="-38" y="-274" type="curve"/>
      <point x="-38" y="-420" type="line"/>
      <point x="-15" y="-439"/>
      <point x="26" y="-443"/>
      <point x="56" y="-443" type="curve" smooth="yes"/>
      <point x="195" y="-443"/>
      <point x="304" y="-356"/>
      <point x="304" y="-176" type="curve" smooth="yes"/>
      <point x="304" y="1039" type="line"/>
    </contour>
  </outline>
</glyph>
<glyph name="k" format="2">
  <advance width="997"/>
  <unicode hex="006B"/>
  <anchor x="520" y="0" name="PB"/>
  <anchor x="600" y="200" name="def"/>
  <outline>
    <contour>
      <point x="127" y="1447" type="line"/>
      <point x="127" y="0" type="line"/>
      <point x="300" y="0" type="line"/>
      <point x="300" y="364" type="line"/>
      <point x="484" y="536" type="line"/>
      <point x="757" y="0" type="line"/>
      <point x="982" y="0" type="line"/>
      <point x="596" y="652" type="line"/>
      <point x="979" y="1039" type="line"/>
      <point x="765" y="1039" type="line"/>
      <point x="300" y="570" type="line"/>
      <point x="300" y="1447" type="line"/>
    </contour>
  </outline>
</glyph>
<glyph name="m" format="2">
  <advance width="1661"/>
  <unicode hex="006D"/>
  <anchor x="520" y="0" name="PB"/>
  <anchor x="760" y="0" name="def"/>
  <outline>
    <contour>
      <point x="127" y="0" type="line"/>
      <point x="304" y="0" type="line"/>
      <point x="304" y="675" type="line" smooth="yes"/>
      <point x="304" y="787"/>
      <point x="446" y="904"/>
      <point x="566" y="904" type="curve" smooth="yes"/>
      <point x="641" y="904"/>
      <point x="746" y="855"/>
      <point x="746" y="724" type="curve" smooth="yes"/>
      <point x="746" y="0" type="line"/>
      <point x="922" y="0" type="line"/>
      <point x="922" y="675" type="line" smooth="yes"/>
      <point x="922" y="787"/>
      <point x="1065" y="904"/>
      <point x="1185" y="904" type="curve" smooth="yes"/>
      <point x="1264" y="904"/>
      <point x="1369" y="855"/>
      <point x="1369" y="724" type="curve" smooth="yes"/>
      <point x="1369" y="0" type="line"/>
      <point x="1541" y="0" type="line"/>
      <point x="1541" y="784" type="line" smooth="yes"/>
      <point x="1541" y="949"/>
      <point x="1402" y="1061"/>
      <point x="1207" y="1061" type="curve" smooth="yes"/>
      <point x="1087" y="1061"/>
      <point x="960" y="1005"/>
      <point x="889" y="900" type="curve"/>
      <point x="825" y="1005"/>
      <point x="720" y="1057"/>
      <point x="607" y="1057" type="curve" smooth="yes"/>
      <point x="491" y="1057"/>
      <point x="375" y="1005"/>
      <point x="304" y="900" type="curve"/>
      <point x="304" y="1039" type="line"/>
      <point x="127" y="1039" type="line"/>
    </contour>
  </outline>
</glyph>
<glyph name="n" format="2">
  <advance width="1095"/>
  <unicode hex="006E"/>
  <anchor x="520" y="0" name="PB"/>
  <anchor x="580" y="0" name="def"/>
  <outline>
    <contour>
      <point x="127" y="0" type="line"/>
      <point x="304" y="0" type="line"/>
      <point x="304" y="671" type="line"/>
      <point x="334" y="799"/>
      <point x="480" y="904"/>
      <point x="611" y="904" type="curve" smooth="yes"/>
      <point x="690" y="904"/>
      <point x="791" y="825"/>
      <point x="791" y="716" type="curve" smooth="yes"/>
      <point x="791" y="0" type="line"/>
      <point x="967" y="0" type="line"/>
      <point x="967" y="776" type="line" smooth="yes"/>
      <point x="967" y="945"/>
      <point x="825" y="1057"/>
      <point x="626" y="1057" type="curve" smooth="yes"/>
      <point x="506" y="1057"/>
      <point x="375" y="1009"/>
      <point x="304" y="900" type="curve"/>
      <point x="304" y="1039" type="line"/>
      <point x="127" y="1039" type="line"/>
    </contour>
  </outline>
</glyph>
<glyph name="o" format="2">
  <advance width="1131"/>
  <unicode hex="006F"/>
  <anchor x="520" y="0" name="PB"/>
  <anchor x="580" y="0" name="def"/>
  <outline>
    <contour>
      <point x="565" y="-22" type="curve" smooth="yes"/>
      <point x="851" y="-22"/>
      <point x="1061" y="224"/>
      <point x="1061" y="519" type="curve"/>
      <point x="1061" y="787"/>
      <point x="851" y="1004"/>
      <point x="565" y="1004" type="curve"/>
      <point x="280" y="1004"/>
      <point x="70" y="769"/>
      <point x="70" y="479" type="curve"/>
      <point x="70" y="205"/>
      <point x="280" y="-22"/>
    </contour>
    <contour>
      <point x="598" y="90" type="curve" smooth="yes"/>
      <point x="438" y="90"/>
      <point x="344" y="304"/>
      <point x="344" y="565" type="curve"/>
      <point x="344" y="747"/>
      <point x="430" y="896"/>
      <point x="525" y="896" type="curve"/>
      <point x="718" y="896"/>
      <point x="788" y="686"/>
      <point x="788" y="424" type="curve"/>
      <point x="788" y="241"/>
      <point x="709" y="90"/>
    </contour>
  </outline>
</glyph>
<glyph name="s" format="2">
  <advance width="979"/>
  <unicode hex="0073"/>
  <outline>
    <contour>
      <point x="79" y="337" type="line"/>
      <point x="79" y="97"/>
      <point x="259" y="-19"/>
      <point x="480" y="-19" type="curve" smooth="yes"/>
      <point x="705" y="-19"/>
      <point x="900" y="71"/>
      <point x="900" y="307" type="curve" smooth="yes"/>
      <point x="900" y="506"/>
      <point x="728" y="559"/>
      <point x="555" y="611" type="curve" smooth="yes"/>
      <point x="419" y="652"/>
      <point x="289" y="675"/>
      <point x="289" y="784" type="curve" smooth="yes"/>
      <point x="289" y="855"/>
      <point x="356" y="904"/>
      <point x="480" y="904" type="curve" smooth="yes"/>
      <point x="600" y="904"/>
      <point x="690" y="877"/>
      <point x="690" y="757" type="curve"/>
      <point x="866" y="757" type="line"/>
      <point x="866" y="964"/>
      <point x="705" y="1057"/>
      <point x="480" y="1057" type="curve" smooth="yes"/>
      <point x="292" y="1057"/>
      <point x="112" y="990"/>
      <point x="112" y="780" type="curve" smooth="yes"/>
      <point x="112" y="592"/>
      <point x="266" y="521"/>
      <point x="457" y="476" type="curve" smooth="yes"/>
      <point x="604" y="442"/>
      <point x="724" y="386"/>
      <point x="724" y="289" type="curve" smooth="yes"/>
      <point x="724" y="161"/>
      <point x="585" y="131"/>
      <point x="480" y="131" type="curve" smooth="yes"/>
      <point x="349" y="131"/>
      <point x="255" y="195"/>
      <point x="255" y="337" type="curve"/>
    </contour>
  </outline>
</glyph>
<glyph name="t" format="2">
  <advance width="566"/>
  <unicode hex="0074"/>
  <anchor x="520" y="0" name="PB"/>
  <anchor x="440" y="160" name="def"/>
  <outline>
    <contour>
      <point x="187" y="1342" type="line"/>
      <point x="187" y="1039" type="line"/>
      <point x="26" y="1039" type="line"/>
      <point x="26" y="889" type="line"/>
      <point x="187" y="889" type="line"/>
      <point x="187" y="187" type="line" smooth="yes"/>
      <point x="187" y="37"/>
      <point x="289" y="-19"/>
      <point x="405" y="-19" type="curve" smooth="yes"/>
      <point x="457" y="-19"/>
      <point x="506" y="-11"/>
      <point x="544" y="-4" type="curve"/>
      <point x="544" y="146" type="line"/>
      <point x="517" y="135"/>
      <point x="502" y="135"/>
      <point x="484" y="135" type="curve" smooth="yes"/>
      <point x="409" y="135"/>
      <point x="360" y="172"/>
      <point x="360" y="262" type="curve" smooth="yes"/>
      <point x="360" y="889" type="line"/>
      <point x="517" y="889" type="line"/>
      <point x="517" y="1039" type="line"/>
      <point x="360" y="1039" type="line"/>
      <point x="360" y="1342" type="line"/>
    </contour>
  </outline>
</glyph>
<glyph name="w" format="2">
  <advance width="1424"/>
  <unicode hex="0077"/>
  <anchor x="520" y="0" name="PB"/>
  <anchor x="502" y="0" name="def"/>
  <outline>
    <contour>
      <point x="11" y="1039" type="line"/>
      <point x="311" y="0" type="line"/>
      <point x="487" y="0" type="line"/>
      <point x="712" y="859" type="line"/>
      <point x="937" y="0" type="line"/>
      <point x="1113" y="0" type="line"/>
      <point x="1413" y="1039" type="line"/>
      <point x="1233" y="1039" type="line"/>
      <point x="1023" y="259" type="line"/>
      <point x="809" y="1039" type="line"/>
      <point x="618" y="1039" type="line"/>
      <point x="404" y="259" type="line"/>
      <point x="194" y="1039" type="line"/>
    </contour>
  </outline>
</glyph>
<glyph name="x" format="2">
  <advance width="986"/>
  <unicode hex="0078"/>
  <anchor x="520" y="0" name="PB"/>
  <anchor x="502" y="0" name="def"/>
  <outline>
    <contour>
      <point x="41" y="1039" type="line"/>
      <point x="386" y="536" type="line"/>
      <point x="19" y="0" type="line"/>
      <point x="240" y="0" type="line"/>
      <point x="491" y="401" type="line"/>
      <point x="746" y="0" type="line"/>
      <point x="967" y="0" type="line"/>
      <point x="600" y="536" type="line"/>
      <point x="956" y="1039" type="line"/>
      <point x="742" y="1039" type="line"/>
      <point x="491" y="652" type="line"/>
      <point x="255" y="1039" type="line"/>
    </contour>
  </outline>
</glyph>
<glyph name="z" format="2">
  <advance width="1005"/>
  <unicode hex="007A"/>
  <anchor x="520" y="0" name="PB"/>
  <anchor x="502" y="0" name="def"/>
  <outline>
    <contour>
      <point x="101" y="1039" type="line"/>
      <point x="101" y="885" type="line"/>
      <point x="667" y="885" type="line"/>
      <point x="667" y="881" type="line"/>
      <point x="64" y="154" type="line"/>
      <point x="64" y="0" type="line"/>
      <point x="922" y="0" type="line"/>
      <point x="922" y="154" type="line"/>
      <point x="296" y="154" type="line"/>
      <point x="296" y="157" type="line"/>
      <point x="904" y="885" type="line"/>
      <point x="904" y="1039" type="line"/>
    </contour>
  </outline>
</glyph>
<glyph name="braceleft" format="2">
  <advance width="768"/>
  <unicode hex="007B"/>
  <outline>
    <contour>
      <point x="728" y="1744" type="line"/>
      <point x="460" y="1744"/>
      <point x="241" y="1539"/>
      <point x="241" y="1287" type="curve"/>
      <point x="241" y="1258"/>
      <point x="247" y="1225"/>
      <point x="255" y="1187" type="curve"/>
      <point x="265" y="1140"/>
      <point x="274" y="1087"/>
      <point x="274" y="1010" type="curve"/>
      <point x="274" y="875"/>
      <point x="169" y="766"/>
      <point x="40" y="766" type="curve"/>
      <point x="40" y="669" type="line"/>
      <point x="169" y="669"/>
      <point x="274" y="560"/>
      <point x="274" y="421" type="curve" smooth="yes"/>
      <point x="274" y="360"/>
      <point x="266" y="313"/>
      <point x="258" y="270" type="curve" smooth="yes"/>
      <point x="249" y="227"/>
      <point x="241" y="186"/>
      <point x="241" y="144" type="curve" smooth="yes"/>
      <point x="241" y="-112"/>
      <point x="460" y="-326"/>
      <point x="728" y="-326" type="curve"/>
      <point x="728" y="-252" type="line"/>
      <point x="584" y="-237"/>
      <point x="469" y="-92"/>
      <point x="469" y="76" type="curve" smooth="yes"/>
      <point x="469" y="134"/>
      <point x="476" y="178"/>
      <point x="484" y="220" type="curve" smooth="yes"/>
      <point x="492" y="263"/>
      <point x="501" y="305"/>
      <point x="501" y="350" type="curve" smooth="yes"/>
      <point x="501" y="499"/>
      <point x="391" y="661"/>
      <point x="248" y="722" type="curve"/>
      <point x="391" y="793"/>
      <point x="501" y="949"/>
      <point x="501" y="1081" type="curve"/>
      <point x="501" y="1119"/>
      <point x="494" y="1157"/>
      <point x="485" y="1200" type="curve"/>
      <point x="477" y="1243"/>
      <point x="469" y="1291"/>
      <point x="469" y="1354" type="curve"/>
      <point x="469" y="1515"/>
      <point x="584" y="1656"/>
      <point x="728" y="1671" type="curve"/>
    </contour>
  </outline>
</glyph>
<glyph name="braceright" format="2">
  <advance width="675"/>
  <unicode hex="007D"/>
  <outline>
    <contour>
      <point x="603" y="793" type="line"/>
      <point x="543" y="793" type="line"/>
      <point x="438" y="793"/>
      <point x="420" y="906"/>
      <point x="420" y="987" type="curve" smooth="yes"/>
      <point x="420" y="1486" type="line" smooth="yes"/>
      <point x="420" y="1636"/>
      <point x="303" y="1724"/>
      <point x="187" y="1724" type="curve" smooth="yes"/>
      <point x="78" y="1724" type="line"/>
      <point x="78" y="1575" type="line"/>
      <point x="105" y="1575" type="line"/>
      <point x="187" y="1575"/>
      <point x="258" y="1519"/>
      <point x="258" y="1446" type="curve" smooth="yes"/>
      <point x="258" y="902" type="line" smooth="yes"/>
      <point x="258" y="793"/>
      <point x="330" y="736"/>
      <point x="438" y="717" type="curve"/>
      <point x="337" y="692"/>
      <point x="258" y="644"/>
      <point x="258" y="531" type="curve"/>
      <point x="258" y="-1" type="line" smooth="yes"/>
      <point x="258" y="-86"/>
      <point x="187" y="-135"/>
      <point x="105" y="-135" type="curve" smooth="yes"/>
      <point x="78" y="-135" type="line"/>
      <point x="78" y="-283" type="line"/>
      <point x="187" y="-283" type="line"/>
      <point x="303" y="-283"/>
      <point x="420" y="-179"/>
      <point x="420" y="-38" type="curve" smooth="yes"/>
      <point x="420" y="450" type="line" smooth="yes"/>
      <point x="420" y="543"/>
      <point x="438" y="644"/>
      <point x="543" y="644" type="curve" smooth="yes"/>
      <point x="603" y="644" type="line"/>
    </contour>
  </outline>
</glyph>
<glyph name="asciitilde" format="2">
  <advance width="1429"/>
  <unicode hex="007E"/>
  <outline>
    <contour>
      <point x="1140" y="851" type="line"/>
      <point x="1140" y="682"/>
      <point x="1039" y="559"/>
      <point x="952" y="559" type="curve" smooth="yes"/>
      <point x="780" y="559"/>
      <point x="784" y="896"/>
      <point x="469" y="896" type="curve" smooth="yes"/>
      <point x="229" y="896"/>
      <point x="120" y="671"/>
      <point x="120" y="439" type="curve"/>
      <point x="259" y="439" type="line"/>
      <point x="259" y="559"/>
      <point x="296" y="742"/>
      <point x="442" y="742" type="curve" smooth="yes"/>
      <point x="690" y="742"/>
      <point x="656" y="405"/>
      <point x="941" y="405" type="curve" smooth="yes"/>
      <point x="1144" y="405"/>
      <point x="1279" y="559"/>
      <point x="1279" y="851" type="curve"/>
    </contour>
  </outline>
</glyph>
<glyph name="exclamdown" format="2">
  <advance width="526"/>
  <unicode hex="00A1"/>
  <outline>
    <contour>
      <point x="193" y="1081" type="line"/>
      <point x="183" y="781"/>
      <point x="100" y="455"/>
      <point x="100" y="155" type="curve" smooth="yes"/>
      <point x="100" y="35"/>
      <point x="163" y="-32"/>
      <point x="263" y="-32" type="curve" smooth="yes"/>
      <point x="363" y="-32"/>
      <point x="426" y="35"/>
      <point x="426" y="155" type="curve" smooth="yes"/>
      <point x="426" y="455"/>
      <point x="343" y="781"/>
      <point x="333" y="1081" type="curve"/>
    </contour>
    <contour>
      <point x="143" y="1354" type="curve" smooth="yes"/>
      <point x="143" y="1288"/>
      <point x="197" y="1234"/>
      <point x="263" y="1234" type="curve" smooth="yes"/>
      <point x="329" y="1234"/>
      <point x="383" y="1288"/>
      <point x="383" y="1354" type="curve" smooth="yes"/>
      <point x="383" y="1420"/>
      <point x="329" y="1474"/>
      <point x="263" y="1474" type="curve" smooth="yes"/>
      <point x="197" y="1474"/>
      <point x="143" y="1420"/>
    </contour>
  </outline>
</glyph>
<glyph name="sterling" format="2">
  <advance width="1172"/>
  <unicode hex="00A3"/>
  <outline>
    <contour>
      <point x="98" y="710" type="line"/>
      <point x="311" y="710" type="line"/>
      <point x="322" y="618"/>
      <point x="330" y="530"/>
      <point x="330" y="448" type="curve"/>
      <point x="330" y="401"/>
      <point x="327" y="354"/>
      <point x="322" y="307" type="curve"/>
      <point x="309" y="310"/>
      <point x="293" y="312"/>
      <point x="276" y="312" type="curve"/>
      <point x="143" y="312"/>
      <point x="50" y="231"/>
      <point x="50" y="125" type="curve"/>
      <point x="50" y="38"/>
      <point x="130" y="-32"/>
      <point x="221" y="-32" type="curve"/>
      <point x="315" y="-32"/>
      <point x="387" y="23"/>
      <point x="434" y="101" type="curve"/>
      <point x="518" y="24"/>
      <point x="631" y="-32"/>
      <point x="764" y="-32" type="curve"/>
      <point x="992" y="-32"/>
      <point x="1102" y="162"/>
      <point x="1122" y="345" type="curve"/>
      <point x="1011" y="366" type="line"/>
      <point x="978" y="249"/>
      <point x="912" y="196"/>
      <point x="811" y="196" type="curve"/>
      <point x="709" y="196"/>
      <point x="602" y="219"/>
      <point x="506" y="266" type="curve"/>
      <point x="550" y="385"/>
      <point x="573" y="505"/>
      <point x="573" y="630" type="curve"/>
      <point x="573" y="710" type="line"/>
      <point x="852" y="710" type="line"/>
      <point x="846" y="818" type="line"/>
      <point x="567" y="818" type="line"/>
      <point x="554" y="921"/>
      <point x="545" y="1053"/>
      <point x="545" y="1093" type="curve"/>
      <point x="545" y="1220"/>
      <point x="563" y="1369"/>
      <point x="702" y="1369" type="curve"/>
      <point x="759" y="1369"/>
      <point x="793" y="1336"/>
      <point x="793" y="1278" type="curve" smooth="yes"/>
      <point x="793" y="1174"/>
      <point x="841" y="1136"/>
      <point x="916" y="1136" type="curve"/>
      <point x="988" y="1136"/>
      <point x="1040" y="1194"/>
      <point x="1040" y="1243" type="curve"/>
      <point x="1040" y="1334"/>
      <point x="940" y="1470"/>
      <point x="731" y="1470" type="curve"/>
      <point x="427" y="1470"/>
      <point x="287" y="1235"/>
      <point x="287" y="985" type="curve"/>
      <point x="287" y="925"/>
      <point x="290" y="873"/>
      <point x="295" y="818" type="curve"/>
      <point x="98" y="818" type="line"/>
    </contour>
    <contour>
      <point x="224" y="68" type="curve" smooth="yes"/>
      <point x="206" y="68"/>
      <point x="195" y="99"/>
      <point x="195" y="136" type="curve"/>
      <point x="195" y="175"/>
      <point x="220" y="204"/>
      <point x="258" y="204" type="curve"/>
      <point x="276" y="204"/>
      <point x="292" y="200"/>
      <point x="310" y="193" type="curve"/>
      <point x="293" y="135"/>
      <point x="263" y="68"/>
    </contour>
  </outline>
</glyph>
<glyph name="currency" format="2">
  <advance width="904"/>
  <unicode hex="00A4"/>
  <outline>
    <contour>
      <point x="840" y="360" type="line"/>
      <point x="772" y="427" type="line"/>
      <point x="814" y="491"/>
      <point x="840" y="570"/>
      <point x="840" y="649" type="curve" smooth="yes"/>
      <point x="840" y="731"/>
      <point x="814" y="806"/>
      <point x="772" y="870" type="curve"/>
      <point x="840" y="941" type="line"/>
      <point x="742" y="1039" type="line"/>
      <point x="671" y="971" type="line"/>
      <point x="607" y="1012"/>
      <point x="532" y="1039"/>
      <point x="450" y="1039" type="curve" smooth="yes"/>
      <point x="371" y="1039"/>
      <point x="292" y="1012"/>
      <point x="229" y="971" type="curve"/>
      <point x="161" y="1039" type="line"/>
      <point x="60" y="941" type="line"/>
      <point x="131" y="870" type="line"/>
      <point x="86" y="806"/>
      <point x="60" y="731"/>
      <point x="60" y="649" type="curve" smooth="yes"/>
      <point x="60" y="570"/>
      <point x="86" y="491"/>
      <point x="127" y="427" type="curve"/>
      <point x="60" y="360" type="line"/>
      <point x="157" y="259" type="line"/>
      <point x="229" y="330" type="line"/>
      <point x="292" y="285"/>
      <point x="371" y="259"/>
      <point x="450" y="259" type="curve" smooth="yes"/>
      <point x="532" y="259"/>
      <point x="607" y="285"/>
      <point x="671" y="330" type="curve"/>
      <point x="742" y="259" type="line"/>
    </contour>
    <contour>
      <point x="450" y="900" type="curve" smooth="yes"/>
      <point x="589" y="900"/>
      <point x="701" y="787"/>
      <point x="701" y="649" type="curve" smooth="yes"/>
      <point x="701" y="514"/>
      <point x="589" y="401"/>
      <point x="450" y="401" type="curve" smooth="yes"/>
      <point x="315" y="401"/>
      <point x="202" y="514"/>
      <point x="202" y="649" type="curve" smooth="yes"/>
      <point x="202" y="787"/>
      <point x="315" y="900"/>
    </contour>
  </outline>
</glyph>
<glyph name="brokenbar" format="2">
  <advance width="499"/>
  <unicode hex="00A6"/>
  <outline>
    <contour>
      <point x="319" y="-281" type="line"/>
      <point x="319" y="589" type="line"/>
      <point x="180" y="589" type="line"/>
      <point x="180" y="-281" type="line"/>
    </contour>
    <contour>
      <point x="180" y="1646" type="line"/>
      <point x="180" y="776" type="line"/>
      <point x="319" y="776" type="line"/>
      <point x="319" y="1646" type="line"/>
    </contour>
  </outline>
</glyph>
<glyph name="section" format="2">
  <advance width="1020"/>
  <unicode hex="00A7"/>
  <outline>
    <contour>
      <point x="79" y="337" type="line"/>
      <point x="79" y="101"/>
      <point x="262" y="-41"/>
      <point x="484" y="-41" type="curve" smooth="yes"/>
      <point x="709" y="-41"/>
      <point x="907" y="45"/>
      <point x="907" y="281" type="curve" smooth="yes"/>
      <point x="907" y="386"/>
      <point x="844" y="472"/>
      <point x="757" y="514" type="curve"/>
      <point x="874" y="562"/>
      <point x="941" y="630"/>
      <point x="941" y="757" type="curve" smooth="yes"/>
      <point x="941" y="1091"/>
      <point x="311" y="975"/>
      <point x="311" y="1207" type="curve" smooth="yes"/>
      <point x="311" y="1279"/>
      <point x="375" y="1331"/>
      <point x="484" y="1331" type="curve" smooth="yes"/>
      <point x="604" y="1331"/>
      <point x="694" y="1305"/>
      <point x="694" y="1185" type="curve"/>
      <point x="874" y="1185" type="line"/>
      <point x="874" y="1395"/>
      <point x="709" y="1485"/>
      <point x="484" y="1485" type="curve" smooth="yes"/>
      <point x="296" y="1485"/>
      <point x="127" y="1414"/>
      <point x="127" y="1204" type="curve" smooth="yes"/>
      <point x="127" y="1102"/>
      <point x="184" y="1039"/>
      <point x="262" y="1001" type="curve"/>
      <point x="176" y="960"/>
      <point x="112" y="892"/>
      <point x="112" y="784" type="curve" smooth="yes"/>
      <point x="112" y="592"/>
      <point x="270" y="524"/>
      <point x="461" y="469" type="curve" smooth="yes"/>
      <point x="605" y="428"/>
      <point x="727" y="364"/>
      <point x="727" y="270" type="curve" smooth="yes"/>
      <point x="727" y="142"/>
      <point x="589" y="116"/>
      <point x="484" y="116" type="curve" smooth="yes"/>
      <point x="352" y="116"/>
      <point x="259" y="195"/>
      <point x="259" y="337" type="curve"/>
    </contour>
    <contour>
      <point x="292" y="784" type="curve" smooth="yes"/>
      <point x="292" y="855"/>
      <point x="375" y="922"/>
      <point x="484" y="922" type="curve"/>
      <point x="626" y="889"/>
      <point x="757" y="840"/>
      <point x="757" y="742" type="curve" smooth="yes"/>
      <point x="757" y="636"/>
      <point x="645" y="615"/>
      <point x="574" y="600" type="curve"/>
      <point x="442" y="637"/>
      <point x="292" y="679"/>
    </contour>
  </outline>
</glyph>
<glyph name="dieresis" format="2">
  <advance width="941"/>
  <unicode hex="00A8"/>
  <outline>
    <contour>
      <point x="120" y="1340" type="curve" smooth="yes"/>
      <point x="120" y="1263"/>
      <point x="183" y="1200"/>
      <point x="260" y="1200" type="curve" smooth="yes"/>
      <point x="337" y="1200"/>
      <point x="400" y="1263"/>
      <point x="400" y="1340" type="curve" smooth="yes"/>
      <point x="400" y="1417"/>
      <point x="337" y="1480"/>
      <point x="260" y="1480" type="curve" smooth="yes"/>
      <point x="183" y="1480"/>
      <point x="120" y="1417"/>
    </contour>
    <contour>
      <point x="541" y="1340" type="curve" smooth="yes"/>
      <point x="541" y="1263"/>
      <point x="604" y="1200"/>
      <point x="681" y="1200" type="curve" smooth="yes"/>
      <point x="758" y="1200"/>
      <point x="821" y="1263"/>
      <point x="821" y="1340" type="curve" smooth="yes"/>
      <point x="821" y="1417"/>
      <point x="758" y="1480"/>
      <point x="681" y="1480" type="curve" smooth="yes"/>
      <point x="604" y="1480"/>
      <point x="541" y="1417"/>
    </contour>
  </outline>
</glyph>
<glyph name="ordfeminine" format="2">
  <advance width="780"/>
  <unicode hex="00AA"/>
  <outline>
    <contour>
      <point x="97" y="712" type="line"/>
      <point x="97" y="589" type="line"/>
      <point x="682" y="589" type="line"/>
      <point x="682" y="712" type="line"/>
    </contour>
    <contour>
      <point x="240" y="1271" type="line"/>
      <point x="240" y="1335"/>
      <point x="292" y="1369"/>
      <point x="356" y="1369" type="curve" smooth="yes"/>
      <point x="439" y="1369"/>
      <point x="476" y="1346"/>
      <point x="476" y="1286" type="curve" smooth="yes"/>
      <point x="476" y="1207"/>
      <point x="97" y="1264"/>
      <point x="97" y="1001" type="curve" smooth="yes"/>
      <point x="97" y="885"/>
      <point x="172" y="810"/>
      <point x="277" y="810" type="curve" smooth="yes"/>
      <point x="367" y="810"/>
      <point x="439" y="836"/>
      <point x="476" y="889" type="curve"/>
      <point x="499" y="832"/>
      <point x="547" y="810"/>
      <point x="607" y="810" type="curve" smooth="yes"/>
      <point x="641" y="810"/>
      <point x="660" y="817"/>
      <point x="682" y="825" type="curve"/>
      <point x="682" y="945" type="line"/>
      <point x="667" y="930"/>
      <point x="652" y="926"/>
      <point x="645" y="926" type="curve" smooth="yes"/>
      <point x="626" y="926"/>
      <point x="615" y="945"/>
      <point x="615" y="964" type="curve" smooth="yes"/>
      <point x="615" y="1297" type="line" smooth="yes"/>
      <point x="615" y="1447"/>
      <point x="480" y="1485"/>
      <point x="367" y="1485" type="curve" smooth="yes"/>
      <point x="255" y="1485"/>
      <point x="112" y="1425"/>
      <point x="112" y="1271" type="curve"/>
    </contour>
    <contour>
      <point x="476" y="1020" type="line"/>
      <point x="435" y="945"/>
      <point x="390" y="926"/>
      <point x="315" y="926" type="curve" smooth="yes"/>
      <point x="266" y="926"/>
      <point x="240" y="945"/>
      <point x="240" y="1001" type="curve" smooth="yes"/>
      <point x="240" y="1121"/>
      <point x="397" y="1129"/>
      <point x="476" y="1166" type="curve"/>
    </contour>
  </outline>
</glyph>
<glyph name="registered" format="2">
  <advance width="1189"/>
  <unicode hex="00AE"/>
  <outline>
    <contour>
      <point x="592" y="416" type="curve" smooth="yes"/>
      <point x="889" y="416"/>
      <point x="1132" y="660"/>
      <point x="1132" y="952" type="curve"/>
      <point x="1132" y="1249"/>
      <point x="889" y="1485"/>
      <point x="592" y="1485" type="curve" smooth="yes"/>
      <point x="300" y="1485"/>
      <point x="60" y="1249"/>
      <point x="60" y="952" type="curve" smooth="yes"/>
      <point x="60" y="660"/>
      <point x="300" y="416"/>
    </contour>
    <contour>
      <point x="592" y="480" type="curve" smooth="yes"/>
      <point x="337" y="480"/>
      <point x="124" y="694"/>
      <point x="124" y="952" type="curve"/>
      <point x="124" y="1211"/>
      <point x="337" y="1421"/>
      <point x="592" y="1421" type="curve" smooth="yes"/>
      <point x="851" y="1421"/>
      <point x="1069" y="1211"/>
      <point x="1069" y="952" type="curve" smooth="yes"/>
      <point x="1069" y="694"/>
      <point x="851" y="480"/>
    </contour>
    <contour>
      <point x="349" y="604" type="line"/>
      <point x="446" y="604" type="line"/>
      <point x="446" y="907" type="line"/>
      <point x="652" y="907" type="line" smooth="yes"/>
      <point x="724" y="907"/>
      <point x="757" y="851"/>
      <point x="757" y="802" type="curve" smooth="yes"/>
      <point x="757" y="694" type="line" smooth="yes"/>
      <point x="757" y="667"/>
      <point x="761" y="622"/>
      <point x="780" y="604" type="curve"/>
      <point x="889" y="604" type="line"/>
      <point x="870" y="622"/>
      <point x="855" y="652"/>
      <point x="855" y="697" type="curve" smooth="yes"/>
      <point x="855" y="802" type="line" smooth="yes"/>
      <point x="855" y="866"/>
      <point x="836" y="930"/>
      <point x="757" y="949" type="curve"/>
      <point x="821" y="956"/>
      <point x="870" y="1039"/>
      <point x="870" y="1125" type="curve" smooth="yes"/>
      <point x="870" y="1215"/>
      <point x="787" y="1312"/>
      <point x="682" y="1312" type="curve" smooth="yes"/>
      <point x="349" y="1312" type="line"/>
    </contour>
    <contour>
      <point x="446" y="1230" type="line"/>
      <point x="652" y="1230" type="line" smooth="yes"/>
      <point x="709" y="1230"/>
      <point x="765" y="1177"/>
      <point x="765" y="1110" type="curve" smooth="yes"/>
      <point x="765" y="1046"/>
      <point x="716" y="990"/>
      <point x="652" y="990" type="curve" smooth="yes"/>
      <point x="446" y="990" type="line"/>
    </contour>
  </outline>
</glyph>
<glyph name="macron" format="2">
  <advance width="656"/>
  <unicode hex="00AF"/>
  <outline>
    <contour>
      <point x="90" y="1406" type="line"/>
      <point x="90" y="1275" type="line"/>
      <point x="570" y="1275" type="line"/>
      <point x="570" y="1406" type="line"/>
    </contour>
  </outline>
</glyph>
<glyph name="degree" format="2">
  <advance width="820"/>
  <unicode hex="00B0"/>
  <outline>
    <contour>
      <point x="70" y="1126" type="curve" smooth="yes"/>
      <point x="70" y="938"/>
      <point x="222" y="786"/>
      <point x="410" y="786" type="curve" smooth="yes"/>
      <point x="598" y="786"/>
      <point x="750" y="938"/>
      <point x="750" y="1126" type="curve" smooth="yes"/>
      <point x="750" y="1314"/>
      <point x="598" y="1466"/>
      <point x="410" y="1466" type="curve" smooth="yes"/>
      <point x="222" y="1466"/>
      <point x="70" y="1314"/>
    </contour>
    <contour>
      <point x="190" y="1126" type="curve" smooth="yes"/>
      <point x="190" y="1247"/>
      <point x="289" y="1346"/>
      <point x="410" y="1346" type="curve" smooth="yes"/>
      <point x="531" y="1346"/>
      <point x="630" y="1247"/>
      <point x="630" y="1126" type="curve" smooth="yes"/>
      <point x="630" y="1005"/>
      <point x="531" y="906"/>
      <point x="410" y="906" type="curve" smooth="yes"/>
      <point x="289" y="906"/>
      <point x="190" y="1005"/>
    </contour>
  </outline>
</glyph>
<glyph name="acute" format="2">
  <advance width="427"/>
  <unicode hex="00B4"/>
  <outline>
    <contour>
      <point x="401" y="1474" type="line"/>
      <point x="135" y="1474" type="line"/>
      <point x="22" y="1099" type="line"/>
      <point x="79" y="1099" type="line"/>
    </contour>
  </outline>
</glyph>
<glyph name="mu" format="2">
  <advance width="1132"/>
  <unicode hex="00B5"/>
  <unicode hex="03BC"/>
  <outline>
    <contour>
      <point x="139" y="1039" type="line"/>
      <point x="139" y="-420" type="line"/>
      <point x="315" y="-420" type="line"/>
      <point x="315" y="37" type="line"/>
      <point x="356" y="0"/>
      <point x="424" y="-19"/>
      <point x="487" y="-19" type="curve" smooth="yes"/>
      <point x="626" y="-19"/>
      <point x="731" y="34"/>
      <point x="814" y="139" type="curve"/>
      <point x="817" y="139" type="line"/>
      <point x="817" y="0" type="line"/>
      <point x="994" y="0" type="line"/>
      <point x="994" y="1039" type="line"/>
      <point x="817" y="1039" type="line"/>
      <point x="817" y="326" type="line"/>
      <point x="765" y="217"/>
      <point x="626" y="135"/>
      <point x="506" y="135" type="curve" smooth="yes"/>
      <point x="405" y="135"/>
      <point x="315" y="195"/>
      <point x="315" y="345" type="curve" smooth="yes"/>
      <point x="315" y="1039" type="line"/>
    </contour>
  </outline>
</glyph>
<glyph name="periodcentered" format="2">
  <advance width="562"/>
  <unicode hex="00B7"/>
  <unicode hex="2219"/>
  <outline>
    <contour>
      <point x="187" y="720" type="line"/>
      <point x="187" y="502" type="line"/>
      <point x="382" y="502" type="line"/>
      <point x="382" y="720" type="line"/>
    </contour>
  </outline>
</glyph>
<glyph name="ordmasculine" format="2">
  <advance width="780"/>
  <unicode hex="00BA"/>
  <outline>
    <contour>
      <point x="394" y="806" type="curve" smooth="yes"/>
      <point x="559" y="806"/>
      <point x="682" y="960"/>
      <point x="682" y="1147" type="curve" smooth="yes"/>
      <point x="682" y="1335"/>
      <point x="559" y="1485"/>
      <point x="394" y="1485" type="curve" smooth="yes"/>
      <point x="221" y="1485"/>
      <point x="97" y="1335"/>
      <point x="97" y="1147" type="curve" smooth="yes"/>
      <point x="97" y="960"/>
      <point x="221" y="806"/>
    </contour>
    <contour>
      <point x="394" y="926" type="curve" smooth="yes"/>
      <point x="311" y="926"/>
      <point x="240" y="1001"/>
      <point x="240" y="1147" type="curve" smooth="yes"/>
      <point x="240" y="1294"/>
      <point x="311" y="1369"/>
      <point x="394" y="1369" type="curve" smooth="yes"/>
      <point x="487" y="1369"/>
      <point x="544" y="1294"/>
      <point x="544" y="1147" type="curve" smooth="yes"/>
      <point x="544" y="1001"/>
      <point x="476" y="926"/>
    </contour>
    <contour>
      <point x="124" y="712" type="line"/>
      <point x="124" y="589" type="line"/>
      <point x="656" y="589" type="line"/>
      <point x="656" y="712" type="line"/>
    </contour>
  </outline>
</glyph>
<glyph name="onequarter" format="2">
  <advance width="1850"/>
  <unicode hex="00BC"/>
  <outline>
    <contour>
      <point x="1593" y="0" type="line"/>
      <point x="1593" y="186" type="line"/>
      <point x="1710" y="186" type="line"/>
      <point x="1710" y="305" type="line"/>
      <point x="1593" y="305" type="line"/>
      <point x="1593" y="781" type="line"/>
      <point x="1430" y="781" type="line"/>
      <point x="1010" y="286" type="line"/>
      <point x="1010" y="186" type="line"/>
      <point x="1378" y="186" type="line"/>
      <point x="1378" y="0" type="line"/>
    </contour>
    <contour>
      <point x="1194" y="305" type="line"/>
      <point x="1378" y="523" type="line"/>
      <point x="1378" y="305" type="line"/>
    </contour>
    <contour>
      <point x="163" y="688" type="line"/>
      <point x="595" y="688" type="line"/>
      <point x="595" y="764" type="line"/>
      <point x="503" y="764"/>
      <point x="486" y="774"/>
      <point x="486" y="824" type="curve"/>
      <point x="486" y="1470" type="line"/>
      <point x="391" y="1470" type="line"/>
      <point x="140" y="1365" type="line"/>
      <point x="174" y="1287" type="line"/>
      <point x="272" y="1328" type="line"/>
      <point x="272" y="824" type="line"/>
      <point x="272" y="774"/>
      <point x="256" y="764"/>
      <point x="163" y="764" type="curve"/>
    </contour>
    <contour>
      <point x="1456" y="1470" type="line"/>
      <point x="1281" y="1470" type="line"/>
      <point x="253" y="-51" type="line"/>
      <point x="428" y="-51" type="line"/>
    </contour>
  </outline>
</glyph>
<glyph name="onehalf" format="2">
  <advance width="1669"/>
  <unicode hex="00BD"/>
  <outline>
    <contour>
      <point x="292" y="645" type="line"/>
      <point x="412" y="645" type="line"/>
      <point x="412" y="1485" type="line"/>
      <point x="315" y="1485" type="line"/>
      <point x="315" y="1395"/>
      <point x="244" y="1331"/>
      <point x="146" y="1331" type="curve" smooth="yes"/>
      <point x="79" y="1331" type="line"/>
      <point x="79" y="1245" type="line"/>
      <point x="292" y="1245" type="line"/>
    </contour>
    <contour>
      <point x="982" y="1485" type="line"/>
      <point x="866" y="1485" type="line"/>
      <point x="382" y="-41" type="line"/>
      <point x="506" y="-41" type="line"/>
    </contour>
    <contour>
      <point x="1039" y="540" type="line"/>
      <point x="1039" y="645"/>
      <point x="1099" y="724"/>
      <point x="1219" y="724" type="curve" smooth="yes"/>
      <point x="1312" y="724"/>
      <point x="1384" y="694"/>
      <point x="1384" y="592" type="curve" smooth="yes"/>
      <point x="1384" y="525"/>
      <point x="1335" y="457"/>
      <point x="1271" y="426" type="curve" smooth="yes"/>
      <point x="1042" y="315"/>
      <point x="907" y="236"/>
      <point x="885" y="0" type="curve"/>
      <point x="1530" y="0" type="line"/>
      <point x="1530" y="124" type="line"/>
      <point x="1046" y="124" type="line"/>
      <point x="1061" y="161"/>
      <point x="1076" y="176"/>
      <point x="1106" y="202" type="curve"/>
      <point x="1189" y="262"/>
      <point x="1282" y="300"/>
      <point x="1368" y="354" type="curve" smooth="yes"/>
      <point x="1455" y="409"/>
      <point x="1530" y="469"/>
      <point x="1530" y="581" type="curve" smooth="yes"/>
      <point x="1530" y="712"/>
      <point x="1421" y="840"/>
      <point x="1234" y="840" type="curve" smooth="yes"/>
      <point x="1031" y="840"/>
      <point x="919" y="724"/>
      <point x="919" y="540" type="curve"/>
    </contour>
  </outline>
</glyph>
<glyph name="threequarters" format="2">
  <advance width="1692"/>
  <unicode hex="00BE"/>
  <outline>
    <contour>
      <point x="1436" y="0" type="line"/>
      <point x="1436" y="186" type="line"/>
      <point x="1552" y="186" type="line"/>
      <point x="1552" y="305" type="line"/>
      <point x="1436" y="305" type="line"/>
      <point x="1436" y="781" type="line"/>
      <point x="1274" y="781" type="line"/>
      <point x="854" y="286" type="line"/>
      <point x="854" y="186" type="line"/>
      <point x="1221" y="186" type="line"/>
      <point x="1221" y="0" type="line"/>
    </contour>
    <contour>
      <point x="279" y="1038" type="line"/>
      <point x="414" y="1038"/>
      <point x="523" y="998"/>
      <point x="523" y="885" type="curve"/>
      <point x="523" y="821"/>
      <point x="475" y="764"/>
      <point x="421" y="764" type="curve"/>
      <point x="394" y="764"/>
      <point x="362" y="778"/>
      <point x="333" y="792" type="curve"/>
      <point x="304" y="806"/>
      <point x="277" y="818"/>
      <point x="239" y="818" type="curve"/>
      <point x="189" y="818"/>
      <point x="140" y="803"/>
      <point x="140" y="758" type="curve"/>
      <point x="140" y="685"/>
      <point x="285" y="666"/>
      <point x="337" y="666" type="curve"/>
      <point x="520" y="666"/>
      <point x="715" y="748"/>
      <point x="715" y="948" type="curve"/>
      <point x="715" y="1041"/>
      <point x="667" y="1101"/>
      <point x="584" y="1141" type="curve"/>
      <point x="634" y="1183"/>
      <point x="672" y="1241"/>
      <point x="672" y="1298" type="curve"/>
      <point x="672" y="1416"/>
      <point x="550" y="1470"/>
      <point x="435" y="1470" type="curve"/>
      <point x="298" y="1470"/>
      <point x="196" y="1398"/>
      <point x="145" y="1284" type="curve"/>
      <point x="246" y="1237" type="line"/>
      <point x="285" y="1298"/>
      <point x="338" y="1343"/>
      <point x="385" y="1343" type="curve"/>
      <point x="436" y="1343"/>
      <point x="468" y="1313"/>
      <point x="468" y="1250" type="curve"/>
      <point x="468" y="1164"/>
      <point x="373" y="1113"/>
      <point x="279" y="1113" type="curve"/>
    </contour>
    <contour>
      <point x="1040" y="305" type="line"/>
      <point x="1221" y="523" type="line"/>
      <point x="1221" y="305" type="line"/>
    </contour>
    <contour>
      <point x="1466" y="1470" type="line"/>
      <point x="1291" y="1470" type="line"/>
      <point x="263" y="-51" type="line"/>
      <point x="438" y="-51" type="line"/>
    </contour>
  </outline>
</glyph>
<glyph name="questiondown" format="2">
  <advance width="989"/>
  <unicode hex="00BF"/>
  <outline>
    <contour>
      <point x="398" y="1109" type="line"/>
      <point x="398" y="896"/>
      <point x="464" y="773"/>
      <point x="527" y="657" type="curve"/>
      <point x="579" y="561"/>
      <point x="628" y="472"/>
      <point x="628" y="333" type="curve"/>
      <point x="628" y="167"/>
      <point x="550" y="83"/>
      <point x="435" y="83" type="curve"/>
      <point x="353" y="83"/>
      <point x="281" y="123"/>
      <point x="281" y="179" type="curve"/>
      <point x="281" y="212"/>
      <point x="294" y="234"/>
      <point x="309" y="258" type="curve" smooth="yes"/>
      <point x="329" y="290"/>
      <point x="347" y="322"/>
      <point x="347" y="353" type="curve"/>
      <point x="347" y="425"/>
      <point x="292" y="461"/>
      <point x="227" y="461" type="curve"/>
      <point x="139" y="461"/>
      <point x="70" y="404"/>
      <point x="70" y="301" type="curve"/>
      <point x="70" y="71"/>
      <point x="301" y="-32"/>
      <point x="486" y="-32" type="curve"/>
      <point x="738" y="-32"/>
      <point x="919" y="98"/>
      <point x="919" y="318" type="curve"/>
      <point x="919" y="472"/>
      <point x="816" y="591"/>
      <point x="714" y="712" type="curve"/>
      <point x="620" y="822"/>
      <point x="525" y="933"/>
      <point x="525" y="1109" type="curve"/>
    </contour>
    <contour>
      <point x="463" y="1470" type="curve" smooth="yes"/>
      <point x="376" y="1470"/>
      <point x="307" y="1410"/>
      <point x="307" y="1341" type="curve"/>
      <point x="307" y="1269"/>
      <point x="376" y="1209"/>
      <point x="463" y="1209" type="curve"/>
      <point x="547" y="1209"/>
      <point x="617" y="1269"/>
      <point x="617" y="1341" type="curve"/>
      <point x="617" y="1410"/>
      <point x="547" y="1470"/>
    </contour>
  </outline>
</glyph>
<glyph name="Acircumflex" format="2">
  <advance width="1614"/>
  <unicode hex="00C2"/>
  <outline>
    <contour>
      <point x="739" y="1470" type="line"/>
      <point x="213" y="246" type="line"/>
      <point x="168" y="143"/>
      <point x="120" y="75"/>
      <point x="10" y="75" type="curve"/>
      <point x="10" y="0" type="line"/>
      <point x="538" y="0" type="line"/>
      <point x="538" y="75" type="line"/>
      <point x="415" y="75"/>
      <point x="375" y="105"/>
      <point x="375" y="149" type="curve"/>
      <point x="375" y="174"/>
      <point x="384" y="202"/>
      <point x="396" y="231" type="curve"/>
      <point x="497" y="466" type="line"/>
      <point x="980" y="466" type="line"/>
      <point x="1080" y="231" type="line"/>
      <point x="1094" y="199"/>
      <point x="1102" y="170"/>
      <point x="1102" y="146" type="curve"/>
      <point x="1102" y="98"/>
      <point x="1055" y="75"/>
      <point x="949" y="75" type="curve"/>
      <point x="949" y="0" type="line"/>
      <point x="1604" y="0" type="line"/>
      <point x="1604" y="75" type="line"/>
      <point x="1463" y="75"/>
      <point x="1419" y="126"/>
      <point x="1369" y="246" type="curve"/>
      <point x="854" y="1470" type="line"/>
    </contour>
    <contour>
      <point x="676" y="1769" type="line"/>
      <point x="443" y="1460" type="line"/>
      <point x="546" y="1460" type="line"/>
      <point x="800" y="1597" type="line"/>
      <point x="1054" y="1460" type="line"/>
      <point x="1161" y="1460" type="line"/>
      <point x="925" y="1769" type="line"/>
    </contour>
    <contour>
      <point x="740" y="1031" type="line"/>
      <point x="922" y="585" type="line"/>
      <point x="547" y="585" type="line"/>
    </contour>
  </outline>
</glyph>
<glyph name="Atilde" format="2">
  <advance width="1614"/>
  <unicode hex="00C3"/>
  <outline>
    <contour>
      <point x="739" y="1470" type="line"/>
      <point x="213" y="246" type="line"/>
      <point x="168" y="143"/>
      <point x="120" y="75"/>
      <point x="10" y="75" type="curve"/>
      <point x="10" y="0" type="line"/>
      <point x="538" y="0" type="line"/>
      <point x="538" y="75" type="line"/>
      <point x="415" y="75"/>
      <point x="375" y="105"/>
      <point x="375" y="149" type="curve"/>
      <point x="375" y="174"/>
      <point x="384" y="202"/>
      <point x="396" y="231" type="curve"/>
      <point x="497" y="466" type="line"/>
      <point x="980" y="466" type="line"/>
      <point x="1080" y="231" type="line"/>
      <point x="1094" y="199"/>
      <point x="1102" y="170"/>
      <point x="1102" y="146" type="curve"/>
      <point x="1102" y="98"/>
      <point x="1055" y="75"/>
      <point x="949" y="75" type="curve"/>
      <point x="949" y="0" type="line"/>
      <point x="1604" y="0" type="line"/>
      <point x="1604" y="75" type="line"/>
      <point x="1463" y="75"/>
      <point x="1419" y="126"/>
      <point x="1369" y="246" type="curve"/>
      <point x="854" y="1470" type="line"/>
    </contour>
    <contour>
      <point x="549" y="1500" type="line"/>
      <point x="560" y="1558"/>
      <point x="604" y="1605"/>
      <point x="646" y="1605" type="curve"/>
      <point x="679" y="1605"/>
      <point x="706" y="1591"/>
      <point x="761" y="1557" type="curve" smooth="yes"/>
      <point x="823" y="1518"/>
      <point x="872" y="1500"/>
      <point x="952" y="1500" type="curve"/>
      <point x="1134" y="1500"/>
      <point x="1209" y="1627"/>
      <point x="1209" y="1775" type="curve"/>
      <point x="1104" y="1775" type="line"/>
      <point x="1093" y="1718"/>
      <point x="1046" y="1670"/>
      <point x="1004" y="1670" type="curve"/>
      <point x="971" y="1670"/>
      <point x="944" y="1684"/>
      <point x="889" y="1718" type="curve" smooth="yes"/>
      <point x="827" y="1757"/>
      <point x="778" y="1775"/>
      <point x="698" y="1775" type="curve"/>
      <point x="516" y="1775"/>
      <point x="441" y="1653"/>
      <point x="441" y="1500" type="curve"/>
    </contour>
    <contour>
      <point x="740" y="1031" type="line"/>
      <point x="922" y="585" type="line"/>
      <point x="547" y="585" type="line"/>
    </contour>
  </outline>
</glyph>
<glyph name="Ccedilla" format="2">
  <advance width="1414"/>
  <unicode hex="00C7"/>
  <outline>
    <contour>
      <point x="285" y="746" type="curve" smooth="yes"/>
      <point x="285" y="1050"/>
      <point x="457" y="1309"/>
      <point x="727" y="1309" type="curve" smooth="yes"/>
      <point x="945" y="1309"/>
      <point x="1095" y="1211"/>
      <point x="1144" y="1001" type="curve"/>
      <point x="1339" y="1001" type="line"/>
      <point x="1305" y="1279"/>
      <point x="1076" y="1485"/>
      <point x="727" y="1485" type="curve" smooth="yes"/>
      <point x="315" y="1485"/>
      <point x="75" y="1125"/>
      <point x="75" y="746" type="curve" smooth="yes"/>
      <point x="75" y="251"/>
      <point x="330" y="-41"/>
      <point x="727" y="-41" type="curve" smooth="yes"/>
      <point x="734" y="-41"/>
      <point x="741" y="-41"/>
      <point x="748" y="-40" type="curve"/>
      <point x="707" y="-81"/>
      <point x="664" y="-142"/>
      <point x="641" y="-188" type="curve"/>
      <point x="701" y="-191"/>
      <point x="761" y="-225"/>
      <point x="761" y="-281" type="curve" smooth="yes"/>
      <point x="761" y="-326"/>
      <point x="727" y="-353"/>
      <point x="679" y="-353" type="curve" smooth="yes"/>
      <point x="630" y="-353"/>
      <point x="592" y="-330"/>
      <point x="577" y="-315" type="curve"/>
      <point x="532" y="-386" type="line"/>
      <point x="555" y="-413"/>
      <point x="630" y="-443"/>
      <point x="679" y="-443" type="curve" smooth="yes"/>
      <point x="877" y="-443"/>
      <point x="915" y="-338"/>
      <point x="915" y="-255" type="curve" smooth="yes"/>
      <point x="915" y="-188"/>
      <point x="814" y="-131"/>
      <point x="761" y="-128" type="curve"/>
      <point x="776" y="-100"/>
      <point x="815" y="-58"/>
      <point x="854" y="-30" type="curve"/>
      <point x="1136" y="21"/>
      <point x="1302" y="245"/>
      <point x="1339" y="521" type="curve"/>
      <point x="1144" y="521" type="line"/>
      <point x="1121" y="322"/>
      <point x="971" y="139"/>
      <point x="727" y="139" type="curve" smooth="yes"/>
      <point x="502" y="139"/>
      <point x="285" y="330"/>
    </contour>
  </outline>
</glyph>
<glyph name="Eacute" format="2">
  <advance width="1267"/>
  <unicode hex="00C9"/>
  <outline>
    <contour>
      <point x="975" y="1811" type="line"/>
      <point x="709" y="1811" type="line"/>
      <point x="521" y="1511" type="line"/>
      <point x="577" y="1511" type="line"/>
    </contour>
    <contour>
      <point x="146" y="1440" type="line"/>
      <point x="146" y="0" type="line"/>
      <point x="1166" y="0" type="line"/>
      <point x="1166" y="176" type="line"/>
      <point x="341" y="176" type="line"/>
      <point x="341" y="656" type="line"/>
      <point x="1084" y="656" type="line"/>
      <point x="1084" y="832" type="line"/>
      <point x="341" y="832" type="line"/>
      <point x="341" y="1264" type="line"/>
      <point x="1129" y="1264" type="line"/>
      <point x="1129" y="1440" type="line"/>
    </contour>
  </outline>
</glyph>
<glyph name="Ecircumflex" format="2">
  <advance width="1267"/>
  <unicode hex="00CA"/>
  <outline>
    <contour>
      <point x="570" y="1781" type="line"/>
      <point x="360" y="1504" type="line"/>
      <point x="394" y="1504" type="line"/>
      <point x="671" y="1654" type="line"/>
      <point x="949" y="1504" type="line"/>
      <point x="986" y="1504" type="line"/>
      <point x="772" y="1781" type="line"/>
    </contour>
    <contour>
      <point x="146" y="1440" type="line"/>
      <point x="146" y="0" type="line"/>
      <point x="1166" y="0" type="line"/>
      <point x="1166" y="176" type="line"/>
      <point x="341" y="176" type="line"/>
      <point x="341" y="656" type="line"/>
      <point x="1084" y="656" type="line"/>
      <point x="1084" y="832" type="line"/>
      <point x="341" y="832" type="line"/>
      <point x="341" y="1264" type="line"/>
      <point x="1129" y="1264" type="line"/>
      <point x="1129" y="1440" type="line"/>
    </contour>
  </outline>
</glyph>
<glyph name="Iacute" format="2">
  <advance width="510"/>
  <unicode hex="00CD"/>
  <outline>
    <contour>
      <point x="510" y="1811" type="line"/>
      <point x="244" y="1811" type="line"/>
      <point x="56" y="1511" type="line"/>
      <point x="112" y="1511" type="line"/>
    </contour>
    <contour>
      <point x="157" y="1440" type="line"/>
      <point x="157" y="0" type="line"/>
      <point x="352" y="0" type="line"/>
      <point x="352" y="1440" type="line"/>
    </contour>
  </outline>
</glyph>
<glyph name="Icircumflex" format="2">
  <advance width="768"/>
  <unicode hex="00CE"/>
  <outline>
    <contour>
      <point x="237" y="242" type="line"/>
      <point x="237" y="108"/>
      <point x="186" y="75"/>
      <point x="40" y="75" type="curve"/>
      <point x="40" y="0" type="line"/>
      <point x="728" y="0" type="line"/>
      <point x="728" y="75" type="line"/>
      <point x="586" y="75"/>
      <point x="532" y="108"/>
      <point x="532" y="242" type="curve"/>
      <point x="532" y="1196" type="line"/>
      <point x="532" y="1329"/>
      <point x="586" y="1362"/>
      <point x="728" y="1362" type="curve"/>
      <point x="728" y="1437" type="line"/>
      <point x="40" y="1437" type="line"/>
      <point x="40" y="1362" type="line"/>
      <point x="186" y="1362"/>
      <point x="237" y="1329"/>
      <point x="237" y="1196" type="curve"/>
    </contour>
    <contour>
      <point x="258" y="1769" type="line"/>
      <point x="24" y="1460" type="line"/>
      <point x="129" y="1460" type="line"/>
      <point x="383" y="1597" type="line"/>
      <point x="636" y="1460" type="line"/>
      <point x="744" y="1460" type="line"/>
      <point x="506" y="1769" type="line"/>
    </contour>
  </outline>
</glyph>
<glyph name="Idieresis" format="2">
  <advance width="510"/>
  <unicode hex="00CF"/>
  <outline>
    <contour>
      <point x="0" y="1714" type="curve" smooth="yes"/>
      <point x="0" y="1657"/>
      <point x="49" y="1609"/>
      <point x="105" y="1609" type="curve" smooth="yes"/>
      <point x="161" y="1609"/>
      <point x="210" y="1657"/>
      <point x="210" y="1714" type="curve" smooth="yes"/>
      <point x="210" y="1770"/>
      <point x="161" y="1819"/>
      <point x="105" y="1819" type="curve" smooth="yes"/>
      <point x="49" y="1819"/>
      <point x="0" y="1770"/>
    </contour>
    <contour>
      <point x="300" y="1714" type="curve" smooth="yes"/>
      <point x="300" y="1657"/>
      <point x="349" y="1609"/>
      <point x="405" y="1609" type="curve" smooth="yes"/>
      <point x="461" y="1609"/>
      <point x="510" y="1657"/>
      <point x="510" y="1714" type="curve" smooth="yes"/>
      <point x="510" y="1770"/>
      <point x="461" y="1819"/>
      <point x="405" y="1819" type="curve" smooth="yes"/>
      <point x="349" y="1819"/>
      <point x="300" y="1770"/>
    </contour>
    <contour>
      <point x="157" y="1440" type="line"/>
      <point x="157" y="0" type="line"/>
      <point x="352" y="0" type="line"/>
      <point x="352" y="1440" type="line"/>
    </contour>
  </outline>
</glyph>
<glyph name="Ograve" format="2">
  <advance width="1507"/>
  <unicode hex="00D2"/>
  <outline>
    <contour>
      <point x="472" y="1811" type="line"/>
      <point x="866" y="1511" type="line"/>
      <point x="926" y="1511" type="line"/>
      <point x="739" y="1811" type="line"/>
    </contour>
    <contour>
      <point x="754" y="-41" type="curve" smooth="yes"/>
      <point x="1166" y="-41"/>
      <point x="1425" y="285"/>
      <point x="1425" y="731" type="curve" smooth="yes"/>
      <point x="1425" y="1177"/>
      <point x="1166" y="1485"/>
      <point x="754" y="1485" type="curve" smooth="yes"/>
      <point x="345" y="1485"/>
      <point x="82" y="1177"/>
      <point x="82" y="731" type="curve" smooth="yes"/>
      <point x="82" y="285"/>
      <point x="341" y="-41"/>
    </contour>
    <contour>
      <point x="754" y="139" type="curve" smooth="yes"/>
      <point x="461" y="139"/>
      <point x="292" y="334"/>
      <point x="292" y="731" type="curve" smooth="yes"/>
      <point x="292" y="1129"/>
      <point x="465" y="1309"/>
      <point x="754" y="1309" type="curve" smooth="yes"/>
      <point x="1046" y="1309"/>
      <point x="1215" y="1129"/>
      <point x="1215" y="731" type="curve" smooth="yes"/>
      <point x="1215" y="334"/>
      <point x="1050" y="139"/>
    </contour>
  </outline>
</glyph>
<glyph name="Oacute" format="2">
  <advance width="1622"/>
  <unicode hex="00D3"/>
  <outline>
    <contour>
      <point x="791" y="1590" type="line"/>
      <point x="1212" y="1920" type="line"/>
      <point x="855" y="1920" type="line"/>
      <point x="649" y="1590" type="line"/>
    </contour>
    <contour>
      <point x="813" y="-32" type="curve" smooth="yes"/>
      <point x="1229" y="-32"/>
      <point x="1552" y="307"/>
      <point x="1552" y="726" type="curve"/>
      <point x="1552" y="1137"/>
      <point x="1229" y="1470"/>
      <point x="813" y="1470" type="curve"/>
      <point x="394" y="1470"/>
      <point x="70" y="1137"/>
      <point x="70" y="726" type="curve"/>
      <point x="70" y="307"/>
      <point x="394" y="-32"/>
    </contour>
    <contour>
      <point x="813" y="75" type="curve" smooth="yes"/>
      <point x="541" y="75"/>
      <point x="402" y="351"/>
      <point x="402" y="726" type="curve"/>
      <point x="402" y="1100"/>
      <point x="541" y="1362"/>
      <point x="813" y="1362" type="curve"/>
      <point x="1075" y="1362"/>
      <point x="1221" y="1100"/>
      <point x="1221" y="726" type="curve"/>
      <point x="1221" y="351"/>
      <point x="1075" y="75"/>
    </contour>
  </outline>
</glyph>
<glyph name="Ocircumflex" format="2">
  <advance width="1622"/>
  <unicode hex="00D4"/>
  <outline>
    <contour>
      <point x="813" y="-32" type="curve" smooth="yes"/>
      <point x="1229" y="-32"/>
      <point x="1552" y="307"/>
      <point x="1552" y="726" type="curve"/>
      <point x="1552" y="1137"/>
      <point x="1229" y="1470"/>
      <point x="813" y="1470" type="curve"/>
      <point x="394" y="1470"/>
      <point x="70" y="1137"/>
      <point x="70" y="726" type="curve"/>
      <point x="70" y="307"/>
      <point x="394" y="-32"/>
    </contour>
    <contour>
      <point x="813" y="75" type="curve" smooth="yes"/>
      <point x="541" y="75"/>
      <point x="402" y="351"/>
      <point x="402" y="726" type="curve"/>
      <point x="402" y="1100"/>
      <point x="541" y="1362"/>
      <point x="813" y="1362" type="curve"/>
      <point x="1075" y="1362"/>
      <point x="1221" y="1100"/>
      <point x="1221" y="726" type="curve"/>
      <point x="1221" y="351"/>
      <point x="1075" y="75"/>
    </contour>
    <contour>
      <point x="688" y="1769" type="line"/>
      <point x="455" y="1480" type="line"/>
      <point x="560" y="1480" type="line"/>
      <point x="813" y="1597" type="line"/>
      <point x="1067" y="1480" type="line"/>
      <point x="1174" y="1480" type="line"/>
      <point x="936" y="1769" type="line"/>
    </contour>
  </outline>
</glyph>
<glyph name="multiply" format="2">
  <advance width="1076"/>
  <unicode hex="00D7"/>
  <outline>
    <contour>
      <point x="776" y="371" type="line"/>
      <point x="870" y="465" type="line"/>
      <point x="660" y="679" type="line"/>
      <point x="870" y="889" type="line"/>
      <point x="776" y="979" type="line"/>
      <point x="566" y="769" type="line"/>
      <point x="356" y="979" type="line"/>
      <point x="262" y="889" type="line"/>
      <point x="472" y="675" type="line"/>
      <point x="262" y="461" type="line"/>
      <point x="356" y="371" type="line"/>
      <point x="566" y="581" type="line"/>
    </contour>
  </outline>
</glyph>
<glyph name="Oslash" format="2">
  <advance width="1622"/>
  <unicode hex="00D8"/>
  <outline>
    <contour>
      <point x="208" y="-3" type="line"/>
      <point x="341" y="138" type="line"/>
      <point x="468" y="31"/>
      <point x="632" y="-32"/>
      <point x="813" y="-32" type="curve"/>
      <point x="1229" y="-32"/>
      <point x="1552" y="307"/>
      <point x="1552" y="726" type="curve"/>
      <point x="1552" y="919"/>
      <point x="1480" y="1094"/>
      <point x="1361" y="1227" type="curve"/>
      <point x="1489" y="1363" type="line"/>
      <point x="1396" y="1462" type="line"/>
      <point x="1262" y="1319" type="line"/>
      <point x="1138" y="1414"/>
      <point x="984" y="1470"/>
      <point x="813" y="1470" type="curve"/>
      <point x="394" y="1470"/>
      <point x="70" y="1137"/>
      <point x="70" y="726" type="curve"/>
      <point x="70" y="538"/>
      <point x="135" y="366"/>
      <point x="244" y="233" type="curve"/>
      <point x="116" y="96" type="line"/>
    </contour>
    <contour>
      <point x="813" y="75" type="curve" smooth="yes"/>
      <point x="664" y="75"/>
      <point x="555" y="158"/>
      <point x="487" y="294" type="curve"/>
      <point x="1180" y="1034" type="line"/>
      <point x="1207" y="945"/>
      <point x="1221" y="841"/>
      <point x="1221" y="726" type="curve"/>
      <point x="1221" y="351"/>
      <point x="1075" y="75"/>
    </contour>
    <contour>
      <point x="402" y="726" type="curve" smooth="yes"/>
      <point x="402" y="1100"/>
      <point x="541" y="1362"/>
      <point x="813" y="1362" type="curve"/>
      <point x="949" y="1362"/>
      <point x="1054" y="1291"/>
      <point x="1123" y="1171" type="curve"/>
      <point x="435" y="437" type="line"/>
      <point x="413" y="522"/>
      <point x="402" y="620"/>
    </contour>
  </outline>
</glyph>
<glyph name="Ugrave" format="2">
  <advance width="1653"/>
  <unicode hex="00D9"/>
  <outline>
    <contour>
      <point x="237" y="515" type="line"/>
      <point x="237" y="213"/>
      <point x="440" y="-32"/>
      <point x="816" y="-32" type="curve"/>
      <point x="1241" y="-32"/>
      <point x="1413" y="213"/>
      <point x="1413" y="511" type="curve"/>
      <point x="1413" y="1196" type="line"/>
      <point x="1413" y="1329"/>
      <point x="1467" y="1362"/>
      <point x="1613" y="1362" type="curve"/>
      <point x="1613" y="1437" type="line"/>
      <point x="1042" y="1437" type="line"/>
      <point x="1042" y="1362" type="line"/>
      <point x="1187" y="1362"/>
      <point x="1239" y="1329"/>
      <point x="1239" y="1196" type="curve"/>
      <point x="1239" y="511" type="line"/>
      <point x="1239" y="281"/>
      <point x="1104" y="97"/>
      <point x="885" y="97" type="curve"/>
      <point x="669" y="97"/>
      <point x="531" y="281"/>
      <point x="531" y="511" type="curve"/>
      <point x="531" y="1196" type="line"/>
      <point x="531" y="1329"/>
      <point x="583" y="1362"/>
      <point x="729" y="1362" type="curve"/>
      <point x="729" y="1437" type="line"/>
      <point x="40" y="1437" type="line"/>
      <point x="40" y="1362" type="line"/>
      <point x="182" y="1362"/>
      <point x="237" y="1329"/>
      <point x="237" y="1196" type="curve"/>
    </contour>
    <contour>
      <point x="469" y="1920" type="line"/>
      <point x="902" y="1590" type="line"/>
      <point x="1032" y="1590" type="line"/>
      <point x="826" y="1920" type="line"/>
    </contour>
  </outline>
</glyph>
<glyph name="Uacute" format="2">
  <advance width="1369"/>
  <unicode hex="00DA"/>
  <outline>
    <contour>
      <point x="937" y="1811" type="line"/>
      <point x="671" y="1811" type="line"/>
      <point x="484" y="1511" type="line"/>
      <point x="540" y="1511" type="line"/>
    </contour>
    <contour>
      <point x="139" y="1440" type="line"/>
      <point x="139" y="480" type="line" smooth="yes"/>
      <point x="139" y="139"/>
      <point x="420" y="-41"/>
      <point x="675" y="-41" type="curve" smooth="yes"/>
      <point x="941" y="-41"/>
      <point x="1230" y="139"/>
      <point x="1230" y="480" type="curve" smooth="yes"/>
      <point x="1230" y="1440" type="line"/>
      <point x="1035" y="1440" type="line"/>
      <point x="1035" y="450" type="line" smooth="yes"/>
      <point x="1035" y="244"/>
      <point x="847" y="139"/>
      <point x="675" y="139" type="curve" smooth="yes"/>
      <point x="514" y="139"/>
      <point x="334" y="240"/>
      <point x="334" y="450" type="curve" smooth="yes"/>
      <point x="334" y="1440" type="line"/>
    </contour>
  </outline>
</glyph>
<glyph name="Ucircumflex" format="2">
  <advance width="1653"/>
  <unicode hex="00DB"/>
  <outline>
    <contour>
      <point x="237" y="515" type="line"/>
      <point x="237" y="213"/>
      <point x="440" y="-32"/>
      <point x="816" y="-32" type="curve"/>
      <point x="1241" y="-32"/>
      <point x="1413" y="213"/>
      <point x="1413" y="511" type="curve"/>
      <point x="1413" y="1196" type="line"/>
      <point x="1413" y="1329"/>
      <point x="1467" y="1362"/>
      <point x="1613" y="1362" type="curve"/>
      <point x="1613" y="1437" type="line"/>
      <point x="1042" y="1437" type="line"/>
      <point x="1042" y="1362" type="line"/>
      <point x="1187" y="1362"/>
      <point x="1239" y="1329"/>
      <point x="1239" y="1196" type="curve"/>
      <point x="1239" y="511" type="line"/>
      <point x="1239" y="281"/>
      <point x="1104" y="97"/>
      <point x="885" y="97" type="curve"/>
      <point x="669" y="97"/>
      <point x="531" y="281"/>
      <point x="531" y="511" type="curve"/>
      <point x="531" y="1196" type="line"/>
      <point x="531" y="1329"/>
      <point x="583" y="1362"/>
      <point x="729" y="1362" type="curve"/>
      <point x="729" y="1437" type="line"/>
      <point x="40" y="1437" type="line"/>
      <point x="40" y="1362" type="line"/>
      <point x="182" y="1362"/>
      <point x="237" y="1329"/>
      <point x="237" y="1196" type="curve"/>
    </contour>
    <contour>
      <point x="753" y="1769" type="line"/>
      <point x="521" y="1460" type="line"/>
      <point x="624" y="1460" type="line"/>
      <point x="878" y="1597" type="line"/>
      <point x="1132" y="1460" type="line"/>
      <point x="1240" y="1460" type="line"/>
      <point x="1002" y="1769" type="line"/>
    </contour>
  </outline>
</glyph>
<glyph name="Udieresis" format="2">
  <advance width="1369"/>
  <unicode hex="00DC"/>
  <outline>
    <contour>
      <point x="364" y="1714" type="curve" smooth="yes"/>
      <point x="364" y="1657"/>
      <point x="412" y="1609"/>
      <point x="469" y="1609" type="curve" smooth="yes"/>
      <point x="525" y="1609"/>
      <point x="574" y="1657"/>
      <point x="574" y="1714" type="curve" smooth="yes"/>
      <point x="574" y="1770"/>
      <point x="525" y="1819"/>
      <point x="469" y="1819" type="curve" smooth="yes"/>
      <point x="412" y="1819"/>
      <point x="364" y="1770"/>
    </contour>
    <contour>
      <point x="776" y="1714" type="curve" smooth="yes"/>
      <point x="776" y="1657"/>
      <point x="825" y="1609"/>
      <point x="881" y="1609" type="curve" smooth="yes"/>
      <point x="937" y="1609"/>
      <point x="986" y="1657"/>
      <point x="986" y="1714" type="curve" smooth="yes"/>
      <point x="986" y="1770"/>
      <point x="937" y="1819"/>
      <point x="881" y="1819" type="curve" smooth="yes"/>
      <point x="825" y="1819"/>
      <point x="776" y="1770"/>
    </contour>
    <contour>
      <point x="139" y="1440" type="line"/>
      <point x="139" y="480" type="line" smooth="yes"/>
      <point x="139" y="139"/>
      <point x="420" y="-41"/>
      <point x="675" y="-41" type="curve" smooth="yes"/>
      <point x="941" y="-41"/>
      <point x="1230" y="139"/>
      <point x="1230" y="480" type="curve" smooth="yes"/>
      <point x="1230" y="1440" type="line"/>
      <point x="1035" y="1440" type="line"/>
      <point x="1035" y="450" type="line" smooth="yes"/>
      <point x="1035" y="244"/>
      <point x="847" y="139"/>
      <point x="675" y="139" type="curve" smooth="yes"/>
      <point x="514" y="139"/>
      <point x="334" y="240"/>
      <point x="334" y="450" type="curve" smooth="yes"/>
      <point x="334" y="1440" type="line"/>
    </contour>
  </outline>
</glyph>
<glyph name="Yacute" format="2">
  <advance width="1560"/>
  <unicode hex="00DD"/>
  <outline>
    <contour>
      <point x="1203" y="1797" type="line"/>
      <point x="845" y="1797" type="line"/>
      <point x="639" y="1467" type="line"/>
      <point x="766" y="1467" type="line"/>
    </contour>
    <contour>
      <point x="10" y="1437" type="line"/>
      <point x="10" y="1362" type="line"/>
      <point x="126" y="1362"/>
      <point x="164" y="1305"/>
      <point x="217" y="1225" type="curve"/>
      <point x="633" y="601" type="line"/>
      <point x="633" y="242" type="line"/>
      <point x="633" y="108"/>
      <point x="578" y="75"/>
      <point x="435" y="75" type="curve"/>
      <point x="435" y="0" type="line"/>
      <point x="1123" y="0" type="line"/>
      <point x="1123" y="75" type="line"/>
      <point x="978" y="75"/>
      <point x="926" y="108"/>
      <point x="926" y="242" type="curve"/>
      <point x="926" y="623" type="line"/>
      <point x="1285" y="1196" type="line" smooth="yes"/>
      <point x="1359" y="1314"/>
      <point x="1419" y="1362"/>
      <point x="1550" y="1362" type="curve"/>
      <point x="1550" y="1437" type="line"/>
      <point x="981" y="1437" type="line"/>
      <point x="981" y="1362" type="line"/>
      <point x="1080" y="1362"/>
      <point x="1127" y="1332"/>
      <point x="1127" y="1279" type="curve"/>
      <point x="1127" y="1262"/>
      <point x="1121" y="1239"/>
      <point x="1109" y="1215" type="curve"/>
      <point x="832" y="766" type="line"/>
      <point x="562" y="1200" type="line"/>
      <point x="538" y="1233"/>
      <point x="530" y="1259"/>
      <point x="530" y="1283" type="curve"/>
      <point x="530" y="1333"/>
      <point x="581" y="1362"/>
      <point x="697" y="1362" type="curve"/>
      <point x="697" y="1437" type="line"/>
    </contour>
  </outline>
</glyph>
<glyph name="Thorn" format="2">
  <advance width="1245"/>
  <unicode hex="00DE"/>
  <outline>
    <contour>
      <point x="150" y="0" type="line"/>
      <point x="345" y="0" type="line"/>
      <point x="345" y="292" type="line"/>
      <point x="739" y="292" type="line" smooth="yes"/>
      <point x="997" y="292"/>
      <point x="1170" y="499"/>
      <point x="1170" y="716" type="curve" smooth="yes"/>
      <point x="1170" y="915"/>
      <point x="997" y="1140"/>
      <point x="739" y="1140" type="curve" smooth="yes"/>
      <point x="345" y="1140" type="line"/>
      <point x="345" y="1440" type="line"/>
      <point x="150" y="1440" type="line"/>
    </contour>
    <contour>
      <point x="345" y="964" type="line"/>
      <point x="720" y="964" type="line" smooth="yes"/>
      <point x="847" y="964"/>
      <point x="956" y="851"/>
      <point x="956" y="716" type="curve" smooth="yes"/>
      <point x="956" y="574"/>
      <point x="836" y="469"/>
      <point x="720" y="469" type="curve" smooth="yes"/>
      <point x="345" y="469" type="line"/>
    </contour>
  </outline>
</glyph>
<glyph name="aacute" format="2">
  <advance width="1095"/>
  <unicode hex="00E1"/>
  <anchor x="520" y="0" name="PB"/>
  <anchor x="530" y="200" name="def"/>
  <outline>
    <contour>
      <point x="776" y="1474" type="line"/>
      <point x="510" y="1474" type="line"/>
      <point x="397" y="1136" type="line"/>
      <point x="454" y="1136" type="line"/>
    </contour>
    <contour>
      <point x="754" y="322" type="line"/>
      <point x="701" y="184"/>
      <point x="585" y="131"/>
      <point x="454" y="131" type="curve" smooth="yes"/>
      <point x="356" y="131"/>
      <point x="259" y="176"/>
      <point x="259" y="285" type="curve" smooth="yes"/>
      <point x="259" y="491"/>
      <point x="592" y="499"/>
      <point x="754" y="570" type="curve"/>
    </contour>
    <contour>
      <point x="292" y="746" type="line"/>
      <point x="292" y="870"/>
      <point x="394" y="904"/>
      <point x="517" y="904" type="curve" smooth="yes"/>
      <point x="671" y="904"/>
      <point x="754" y="855"/>
      <point x="754" y="746" type="curve" smooth="yes"/>
      <point x="754" y="600"/>
      <point x="75" y="690"/>
      <point x="75" y="281" type="curve" smooth="yes"/>
      <point x="75" y="97"/>
      <point x="202" y="-19"/>
      <point x="382" y="-19" type="curve" smooth="yes"/>
      <point x="544" y="-19"/>
      <point x="667" y="37"/>
      <point x="769" y="157" type="curve"/>
      <point x="769" y="37"/>
      <point x="836" y="-19"/>
      <point x="934" y="-19" type="curve" smooth="yes"/>
      <point x="990" y="-19"/>
      <point x="1020" y="-9"/>
      <point x="1057" y="4" type="curve"/>
      <point x="1057" y="154" type="line"/>
      <point x="1035" y="141"/>
      <point x="1016" y="131"/>
      <point x="997" y="131" type="curve" smooth="yes"/>
      <point x="960" y="131"/>
      <point x="934" y="172"/>
      <point x="934" y="210" type="curve" smooth="yes"/>
      <point x="934" y="746" type="line" smooth="yes"/>
      <point x="934" y="967"/>
      <point x="724" y="1057"/>
      <point x="521" y="1057" type="curve" smooth="yes"/>
      <point x="326" y="1057"/>
      <point x="116" y="956"/>
      <point x="116" y="746" type="curve"/>
    </contour>
  </outline>
</glyph>
<glyph name="adieresis" format="2">
  <advance width="1028"/>
  <unicode hex="00E4"/>
  <anchor x="520" y="0" name="PB"/>
  <anchor x="550" y="200" name="def"/>
  <outline>
    <contour>
      <point x="835" y="734" type="line"/>
      <point x="835" y="897"/>
      <point x="743" y="1004"/>
      <point x="492" y="1004" type="curve"/>
      <point x="282" y="1004"/>
      <point x="103" y="900"/>
      <point x="103" y="762" type="curve"/>
      <point x="103" y="690"/>
      <point x="157" y="633"/>
      <point x="235" y="633" type="curve"/>
      <point x="337" y="633"/>
      <point x="358" y="700"/>
      <point x="358" y="776" type="curve"/>
      <point x="358" y="840"/>
      <point x="377" y="903"/>
      <point x="459" y="903" type="curve"/>
      <point x="537" y="903"/>
      <point x="584" y="850"/>
      <point x="584" y="689" type="curve"/>
      <point x="584" y="640" type="line"/>
      <point x="335" y="557"/>
      <point x="70" y="470"/>
      <point x="70" y="234" type="curve"/>
      <point x="70" y="92"/>
      <point x="170" y="-22"/>
      <point x="329" y="-22" type="curve"/>
      <point x="462" y="-22"/>
      <point x="531" y="28"/>
      <point x="595" y="85" type="curve"/>
      <point x="613" y="28"/>
      <point x="656" y="-22"/>
      <point x="726" y="-22" type="curve"/>
      <point x="853" y="-22"/>
      <point x="939" y="53"/>
      <point x="988" y="138" type="curve"/>
      <point x="988" y="329" type="line"/>
      <point x="924" y="233"/>
      <point x="864" y="144"/>
      <point x="842" y="144" type="curve"/>
      <point x="837" y="144"/>
      <point x="835" y="168"/>
      <point x="835" y="197" type="curve"/>
    </contour>
    <contour>
      <point x="419" y="134" type="curve" smooth="yes"/>
      <point x="370" y="134"/>
      <point x="321" y="201"/>
      <point x="321" y="285" type="curve"/>
      <point x="321" y="397"/>
      <point x="459" y="481"/>
      <point x="584" y="531" type="curve"/>
      <point x="584" y="218" type="line"/>
      <point x="526" y="172"/>
      <point x="474" y="134"/>
    </contour>
    <contour>
      <point x="130" y="1340" type="curve" smooth="yes"/>
      <point x="130" y="1263"/>
      <point x="193" y="1200"/>
      <point x="270" y="1200" type="curve" smooth="yes"/>
      <point x="347" y="1200"/>
      <point x="410" y="1263"/>
      <point x="410" y="1340" type="curve" smooth="yes"/>
      <point x="410" y="1417"/>
      <point x="347" y="1480"/>
      <point x="270" y="1480" type="curve" smooth="yes"/>
      <point x="193" y="1480"/>
      <point x="130" y="1417"/>
    </contour>
    <contour>
      <point x="551" y="1340" type="curve" smooth="yes"/>
      <point x="551" y="1263"/>
      <point x="614" y="1200"/>
      <point x="691" y="1200" type="curve" smooth="yes"/>
      <point x="768" y="1200"/>
      <point x="831" y="1263"/>
      <point x="831" y="1340" type="curve" smooth="yes"/>
      <point x="831" y="1417"/>
      <point x="768" y="1480"/>
      <point x="691" y="1480" type="curve" smooth="yes"/>
      <point x="614" y="1480"/>
      <point x="551" y="1417"/>
    </contour>
  </outline>
</glyph>
<glyph name="ae" format="2">
  <advance width="1695"/>
  <unicode hex="00E6"/>
  <outline>
    <contour>
      <point x="1620" y="517" type="line"/>
      <point x="1620" y="589" type="line" smooth="yes"/>
      <point x="1620" y="881"/>
      <point x="1440" y="1057"/>
      <point x="1192" y="1057" type="curve" smooth="yes"/>
      <point x="1061" y="1057"/>
      <point x="949" y="1009"/>
      <point x="870" y="926" type="curve"/>
      <point x="791" y="1016"/>
      <point x="652" y="1057"/>
      <point x="521" y="1057" type="curve" smooth="yes"/>
      <point x="326" y="1057"/>
      <point x="116" y="956"/>
      <point x="116" y="746" type="curve"/>
      <point x="292" y="746" type="line"/>
      <point x="292" y="870"/>
      <point x="394" y="904"/>
      <point x="517" y="904" type="curve" smooth="yes"/>
      <point x="671" y="904"/>
      <point x="754" y="855"/>
      <point x="754" y="746" type="curve" smooth="yes"/>
      <point x="754" y="600"/>
      <point x="75" y="690"/>
      <point x="75" y="281" type="curve" smooth="yes"/>
      <point x="75" y="97"/>
      <point x="202" y="-19"/>
      <point x="382" y="-19" type="curve" smooth="yes"/>
      <point x="562" y="-19"/>
      <point x="701" y="56"/>
      <point x="802" y="202" type="curve"/>
      <point x="885" y="67"/>
      <point x="1020" y="-19"/>
      <point x="1192" y="-19" type="curve" smooth="yes"/>
      <point x="1372" y="-19"/>
      <point x="1564" y="109"/>
      <point x="1597" y="337" type="curve"/>
      <point x="1440" y="337" type="line"/>
      <point x="1395" y="202"/>
      <point x="1301" y="131"/>
      <point x="1192" y="131" type="curve" smooth="yes"/>
      <point x="1024" y="131"/>
      <point x="934" y="304"/>
      <point x="934" y="517" type="curve"/>
    </contour>
    <contour>
      <point x="454" y="131" type="curve" smooth="yes"/>
      <point x="356" y="131"/>
      <point x="259" y="176"/>
      <point x="259" y="285" type="curve" smooth="yes"/>
      <point x="259" y="476"/>
      <point x="581" y="495"/>
      <point x="754" y="555" type="curve"/>
      <point x="754" y="315" type="line"/>
      <point x="701" y="180"/>
      <point x="581" y="131"/>
    </contour>
    <contour>
      <point x="934" y="656" type="line"/>
      <point x="934" y="765"/>
      <point x="1016" y="904"/>
      <point x="1185" y="904" type="curve" smooth="yes"/>
      <point x="1327" y="904"/>
      <point x="1440" y="780"/>
      <point x="1440" y="656" type="curve"/>
    </contour>
  </outline>
</glyph>
<glyph name="ccedilla" format="2">
  <advance width="1042"/>
  <unicode hex="00E7"/>
  <outline>
    <contour>
      <point x="967" y="705" type="line"/>
      <point x="934" y="904"/>
      <point x="784" y="1057"/>
      <point x="521" y="1057" type="curve" smooth="yes"/>
      <point x="255" y="1057"/>
      <point x="75" y="829"/>
      <point x="75" y="536" type="curve" smooth="yes"/>
      <point x="75" y="270"/>
      <point x="217" y="-18"/>
      <point x="520" y="-19" type="curve"/>
      <point x="474" y="-56"/>
      <point x="417" y="-133"/>
      <point x="390" y="-188" type="curve"/>
      <point x="450" y="-191"/>
      <point x="510" y="-225"/>
      <point x="510" y="-281" type="curve" smooth="yes"/>
      <point x="510" y="-326"/>
      <point x="476" y="-353"/>
      <point x="427" y="-353" type="curve" smooth="yes"/>
      <point x="379" y="-353"/>
      <point x="341" y="-330"/>
      <point x="326" y="-315" type="curve"/>
      <point x="281" y="-386" type="line"/>
      <point x="304" y="-413"/>
      <point x="379" y="-443"/>
      <point x="427" y="-443" type="curve" smooth="yes"/>
      <point x="626" y="-443"/>
      <point x="664" y="-338"/>
      <point x="664" y="-255" type="curve" smooth="yes"/>
      <point x="664" y="-188"/>
      <point x="562" y="-131"/>
      <point x="510" y="-128" type="curve"/>
      <point x="529" y="-91"/>
      <point x="590" y="-31"/>
      <point x="640" y="-7" type="curve"/>
      <point x="832" y="32"/>
      <point x="948" y="173"/>
      <point x="967" y="380" type="curve"/>
      <point x="784" y="380" type="line"/>
      <point x="761" y="230"/>
      <point x="682" y="131"/>
      <point x="521" y="131" type="curve" smooth="yes"/>
      <point x="330" y="131"/>
      <point x="259" y="334"/>
      <point x="259" y="536" type="curve" smooth="yes"/>
      <point x="259" y="731"/>
      <point x="337" y="904"/>
      <point x="525" y="904" type="curve" smooth="yes"/>
      <point x="675" y="904"/>
      <point x="757" y="851"/>
      <point x="784" y="705" type="curve"/>
    </contour>
  </outline>
</glyph>
<glyph name="eacute" format="2">
  <advance width="1055"/>
  <unicode hex="00E9"/>
  <anchor x="520" y="0" name="PB"/>
  <anchor x="560" y="200" name="def"/>
  <outline>
    <contour>
      <point x="532" y="-22" type="curve" smooth="yes"/>
      <point x="728" y="-22"/>
      <point x="929" y="153"/>
      <point x="985" y="365" type="curve"/>
      <point x="867" y="384" type="line"/>
      <point x="837" y="261"/>
      <point x="706" y="162"/>
      <point x="581" y="162" type="curve"/>
      <point x="428" y="162"/>
      <point x="319" y="347"/>
      <point x="313" y="583" type="curve"/>
      <point x="954" y="583" type="line"/>
      <point x="954" y="815"/>
      <point x="782" y="1004"/>
      <point x="532" y="1004" type="curve"/>
      <point x="253" y="1004"/>
      <point x="70" y="773"/>
      <point x="70" y="456" type="curve"/>
      <point x="70" y="195"/>
      <point x="277" y="-22"/>
    </contour>
    <contour>
      <point x="893" y="1470" type="line"/>
      <point x="543" y="1470" type="line"/>
      <point x="421" y="1066" type="line"/>
      <point x="547" y="1066" type="line"/>
    </contour>
    <contour>
      <point x="482" y="896" type="curve" smooth="yes"/>
      <point x="578" y="896"/>
      <point x="656" y="795"/>
      <point x="664" y="672" type="curve"/>
      <point x="315" y="672" type="line"/>
      <point x="332" y="795"/>
      <point x="402" y="896"/>
    </contour>
  </outline>
</glyph>
<glyph name="ecircumflex" format="2">
  <advance width="1091"/>
  <unicode hex="00EA"/>
  <outline>
    <contour>
      <point x="450" y="1474" type="line"/>
      <point x="240" y="1121" type="line"/>
      <point x="274" y="1121" type="line"/>
      <point x="551" y="1346" type="line"/>
      <point x="829" y="1121" type="line"/>
      <point x="866" y="1121" type="line"/>
      <point x="652" y="1474" type="line"/>
    </contour>
    <contour>
      <point x="1016" y="480" type="line"/>
      <point x="1016" y="551" type="line" smooth="yes"/>
      <point x="1016" y="844"/>
      <point x="836" y="1057"/>
      <point x="551" y="1057" type="curve" smooth="yes"/>
      <point x="259" y="1057"/>
      <point x="75" y="810"/>
      <point x="75" y="536" type="curve" smooth="yes"/>
      <point x="75" y="236"/>
      <point x="259" y="-19"/>
      <point x="551" y="-19" type="curve" smooth="yes"/>
      <point x="769" y="-19"/>
      <point x="960" y="109"/>
      <point x="994" y="337" type="curve"/>
      <point x="836" y="337" type="line"/>
      <point x="791" y="202"/>
      <point x="697" y="131"/>
      <point x="551" y="131" type="curve" smooth="yes"/>
      <point x="382" y="131"/>
      <point x="259" y="304"/>
      <point x="259" y="480" type="curve"/>
    </contour>
    <contour>
      <point x="259" y="619" type="line"/>
      <point x="259" y="765"/>
      <point x="375" y="904"/>
      <point x="544" y="904" type="curve" smooth="yes"/>
      <point x="724" y="904"/>
      <point x="836" y="780"/>
      <point x="836" y="619" type="curve"/>
    </contour>
  </outline>
</glyph>
<glyph name="igrave" format="2">
  <advance width="431"/>
  <unicode hex="00EC"/>
  <anchor x="520" y="0" name="PB"/>
  <anchor x="440" y="200" name="def"/>
  <outline>
    <contour>
      <point x="0" y="1474" type="line"/>
      <point x="319" y="1136" type="line"/>
      <point x="379" y="1136" type="line"/>
      <point x="266" y="1474" type="line"/>
    </contour>
    <contour>
      <point x="127" y="1039" type="line"/>
      <point x="127" y="0" type="line"/>
      <point x="304" y="0" type="line"/>
      <point x="304" y="1039" type="line"/>
    </contour>
  </outline>
</glyph>
<glyph name="iacute" format="2">
  <advance width="627"/>
  <unicode hex="00ED"/>
  <anchor x="520" y="0" name="PB"/>
  <anchor x="440" y="200" name="def"/>
  <outline>
    <contour>
      <point x="669" y="1470" type="line"/>
      <point x="319" y="1470" type="line"/>
      <point x="198" y="1066" type="line"/>
      <point x="323" y="1066" type="line"/>
    </contour>
    <contour>
      <point x="186" y="238" type="line"/>
      <point x="186" y="121"/>
      <point x="165" y="75"/>
      <point x="40" y="75" type="curve"/>
      <point x="40" y="0" type="line"/>
      <point x="587" y="0" type="line"/>
      <point x="587" y="75" type="line"/>
      <point x="463" y="75"/>
      <point x="437" y="121"/>
      <point x="437" y="238" type="curve"/>
      <point x="437" y="1004" type="line"/>
      <point x="334" y="1004" type="line"/>
      <point x="24" y="863" type="line"/>
      <point x="52" y="790" type="line"/>
      <point x="108" y="807"/>
      <point x="153" y="819"/>
      <point x="165" y="819" type="curve"/>
      <point x="186" y="819"/>
      <point x="186" y="778"/>
      <point x="186" y="683" type="curve"/>
    </contour>
  </outline>
</glyph>
<glyph name="idieresis" format="2">
  <advance width="431"/>
  <unicode hex="00EF"/>
  <anchor x="520" y="0" name="PB"/>
  <anchor x="440" y="200" name="def"/>
  <outline>
    <contour>
      <point x="-38" y="1376" type="curve" smooth="yes"/>
      <point x="-38" y="1320"/>
      <point x="11" y="1271"/>
      <point x="67" y="1271" type="curve" smooth="yes"/>
      <point x="124" y="1271"/>
      <point x="172" y="1320"/>
      <point x="172" y="1376" type="curve" smooth="yes"/>
      <point x="172" y="1432"/>
      <point x="124" y="1481"/>
      <point x="67" y="1481" type="curve" smooth="yes"/>
      <point x="11" y="1481"/>
      <point x="-38" y="1432"/>
    </contour>
    <contour>
      <point x="259" y="1376" type="curve" smooth="yes"/>
      <point x="259" y="1320"/>
      <point x="307" y="1271"/>
      <point x="364" y="1271" type="curve" smooth="yes"/>
      <point x="420" y="1271"/>
      <point x="469" y="1320"/>
      <point x="469" y="1376" type="curve" smooth="yes"/>
      <point x="469" y="1432"/>
      <point x="420" y="1481"/>
      <point x="364" y="1481" type="curve" smooth="yes"/>
      <point x="307" y="1481"/>
      <point x="259" y="1432"/>
    </contour>
    <contour>
      <point x="127" y="1039" type="line"/>
      <point x="127" y="0" type="line"/>
      <point x="304" y="0" type="line"/>
      <point x="304" y="1039" type="line"/>
    </contour>
  </outline>
</glyph>
<glyph name="eth" format="2">
  <advance width="1102"/>
  <unicode hex="00F0"/>
  <outline>
    <contour>
      <point x="326" y="1102" type="line"/>
      <point x="533" y="1196" type="line"/>
      <point x="571" y="1150"/>
      <point x="609" y="1101"/>
      <point x="645" y="1050" type="curve"/>
      <point x="619" y="1054"/>
      <point x="585" y="1057"/>
      <point x="555" y="1057" type="curve" smooth="yes"/>
      <point x="244" y="1057"/>
      <point x="67" y="810"/>
      <point x="67" y="517" type="curve" smooth="yes"/>
      <point x="67" y="217"/>
      <point x="244" y="-19"/>
      <point x="551" y="-19" type="curve" smooth="yes"/>
      <point x="855" y="-19"/>
      <point x="1035" y="217"/>
      <point x="1035" y="517" type="curve" smooth="yes"/>
      <point x="1035" y="807"/>
      <point x="850" y="1088"/>
      <point x="693" y="1269" type="curve"/>
      <point x="881" y="1354" type="line"/>
      <point x="847" y="1421" type="line"/>
      <point x="640" y="1327" type="line"/>
      <point x="592" y="1378"/>
      <point x="550" y="1416"/>
      <point x="521" y="1440" type="curve"/>
      <point x="300" y="1440" type="line"/>
      <point x="346" y="1398"/>
      <point x="411" y="1334"/>
      <point x="481" y="1255" type="curve"/>
      <point x="292" y="1170" type="line"/>
    </contour>
    <contour>
      <point x="555" y="904" type="curve" smooth="yes"/>
      <point x="750" y="904"/>
      <point x="851" y="739"/>
      <point x="851" y="517" type="curve" smooth="yes"/>
      <point x="851" y="281"/>
      <point x="750" y="135"/>
      <point x="551" y="135" type="curve" smooth="yes"/>
      <point x="356" y="135"/>
      <point x="251" y="281"/>
      <point x="251" y="517" type="curve" smooth="yes"/>
      <point x="251" y="746"/>
      <point x="360" y="904"/>
    </contour>
  </outline>
</glyph>
<glyph name="ntilde" format="2">
  <advance width="1188"/>
  <unicode hex="00F1"/>
  <anchor x="520" y="0" name="PB"/>
  <anchor x="600" y="200" name="def"/>
  <outline>
    <contour>
      <point x="202" y="238" type="line"/>
      <point x="202" y="121"/>
      <point x="177" y="75"/>
      <point x="52" y="75" type="curve"/>
      <point x="52" y="0" type="line"/>
      <point x="579" y="0" type="line"/>
      <point x="579" y="75" type="line"/>
      <point x="474" y="75"/>
      <point x="453" y="121"/>
      <point x="453" y="238" type="curve"/>
      <point x="453" y="721" type="line"/>
      <point x="519" y="791"/>
      <point x="597" y="838"/>
      <point x="653" y="838" type="curve"/>
      <point x="710" y="838"/>
      <point x="749" y="779"/>
      <point x="749" y="667" type="curve"/>
      <point x="749" y="238" type="line"/>
      <point x="749" y="121"/>
      <point x="726" y="75"/>
      <point x="623" y="75" type="curve"/>
      <point x="623" y="0" type="line"/>
      <point x="1148" y="0" type="line"/>
      <point x="1148" y="75" type="line"/>
      <point x="1024" y="75"/>
      <point x="1000" y="121"/>
      <point x="1000" y="238" type="curve"/>
      <point x="1000" y="697" type="line"/>
      <point x="1000" y="868"/>
      <point x="887" y="1004"/>
      <point x="744" y="1004" type="curve"/>
      <point x="640" y="1004"/>
      <point x="540" y="962"/>
      <point x="453" y="881" type="curve"/>
      <point x="453" y="1004" type="line"/>
      <point x="349" y="1004" type="line"/>
      <point x="40" y="863" type="line"/>
      <point x="69" y="788" type="line"/>
      <point x="145" y="812"/>
      <point x="167" y="819"/>
      <point x="180" y="819" type="curve"/>
      <point x="202" y="819"/>
      <point x="202" y="778"/>
      <point x="202" y="683" type="curve"/>
    </contour>
    <contour>
      <point x="329" y="1150" type="line"/>
      <point x="340" y="1208"/>
      <point x="384" y="1255"/>
      <point x="426" y="1255" type="curve"/>
      <point x="459" y="1255"/>
      <point x="486" y="1241"/>
      <point x="541" y="1207" type="curve" smooth="yes"/>
      <point x="603" y="1168"/>
      <point x="652" y="1150"/>
      <point x="732" y="1150" type="curve"/>
      <point x="914" y="1150"/>
      <point x="989" y="1277"/>
      <point x="989" y="1425" type="curve"/>
      <point x="884" y="1425" type="line"/>
      <point x="873" y="1368"/>
      <point x="826" y="1320"/>
      <point x="784" y="1320" type="curve"/>
      <point x="751" y="1320"/>
      <point x="724" y="1334"/>
      <point x="669" y="1368" type="curve" smooth="yes"/>
      <point x="607" y="1407"/>
      <point x="558" y="1425"/>
      <point x="478" y="1425" type="curve"/>
      <point x="296" y="1425"/>
      <point x="221" y="1303"/>
      <point x="221" y="1150" type="curve"/>
    </contour>
  </outline>
</glyph>
<glyph name="ograve" format="2">
  <advance width="1102"/>
  <unicode hex="00F2"/>
  <anchor x="520" y="0" name="PB"/>
  <anchor x="580" y="200" name="def"/>
  <outline>
    <contour>
      <point x="247" y="1474" type="line"/>
      <point x="566" y="1136" type="line"/>
      <point x="626" y="1136" type="line"/>
      <point x="514" y="1474" type="line"/>
    </contour>
    <contour>
      <point x="555" y="1057" type="curve" smooth="yes"/>
      <point x="244" y="1057"/>
      <point x="67" y="810"/>
      <point x="67" y="517" type="curve" smooth="yes"/>
      <point x="67" y="217"/>
      <point x="244" y="-19"/>
      <point x="551" y="-19" type="curve" smooth="yes"/>
      <point x="855" y="-19"/>
      <point x="1035" y="217"/>
      <point x="1035" y="517" type="curve" smooth="yes"/>
      <point x="1035" y="810"/>
      <point x="859" y="1057"/>
    </contour>
    <contour>
      <point x="555" y="904" type="curve" smooth="yes"/>
      <point x="739" y="904"/>
      <point x="851" y="739"/>
      <point x="851" y="517" type="curve" smooth="yes"/>
      <point x="851" y="281"/>
      <point x="750" y="135"/>
      <point x="551" y="135" type="curve" smooth="yes"/>
      <point x="356" y="135"/>
      <point x="251" y="281"/>
      <point x="251" y="517" type="curve" smooth="yes"/>
      <point x="251" y="746"/>
      <point x="360" y="904"/>
    </contour>
  </outline>
</glyph>
<glyph name="otilde" format="2">
  <advance width="1102"/>
  <unicode hex="00F5"/>
  <anchor x="520" y="0" name="PB"/>
  <anchor x="580" y="200" name="def"/>
  <outline>
    <contour>
      <point x="555" y="1057" type="curve" smooth="yes"/>
      <point x="244" y="1057"/>
      <point x="67" y="810"/>
      <point x="67" y="517" type="curve" smooth="yes"/>
      <point x="67" y="217"/>
      <point x="244" y="-19"/>
      <point x="551" y="-19" type="curve" smooth="yes"/>
      <point x="855" y="-19"/>
      <point x="1035" y="217"/>
      <point x="1035" y="517" type="curve" smooth="yes"/>
      <point x="1035" y="810"/>
      <point x="859" y="1057"/>
    </contour>
    <contour>
      <point x="555" y="904" type="curve" smooth="yes"/>
      <point x="739" y="904"/>
      <point x="851" y="739"/>
      <point x="851" y="517" type="curve" smooth="yes"/>
      <point x="851" y="281"/>
      <point x="750" y="135"/>
      <point x="551" y="135" type="curve" smooth="yes"/>
      <point x="356" y="135"/>
      <point x="251" y="281"/>
      <point x="251" y="517" type="curve" smooth="yes"/>
      <point x="251" y="746"/>
      <point x="360" y="904"/>
    </contour>
    <contour>
      <point x="829" y="1440" type="line"/>
      <point x="829" y="1346"/>
      <point x="765" y="1297"/>
      <point x="716" y="1297" type="curve" smooth="yes"/>
      <point x="604" y="1297"/>
      <point x="585" y="1485"/>
      <point x="397" y="1485" type="curve" smooth="yes"/>
      <point x="232" y="1485"/>
      <point x="127" y="1346"/>
      <point x="127" y="1189" type="curve"/>
      <point x="266" y="1189" type="line"/>
      <point x="266" y="1282"/>
      <point x="330" y="1331"/>
      <point x="379" y="1331" type="curve" smooth="yes"/>
      <point x="491" y="1331"/>
      <point x="525" y="1144"/>
      <point x="712" y="1144" type="curve" smooth="yes"/>
      <point x="840" y="1144"/>
      <point x="967" y="1222"/>
      <point x="967" y="1440" type="curve"/>
    </contour>
  </outline>
</glyph>
<glyph name="odieresis" format="2">
  <advance width="1102"/>
  <unicode hex="00F6"/>
  <outline>
    <contour>
      <point x="262" y="1376" type="curve" smooth="yes"/>
      <point x="262" y="1320"/>
      <point x="311" y="1271"/>
      <point x="367" y="1271" type="curve" smooth="yes"/>
      <point x="424" y="1271"/>
      <point x="472" y="1320"/>
      <point x="472" y="1376" type="curve" smooth="yes"/>
      <point x="472" y="1432"/>
      <point x="424" y="1481"/>
      <point x="367" y="1481" type="curve" smooth="yes"/>
      <point x="311" y="1481"/>
      <point x="262" y="1432"/>
    </contour>
    <contour>
      <point x="637" y="1376" type="curve" smooth="yes"/>
      <point x="637" y="1320"/>
      <point x="686" y="1271"/>
      <point x="742" y="1271" type="curve" smooth="yes"/>
      <point x="799" y="1271"/>
      <point x="847" y="1320"/>
      <point x="847" y="1376" type="curve" smooth="yes"/>
      <point x="847" y="1432"/>
      <point x="799" y="1481"/>
      <point x="742" y="1481" type="curve" smooth="yes"/>
      <point x="686" y="1481"/>
      <point x="637" y="1432"/>
    </contour>
    <contour>
      <point x="555" y="1057" type="curve" smooth="yes"/>
      <point x="244" y="1057"/>
      <point x="67" y="810"/>
      <point x="67" y="517" type="curve" smooth="yes"/>
      <point x="67" y="217"/>
      <point x="244" y="-19"/>
      <point x="551" y="-19" type="curve" smooth="yes"/>
      <point x="855" y="-19"/>
      <point x="1035" y="217"/>
      <point x="1035" y="517" type="curve" smooth="yes"/>
      <point x="1035" y="810"/>
      <point x="859" y="1057"/>
    </contour>
    <contour>
      <point x="555" y="904" type="curve" smooth="yes"/>
      <point x="739" y="904"/>
      <point x="851" y="739"/>
      <point x="851" y="517" type="curve" smooth="yes"/>
      <point x="851" y="281"/>
      <point x="750" y="135"/>
      <point x="551" y="135" type="curve" smooth="yes"/>
      <point x="356" y="135"/>
      <point x="251" y="281"/>
      <point x="251" y="517" type="curve" smooth="yes"/>
      <point x="251" y="746"/>
      <point x="360" y="904"/>
    </contour>
  </outline>
</glyph>
<glyph name="oslash" format="2">
  <advance width="1102"/>
  <unicode hex="00F8"/>
  <outline>
    <contour>
      <point x="555" y="1057" type="curve" smooth="yes"/>
      <point x="244" y="1057"/>
      <point x="67" y="810"/>
      <point x="67" y="517" type="curve" smooth="yes"/>
      <point x="67" y="378"/>
      <point x="105" y="252"/>
      <point x="176" y="158" type="curve"/>
      <point x="75" y="45" type="line"/>
      <point x="127" y="-8" type="line"/>
      <point x="226" y="102" type="line"/>
      <point x="306" y="26"/>
      <point x="416" y="-19"/>
      <point x="551" y="-19" type="curve" smooth="yes"/>
      <point x="855" y="-19"/>
      <point x="1035" y="217"/>
      <point x="1035" y="517" type="curve" smooth="yes"/>
      <point x="1035" y="654"/>
      <point x="996" y="782"/>
      <point x="923" y="878" type="curve"/>
      <point x="1027" y="994" type="line"/>
      <point x="975" y="1046" type="line"/>
      <point x="874" y="934" type="line"/>
      <point x="794" y="1010"/>
      <point x="687" y="1057"/>
    </contour>
    <contour>
      <point x="851" y="517" type="curve" smooth="yes"/>
      <point x="851" y="281"/>
      <point x="750" y="135"/>
      <point x="551" y="135" type="curve" smooth="yes"/>
      <point x="459" y="135"/>
      <point x="387" y="167"/>
      <point x="337" y="226" type="curve"/>
      <point x="802" y="744" type="line"/>
      <point x="834" y="681"/>
      <point x="851" y="603"/>
    </contour>
    <contour>
      <point x="555" y="904" type="curve" smooth="yes"/>
      <point x="640" y="904"/>
      <point x="710" y="868"/>
      <point x="761" y="808" type="curve"/>
      <point x="295" y="290" type="line"/>
      <point x="266" y="351"/>
      <point x="251" y="427"/>
      <point x="251" y="517" type="curve" smooth="yes"/>
      <point x="251" y="746"/>
      <point x="360" y="904"/>
    </contour>
  </outline>
</glyph>
<glyph name="ucircumflex" format="2">
  <advance width="1099"/>
  <unicode hex="00FB"/>
  <anchor x="520" y="0" name="PB"/>
  <anchor x="580" y="200" name="def"/>
  <outline>
    <contour>
      <point x="431" y="1474" type="line"/>
      <point x="221" y="1121" type="line"/>
      <point x="255" y="1121" type="line"/>
      <point x="532" y="1346" type="line"/>
      <point x="810" y="1121" type="line"/>
      <point x="847" y="1121" type="line"/>
      <point x="634" y="1474" type="line"/>
    </contour>
    <contour>
      <point x="127" y="1039" type="line"/>
      <point x="127" y="270" type="line" smooth="yes"/>
      <point x="127" y="75"/>
      <point x="262" y="-19"/>
      <point x="454" y="-19" type="curve" smooth="yes"/>
      <point x="596" y="-19"/>
      <point x="720" y="34"/>
      <point x="799" y="139" type="curve"/>
      <point x="806" y="139" type="line"/>
      <point x="806" y="0" type="line"/>
      <point x="982" y="0" type="line"/>
      <point x="982" y="1039" type="line"/>
      <point x="806" y="1039" type="line"/>
      <point x="806" y="326" type="line"/>
      <point x="750" y="217"/>
      <point x="615" y="135"/>
      <point x="495" y="135" type="curve" smooth="yes"/>
      <point x="394" y="135"/>
      <point x="300" y="195"/>
      <point x="300" y="345" type="curve" smooth="yes"/>
      <point x="300" y="1039" type="line"/>
    </contour>
  </outline>
</glyph>
<glyph name="udieresis" format="2">
  <advance width="1110"/>
  <unicode hex="00FC"/>
  <anchor x="520" y="0" name="PB"/>
  <anchor x="570" y="200" name="def"/>
  <outline>
    <contour>
      <point x="259" y="1376" type="curve" smooth="yes"/>
      <point x="259" y="1320"/>
      <point x="307" y="1271"/>
      <point x="364" y="1271" type="curve" smooth="yes"/>
      <point x="420" y="1271"/>
      <point x="469" y="1320"/>
      <point x="469" y="1376" type="curve" smooth="yes"/>
      <point x="469" y="1432"/>
      <point x="420" y="1481"/>
      <point x="364" y="1481" type="curve" smooth="yes"/>
      <point x="307" y="1481"/>
      <point x="259" y="1432"/>
    </contour>
    <contour>
      <point x="634" y="1376" type="curve" smooth="yes"/>
      <point x="634" y="1320"/>
      <point x="682" y="1271"/>
      <point x="739" y="1271" type="curve" smooth="yes"/>
      <point x="795" y="1271"/>
      <point x="844" y="1320"/>
      <point x="844" y="1376" type="curve" smooth="yes"/>
      <point x="844" y="1432"/>
      <point x="795" y="1481"/>
      <point x="739" y="1481" type="curve" smooth="yes"/>
      <point x="682" y="1481"/>
      <point x="634" y="1432"/>
    </contour>
    <contour>
      <point x="127" y="1039" type="line"/>
      <point x="127" y="270" type="line" smooth="yes"/>
      <point x="127" y="75"/>
      <point x="262" y="-19"/>
      <point x="454" y="-19" type="curve" smooth="yes"/>
      <point x="596" y="-19"/>
      <point x="720" y="34"/>
      <point x="799" y="139" type="curve"/>
      <point x="806" y="139" type="line"/>
      <point x="806" y="0" type="line"/>
      <point x="982" y="0" type="line"/>
      <point x="982" y="1039" type="line"/>
      <point x="806" y="1039" type="line"/>
      <point x="806" y="326" type="line"/>
      <point x="750" y="217"/>
      <point x="615" y="135"/>
      <point x="495" y="135" type="curve" smooth="yes"/>
      <point x="394" y="135"/>
      <point x="300" y="195"/>
      <point x="300" y="345" type="curve" smooth="yes"/>
      <point x="300" y="1039" type="line"/>
    </contour>
  </outline>
</glyph>
<glyph name="yacute" format="2">
  <advance width="979"/>
  <unicode hex="00FD"/>
  <anchor x="520" y="-200" name="PB"/>
  <anchor x="502" y="0" name="def"/>
  <outline>
    <contour>
      <point x="776" y="1474" type="line"/>
      <point x="510" y="1474" type="line"/>
      <point x="397" y="1099" type="line"/>
      <point x="454" y="1099" type="line"/>
    </contour>
    <contour>
      <point x="19" y="1042" type="line"/>
      <point x="401" y="0" type="line"/>
      <point x="360" y="-139" type="line" smooth="yes"/>
      <point x="345" y="-188"/>
      <point x="311" y="-289"/>
      <point x="240" y="-289" type="curve" smooth="yes"/>
      <point x="199" y="-289"/>
      <point x="172" y="-289"/>
      <point x="139" y="-270" type="curve"/>
      <point x="139" y="-420" type="line"/>
      <point x="176" y="-435"/>
      <point x="221" y="-443"/>
      <point x="259" y="-443" type="curve" smooth="yes"/>
      <point x="341" y="-443"/>
      <point x="440" y="-384"/>
      <point x="502" y="-214" type="curve" smooth="yes"/>
      <point x="960" y="1042" type="line"/>
      <point x="765" y="1042" type="line"/>
      <point x="491" y="221" type="line"/>
      <point x="487" y="221" type="line"/>
      <point x="217" y="1042" type="line"/>
    </contour>
  </outline>
</glyph>
<glyph name="thorn" format="2">
  <advance width="1170"/>
  <unicode hex="00FE"/>
  <anchor x="520" y="-200" name="PB"/>
  <anchor x="580" y="200" name="def"/>
  <outline>
    <contour>
      <point x="201" y="-159" type="line"/>
      <point x="201" y="-276"/>
      <point x="181" y="-321"/>
      <point x="53" y="-321" type="curve"/>
      <point x="53" y="-401" type="line"/>
      <point x="602" y="-401" type="line"/>
      <point x="602" y="-321" type="line"/>
      <point x="478" y="-321"/>
      <point x="453" y="-279"/>
      <point x="453" y="-159" type="curve"/>
      <point x="453" y="16" type="line"/>
      <point x="506" y="-11"/>
      <point x="565" y="-22"/>
      <point x="642" y="-22" type="curve"/>
      <point x="925" y="-22"/>
      <point x="1100" y="216"/>
      <point x="1100" y="540" type="curve"/>
      <point x="1100" y="795"/>
      <point x="954" y="1004"/>
      <point x="726" y="1004" type="curve"/>
      <point x="607" y="1004"/>
      <point x="518" y="944"/>
      <point x="453" y="874" type="curve"/>
      <point x="453" y="1470" type="line"/>
      <point x="349" y="1470" type="line"/>
      <point x="40" y="1329" type="line"/>
      <point x="69" y="1255" type="line"/>
      <point x="127" y="1274"/>
      <point x="165" y="1285"/>
      <point x="180" y="1285" type="curve"/>
      <point x="201" y="1285"/>
      <point x="201" y="1244"/>
      <point x="201" y="1148" type="curve"/>
    </contour>
    <contour>
      <point x="650" y="838" type="curve" smooth="yes"/>
      <point x="754" y="838"/>
      <point x="832" y="709"/>
      <point x="832" y="442" type="curve"/>
      <point x="832" y="232"/>
      <point x="747" y="90"/>
      <point x="642" y="90" type="curve"/>
      <point x="531" y="90"/>
      <point x="453" y="172"/>
      <point x="453" y="274" type="curve"/>
      <point x="453" y="702" type="line"/>
      <point x="504" y="774"/>
      <point x="574" y="838"/>
    </contour>
  </outline>
</glyph>
<glyph name="ydieresis" format="2">
  <advance width="1123"/>
  <unicode hex="00FF"/>
  <anchor x="520" y="-200" name="PB"/>
  <anchor x="502" y="0" name="def"/>
  <outline>
    <contour>
      <point x="448" y="-95" type="line"/>
      <point x="422" y="-154"/>
      <point x="389" y="-227"/>
      <point x="359" y="-227" type="curve"/>
      <point x="341" y="-227"/>
      <point x="328" y="-220"/>
      <point x="315" y="-212" type="curve"/>
      <point x="297" y="-201"/>
      <point x="278" y="-190"/>
      <point x="221" y="-190" type="curve"/>
      <point x="121" y="-190"/>
      <point x="79" y="-237"/>
      <point x="79" y="-305" type="curve"/>
      <point x="79" y="-381"/>
      <point x="160" y="-437"/>
      <point x="254" y="-437" type="curve"/>
      <point x="382" y="-437"/>
      <point x="517" y="-331"/>
      <point x="582" y="-174" type="curve"/>
      <point x="964" y="754" type="line" smooth="yes"/>
      <point x="1010" y="865"/>
      <point x="1026" y="907"/>
      <point x="1113" y="907" type="curve"/>
      <point x="1113" y="982" type="line"/>
      <point x="728" y="982" type="line"/>
      <point x="728" y="907" type="line"/>
      <point x="792" y="907"/>
      <point x="821" y="896"/>
      <point x="821" y="867" type="curve"/>
      <point x="821" y="842"/>
      <point x="812" y="811"/>
      <point x="796" y="772" type="curve" smooth="yes"/>
      <point x="637" y="376" type="line"/>
      <point x="468" y="724" type="line"/>
      <point x="444" y="772"/>
      <point x="422" y="817"/>
      <point x="422" y="853" type="curve"/>
      <point x="422" y="879"/>
      <point x="432" y="907"/>
      <point x="523" y="907" type="curve"/>
      <point x="523" y="982" type="line"/>
      <point x="10" y="982" type="line"/>
      <point x="10" y="907" type="line"/>
      <point x="81" y="907"/>
      <point x="149" y="837"/>
      <point x="225" y="674" type="curve"/>
      <point x="512" y="65" type="line"/>
    </contour>
    <contour>
      <point x="280" y="1340" type="curve" smooth="yes"/>
      <point x="280" y="1263"/>
      <point x="343" y="1200"/>
      <point x="420" y="1200" type="curve" smooth="yes"/>
      <point x="497" y="1200"/>
      <point x="560" y="1263"/>
      <point x="560" y="1340" type="curve" smooth="yes"/>
      <point x="560" y="1417"/>
      <point x="497" y="1480"/>
      <point x="420" y="1480" type="curve" smooth="yes"/>
      <point x="343" y="1480"/>
      <point x="280" y="1417"/>
    </contour>
    <contour>
      <point x="701" y="1340" type="curve" smooth="yes"/>
      <point x="701" y="1263"/>
      <point x="764" y="1200"/>
      <point x="841" y="1200" type="curve" smooth="yes"/>
      <point x="918" y="1200"/>
      <point x="981" y="1263"/>
      <point x="981" y="1340" type="curve" smooth="yes"/>
      <point x="981" y="1417"/>
      <point x="918" y="1480"/>
      <point x="841" y="1480" type="curve" smooth="yes"/>
      <point x="764" y="1480"/>
      <point x="701" y="1417"/>
    </contour>
  </outline>
</glyph>
<glyph name="uni0102" format="2">
  <advance width="1634"/>
  <unicode hex="0102"/>
  <outline>
    <contour>
      <point x="1067" y="1853" type="line"/>
      <point x="1046" y="1800"/>
      <point x="949" y="1718"/>
      <point x="813" y="1718" type="curve"/>
      <point x="677" y="1718"/>
      <point x="579" y="1800"/>
      <point x="558" y="1853" type="curve"/>
      <point x="484" y="1853" type="line"/>
      <point x="507" y="1743"/>
      <point x="604" y="1539"/>
      <point x="813" y="1539" type="curve"/>
      <point x="1022" y="1539"/>
      <point x="1115" y="1743"/>
      <point x="1137" y="1853" type="curve"/>
    </contour>
    <contour>
      <point x="749" y="1470" type="line"/>
      <point x="223" y="246" type="line"/>
      <point x="178" y="143"/>
      <point x="130" y="75"/>
      <point x="20" y="75" type="curve"/>
      <point x="20" y="0" type="line"/>
      <point x="548" y="0" type="line"/>
      <point x="548" y="75" type="line"/>
      <point x="425" y="75"/>
      <point x="385" y="105"/>
      <point x="385" y="149" type="curve"/>
      <point x="385" y="174"/>
      <point x="394" y="202"/>
      <point x="406" y="231" type="curve"/>
      <point x="507" y="466" type="line"/>
      <point x="990" y="466" type="line"/>
      <point x="1090" y="231" type="line"/>
      <point x="1104" y="199"/>
      <point x="1112" y="170"/>
      <point x="1112" y="146" type="curve"/>
      <point x="1112" y="98"/>
      <point x="1065" y="75"/>
      <point x="959" y="75" type="curve"/>
      <point x="959" y="0" type="line"/>
      <point x="1614" y="0" type="line"/>
      <point x="1614" y="75" type="line"/>
      <point x="1473" y="75"/>
      <point x="1429" y="126"/>
      <point x="1379" y="246" type="curve"/>
      <point x="864" y="1470" type="line"/>
    </contour>
    <contour>
      <point x="750" y="1031" type="line"/>
      <point x="932" y="585" type="line"/>
      <point x="557" y="585" type="line"/>
    </contour>
  </outline>
</glyph>
<glyph name="uni0103" format="2">
  <advance width="1095"/>
  <unicode hex="0103"/>
  <anchor x="0" y="0" name="PB"/>
  <anchor x="0" y="0" name="def"/>
  <outline>
    <component base="a"/>
    <contour>
      <point x="691" y="1520" type="line"/>
      <point x="691" y="1426"/>
      <point x="611" y="1370"/>
      <point x="521" y="1370" type="curve" smooth="yes"/>
      <point x="431" y="1370"/>
      <point x="351" y="1426"/>
      <point x="351" y="1520" type="curve"/>
      <point x="201" y="1520" type="line"/>
      <point x="201" y="1302"/>
      <point x="396" y="1220"/>
      <point x="521" y="1220" type="curve" smooth="yes"/>
      <point x="646" y="1220"/>
      <point x="841" y="1302"/>
      <point x="841" y="1520" type="curve"/>
    </contour>
  </outline>
</glyph>
<glyph name="uni010D" format="2">
  <advance width="1042"/>
  <unicode hex="010D"/>
  <outline>
    <component base="c"/>
    <contour>
      <point x="623" y="1121" type="line"/>
      <point x="833" y="1474" type="line"/>
      <point x="799" y="1474" type="line"/>
      <point x="521" y="1249" type="line"/>
      <point x="244" y="1474" type="line"/>
      <point x="206" y="1474" type="line"/>
      <point x="420" y="1121" type="line"/>
    </contour>
  </outline>
</glyph>
<glyph name="uni0110" format="2">
  <advance width="1485"/>
  <unicode hex="0110"/>
  <outline>
    <contour>
      <point x="190" y="0" type="line"/>
      <point x="794" y="0" type="line" smooth="yes"/>
      <point x="1165" y="0"/>
      <point x="1375" y="315"/>
      <point x="1375" y="724" type="curve" smooth="yes"/>
      <point x="1375" y="1121"/>
      <point x="1165" y="1440"/>
      <point x="779" y="1440" type="curve" smooth="yes"/>
      <point x="190" y="1440" type="line"/>
      <point x="190" y="760" type="line"/>
      <point x="40" y="760" type="line"/>
      <point x="40" y="582" type="line"/>
      <point x="190" y="582" type="line"/>
    </contour>
    <contour>
      <point x="385" y="1264" type="line"/>
      <point x="741" y="1264" type="line" smooth="yes"/>
      <point x="1022" y="1264"/>
      <point x="1165" y="1099"/>
      <point x="1165" y="720" type="curve" smooth="yes"/>
      <point x="1165" y="375"/>
      <point x="1022" y="176"/>
      <point x="737" y="176" type="curve" smooth="yes"/>
      <point x="385" y="176" type="line"/>
      <point x="385" y="582" type="line"/>
      <point x="535" y="582" type="line"/>
      <point x="535" y="760" type="line"/>
      <point x="385" y="760" type="line"/>
    </contour>
  </outline>
</glyph>
<glyph name="uni0111" format="2">
  <advance width="1140"/>
  <unicode hex="0111"/>
  <anchor x="0" y="0" name="PB"/>
  <anchor x="0" y="0" name="def"/>
  <outline>
    <contour>
      <point x="805" y="0" type="line"/>
      <point x="978" y="0" type="line"/>
      <point x="978" y="1130" type="line"/>
      <point x="1128" y="1130" type="line"/>
      <point x="1128" y="1280" type="line"/>
      <point x="978" y="1280" type="line"/>
      <point x="978" y="1447" type="line"/>
      <point x="805" y="1447" type="line"/>
      <point x="805" y="1280" type="line"/>
      <point x="585" y="1280" type="line"/>
      <point x="585" y="1130" type="line"/>
      <point x="805" y="1130" type="line"/>
      <point x="805" y="896" type="line"/>
      <point x="741" y="982"/>
      <point x="651" y="1057"/>
      <point x="501" y="1057" type="curve" smooth="yes"/>
      <point x="246" y="1057"/>
      <point x="70" y="840"/>
      <point x="70" y="529" type="curve" smooth="yes"/>
      <point x="70" y="229"/>
      <point x="224" y="-19"/>
      <point x="490" y="-19" type="curve" smooth="yes"/>
      <point x="618" y="-19"/>
      <point x="730" y="22"/>
      <point x="801" y="139" type="curve"/>
      <point x="805" y="139" type="line"/>
    </contour>
    <contour>
      <point x="539" y="904" type="curve" smooth="yes"/>
      <point x="696" y="904"/>
      <point x="805" y="754"/>
      <point x="805" y="529" type="curve" smooth="yes"/>
      <point x="805" y="326"/>
      <point x="749" y="131"/>
      <point x="539" y="131" type="curve" smooth="yes"/>
      <point x="363" y="131"/>
      <point x="254" y="315"/>
      <point x="254" y="529" type="curve" smooth="yes"/>
      <point x="254" y="720"/>
      <point x="359" y="904"/>
    </contour>
  </outline>
</glyph>
<glyph name="uni0114" format="2">
  <advance width="1270"/>
  <unicode hex="0114"/>
  <outline>
    <contour>
      <point x="145" y="1440" type="line"/>
      <point x="145" y="0" type="line"/>
      <point x="1165" y="0" type="line"/>
      <point x="1165" y="176" type="line"/>
      <point x="340" y="176" type="line"/>
      <point x="340" y="656" type="line"/>
      <point x="1083" y="656" type="line"/>
      <point x="1083" y="832" type="line"/>
      <point x="340" y="832" type="line"/>
      <point x="340" y="1264" type="line"/>
      <point x="1128" y="1264" type="line"/>
      <point x="1128" y="1440" type="line"/>
    </contour>
    <contour>
      <point x="824" y="1850" type="line"/>
      <point x="824" y="1756"/>
      <point x="744" y="1700"/>
      <point x="654" y="1700" type="curve" smooth="yes"/>
      <point x="564" y="1700"/>
      <point x="484" y="1756"/>
      <point x="484" y="1850" type="curve"/>
      <point x="334" y="1850" type="line"/>
      <point x="334" y="1632"/>
      <point x="529" y="1550"/>
      <point x="654" y="1550" type="curve" smooth="yes"/>
      <point x="779" y="1550"/>
      <point x="974" y="1632"/>
      <point x="974" y="1850" type="curve"/>
    </contour>
  </outline>
</glyph>
<glyph name="uni0115" format="2">
  <advance width="1090"/>
  <unicode hex="0115"/>
  <outline>
    <contour>
      <point x="721" y="1520" type="line"/>
      <point x="721" y="1426"/>
      <point x="641" y="1370"/>
      <point x="551" y="1370" type="curve" smooth="yes"/>
      <point x="461" y="1370"/>
      <point x="381" y="1426"/>
      <point x="381" y="1520" type="curve"/>
      <point x="231" y="1520" type="line"/>
      <point x="231" y="1302"/>
      <point x="426" y="1220"/>
      <point x="551" y="1220" type="curve" smooth="yes"/>
      <point x="676" y="1220"/>
      <point x="871" y="1302"/>
      <point x="871" y="1520" type="curve"/>
    </contour>
    <contour>
      <point x="1016" y="480" type="line"/>
      <point x="1016" y="551" type="line" smooth="yes"/>
      <point x="1016" y="844"/>
      <point x="836" y="1057"/>
      <point x="551" y="1057" type="curve" smooth="yes"/>
      <point x="259" y="1057"/>
      <point x="75" y="810"/>
      <point x="75" y="536" type="curve" smooth="yes"/>
      <point x="75" y="236"/>
      <point x="259" y="-19"/>
      <point x="551" y="-19" type="curve" smooth="yes"/>
      <point x="769" y="-19"/>
      <point x="960" y="109"/>
      <point x="994" y="337" type="curve"/>
      <point x="836" y="337" type="line"/>
      <point x="791" y="202"/>
      <point x="697" y="131"/>
      <point x="551" y="131" type="curve" smooth="yes"/>
      <point x="382" y="131"/>
      <point x="259" y="304"/>
      <point x="259" y="480" type="curve"/>
    </contour>
    <contour>
      <point x="259" y="619" type="line"/>
      <point x="259" y="765"/>
      <point x="375" y="904"/>
      <point x="544" y="904" type="curve" smooth="yes"/>
      <point x="724" y="904"/>
      <point x="836" y="780"/>
      <point x="836" y="619" type="curve"/>
    </contour>
  </outline>
</glyph>
<glyph name="uni0128" format="2">
  <advance width="729"/>
  <unicode hex="0128"/>
  <guideline x="41" y="0" angle="0"/>
  <guideline x="768" y="0" angle="0"/>
  <outline>
    <contour>
      <point x="237" y="242" type="line"/>
      <point x="237" y="108"/>
      <point x="186" y="75"/>
      <point x="40" y="75" type="curve"/>
      <point x="40" y="0" type="line"/>
      <point x="728" y="0" type="line"/>
      <point x="728" y="75" type="line"/>
      <point x="586" y="75"/>
      <point x="532" y="108"/>
      <point x="532" y="242" type="curve"/>
      <point x="532" y="1196" type="line"/>
      <point x="532" y="1329"/>
      <point x="586" y="1362"/>
      <point x="728" y="1362" type="curve"/>
      <point x="728" y="1437" type="line"/>
      <point x="40" y="1437" type="line"/>
      <point x="40" y="1362" type="line"/>
      <point x="186" y="1362"/>
      <point x="237" y="1329"/>
      <point x="237" y="1196" type="curve"/>
    </contour>
    <contour>
      <point x="108" y="1500" type="line"/>
      <point x="119" y="1558"/>
      <point x="163" y="1605"/>
      <point x="205" y="1605" type="curve"/>
      <point x="238" y="1605"/>
      <point x="265" y="1591"/>
      <point x="320" y="1557" type="curve" smooth="yes"/>
      <point x="382" y="1518"/>
      <point x="431" y="1500"/>
      <point x="511" y="1500" type="curve"/>
      <point x="693" y="1500"/>
      <point x="768" y="1627"/>
      <point x="768" y="1775" type="curve"/>
      <point x="663" y="1775" type="line"/>
      <point x="652" y="1718"/>
      <point x="605" y="1670"/>
      <point x="563" y="1670" type="curve"/>
      <point x="530" y="1670"/>
      <point x="503" y="1684"/>
      <point x="448" y="1718" type="curve" smooth="yes"/>
      <point x="386" y="1757"/>
      <point x="337" y="1775"/>
      <point x="257" y="1775" type="curve"/>
      <point x="75" y="1775"/>
      <point x="0" y="1653"/>
      <point x="0" y="1500" type="curve"/>
    </contour>
  </outline>
</glyph>
<glyph name="uni0129" format="2">
  <advance width="627"/>
  <unicode hex="0129"/>
  <outline>
    <contour>
      <point x="186" y="238" type="line"/>
      <point x="186" y="121"/>
      <point x="165" y="75"/>
      <point x="40" y="75" type="curve"/>
      <point x="40" y="0" type="line"/>
      <point x="587" y="0" type="line"/>
      <point x="587" y="75" type="line"/>
      <point x="463" y="75"/>
      <point x="437" y="121"/>
      <point x="437" y="238" type="curve"/>
      <point x="437" y="1004" type="line"/>
      <point x="334" y="1004" type="line"/>
      <point x="24" y="863" type="line"/>
      <point x="52" y="790" type="line"/>
      <point x="108" y="807"/>
      <point x="153" y="819"/>
      <point x="165" y="819" type="curve"/>
      <point x="186" y="819"/>
      <point x="186" y="778"/>
      <point x="186" y="683" type="curve"/>
    </contour>
    <contour>
      <point x="562" y="1470" type="line"/>
      <point x="562" y="1392"/>
      <point x="533" y="1328"/>
      <point x="493" y="1328" type="curve"/>
      <point x="465" y="1328"/>
      <point x="413" y="1359"/>
      <point x="357" y="1394" type="curve"/>
      <point x="296" y="1431"/>
      <point x="233" y="1470"/>
      <point x="146" y="1470" type="curve"/>
      <point x="-35" y="1470"/>
      <point x="-100" y="1308"/>
      <point x="-100" y="1158" type="curve"/>
      <point x="5" y="1158" type="line"/>
      <point x="5" y="1236"/>
      <point x="39" y="1304"/>
      <point x="77" y="1304" type="curve"/>
      <point x="100" y="1304"/>
      <point x="146" y="1275"/>
      <point x="194" y="1244" type="curve" smooth="yes"/>
      <point x="262" y="1200"/>
      <point x="328" y="1158"/>
      <point x="423" y="1158" type="curve"/>
      <point x="607" y="1158"/>
      <point x="667" y="1324"/>
      <point x="667" y="1470" type="curve"/>
    </contour>
  </outline>
</glyph>
<glyph name="uni014F" format="2">
  <advance width="1100"/>
  <unicode hex="014F"/>
  <outline>
    <contour>
      <point x="554" y="1057" type="curve" smooth="yes"/>
      <point x="243" y="1057"/>
      <point x="66" y="810"/>
      <point x="66" y="517" type="curve" smooth="yes"/>
      <point x="66" y="217"/>
      <point x="243" y="-19"/>
      <point x="550" y="-19" type="curve" smooth="yes"/>
      <point x="854" y="-19"/>
      <point x="1034" y="217"/>
      <point x="1034" y="517" type="curve" smooth="yes"/>
      <point x="1034" y="810"/>
      <point x="858" y="1057"/>
    </contour>
    <contour>
      <point x="554" y="904" type="curve" smooth="yes"/>
      <point x="738" y="904"/>
      <point x="850" y="739"/>
      <point x="850" y="517" type="curve" smooth="yes"/>
      <point x="850" y="281"/>
      <point x="749" y="135"/>
      <point x="550" y="135" type="curve" smooth="yes"/>
      <point x="355" y="135"/>
      <point x="250" y="281"/>
      <point x="250" y="517" type="curve" smooth="yes"/>
      <point x="250" y="746"/>
      <point x="359" y="904"/>
    </contour>
    <contour>
      <point x="724" y="1520" type="line"/>
      <point x="724" y="1426"/>
      <point x="644" y="1370"/>
      <point x="554" y="1370" type="curve" smooth="yes"/>
      <point x="464" y="1370"/>
      <point x="384" y="1426"/>
      <point x="384" y="1520" type="curve"/>
      <point x="234" y="1520" type="line"/>
      <point x="234" y="1302"/>
      <point x="429" y="1220"/>
      <point x="554" y="1220" type="curve" smooth="yes"/>
      <point x="679" y="1220"/>
      <point x="874" y="1302"/>
      <point x="874" y="1520" type="curve"/>
    </contour>
  </outline>
</glyph>
<glyph name="OE" format="2">
  <advance width="2064"/>
  <unicode hex="0152"/>
  <outline>
    <contour>
      <point x="813" y="-32" type="curve" smooth="yes"/>
      <point x="891" y="-32"/>
      <point x="964" y="-22"/>
      <point x="1030" y="0" type="curve"/>
      <point x="1854" y="0" type="line"/>
      <point x="1994" y="432" type="line"/>
      <point x="1864" y="432" type="line"/>
      <point x="1810" y="254"/>
      <point x="1700" y="108"/>
      <point x="1528" y="108" type="curve"/>
      <point x="1309" y="108" type="line"/>
      <point x="1284" y="108"/>
      <point x="1267" y="140"/>
      <point x="1264" y="178" type="curve"/>
      <point x="1264" y="729" type="line"/>
      <point x="1397" y="729" type="line"/>
      <point x="1488" y="729"/>
      <point x="1566" y="673"/>
      <point x="1566" y="506" type="curve"/>
      <point x="1682" y="506" type="line"/>
      <point x="1682" y="1019" type="line"/>
      <point x="1566" y="1019" type="line"/>
      <point x="1566" y="884"/>
      <point x="1488" y="836"/>
      <point x="1397" y="836" type="curve"/>
      <point x="1264" y="836" type="line"/>
      <point x="1264" y="1329" type="line"/>
      <point x="1505" y="1329" type="line"/>
      <point x="1663" y="1329"/>
      <point x="1724" y="1235"/>
      <point x="1757" y="1066" type="curve"/>
      <point x="1874" y="1066" type="line"/>
      <point x="1853" y="1437" type="line"/>
      <point x="1034" y="1437" type="line"/>
      <point x="968" y="1459"/>
      <point x="891" y="1470"/>
      <point x="813" y="1470" type="curve"/>
      <point x="394" y="1470"/>
      <point x="70" y="1137"/>
      <point x="70" y="726" type="curve"/>
      <point x="70" y="307"/>
      <point x="394" y="-32"/>
    </contour>
    <contour>
      <point x="813" y="75" type="curve" smooth="yes"/>
      <point x="541" y="75"/>
      <point x="402" y="351"/>
      <point x="402" y="726" type="curve"/>
      <point x="402" y="1100"/>
      <point x="541" y="1362"/>
      <point x="813" y="1362" type="curve"/>
      <point x="946" y="1355"/>
      <point x="974" y="1343"/>
      <point x="974" y="1196" type="curve"/>
      <point x="974" y="242" type="line"/>
      <point x="974" y="159"/>
      <point x="962" y="110"/>
      <point x="929" y="95" type="curve" smooth="yes"/>
      <point x="897" y="81"/>
      <point x="853" y="75"/>
    </contour>
  </outline>
</glyph>
<glyph name="scaron" format="2">
  <advance width="884"/>
  <unicode hex="0161"/>
  <outline>
    <contour>
      <point x="89" y="0" type="line"/>
      <point x="205" y="0" type="line"/>
      <point x="206" y="10"/>
      <point x="208" y="16"/>
      <point x="213" y="26" type="curve"/>
      <point x="281" y="0"/>
      <point x="339" y="-22"/>
      <point x="446" y="-22" type="curve"/>
      <point x="687" y="-22"/>
      <point x="814" y="114"/>
      <point x="814" y="285" type="curve"/>
      <point x="814" y="464"/>
      <point x="647" y="539"/>
      <point x="495" y="607" type="curve"/>
      <point x="388" y="655"/>
      <point x="288" y="699"/>
      <point x="288" y="795" type="curve"/>
      <point x="288" y="854"/>
      <point x="339" y="903"/>
      <point x="417" y="903" type="curve"/>
      <point x="519" y="903"/>
      <point x="610" y="791"/>
      <point x="618" y="648" type="curve"/>
      <point x="733" y="648" type="line"/>
      <point x="733" y="1004" type="line"/>
      <point x="621" y="1004" type="line"/>
      <point x="620" y="992"/>
      <point x="617" y="977"/>
      <point x="613" y="967" type="curve"/>
      <point x="549" y="989"/>
      <point x="495" y="1004"/>
      <point x="398" y="1004" type="curve"/>
      <point x="207" y="1004"/>
      <point x="81" y="882"/>
      <point x="81" y="722" type="curve"/>
      <point x="81" y="540"/>
      <point x="235" y="465"/>
      <point x="376" y="397" type="curve"/>
      <point x="475" y="349"/>
      <point x="567" y="305"/>
      <point x="567" y="205" type="curve"/>
      <point x="567" y="143"/>
      <point x="515" y="90"/>
      <point x="449" y="90" type="curve"/>
      <point x="336" y="90"/>
      <point x="229" y="210"/>
      <point x="208" y="367" type="curve"/>
      <point x="89" y="367" type="line"/>
    </contour>
    <contour>
      <point x="554" y="1089" type="line"/>
      <point x="782" y="1470" type="line"/>
      <point x="677" y="1470" type="line"/>
      <point x="428" y="1268" type="line"/>
      <point x="178" y="1470" type="line"/>
      <point x="70" y="1470" type="line"/>
      <point x="301" y="1089" type="line"/>
    </contour>
  </outline>
</glyph>
<glyph name="uni0168" format="2">
  <advance width="1653"/>
  <unicode hex="0168"/>
  <outline>
    <contour>
      <point x="237" y="515" type="line"/>
      <point x="237" y="213"/>
      <point x="440" y="-32"/>
      <point x="816" y="-32" type="curve"/>
      <point x="1241" y="-32"/>
      <point x="1413" y="213"/>
      <point x="1413" y="511" type="curve"/>
      <point x="1413" y="1196" type="line"/>
      <point x="1413" y="1329"/>
      <point x="1467" y="1362"/>
      <point x="1613" y="1362" type="curve"/>
      <point x="1613" y="1437" type="line"/>
      <point x="1042" y="1437" type="line"/>
      <point x="1042" y="1362" type="line"/>
      <point x="1187" y="1362"/>
      <point x="1239" y="1329"/>
      <point x="1239" y="1196" type="curve"/>
      <point x="1239" y="511" type="line"/>
      <point x="1239" y="281"/>
      <point x="1104" y="97"/>
      <point x="885" y="97" type="curve"/>
      <point x="669" y="97"/>
      <point x="531" y="281"/>
      <point x="531" y="511" type="curve"/>
      <point x="531" y="1196" type="line"/>
      <point x="531" y="1329"/>
      <point x="583" y="1362"/>
      <point x="729" y="1362" type="curve"/>
      <point x="729" y="1437" type="line"/>
      <point x="40" y="1437" type="line"/>
      <point x="40" y="1362" type="line"/>
      <point x="182" y="1362"/>
      <point x="237" y="1329"/>
      <point x="237" y="1196" type="curve"/>
    </contour>
    <contour>
      <point x="606" y="1500" type="line"/>
      <point x="617" y="1558"/>
      <point x="661" y="1605"/>
      <point x="703" y="1605" type="curve"/>
      <point x="736" y="1605"/>
      <point x="763" y="1591"/>
      <point x="818" y="1557" type="curve" smooth="yes"/>
      <point x="880" y="1518"/>
      <point x="929" y="1500"/>
      <point x="1009" y="1500" type="curve"/>
      <point x="1191" y="1500"/>
      <point x="1266" y="1627"/>
      <point x="1266" y="1775" type="curve"/>
      <point x="1161" y="1775" type="line"/>
      <point x="1150" y="1718"/>
      <point x="1103" y="1670"/>
      <point x="1061" y="1670" type="curve"/>
      <point x="1028" y="1670"/>
      <point x="1001" y="1684"/>
      <point x="946" y="1718" type="curve" smooth="yes"/>
      <point x="884" y="1757"/>
      <point x="835" y="1775"/>
      <point x="755" y="1775" type="curve"/>
      <point x="573" y="1775"/>
      <point x="498" y="1653"/>
      <point x="498" y="1500" type="curve"/>
    </contour>
  </outline>
</glyph>
<glyph name="uni0169" format="2">
  <advance width="1181"/>
  <unicode hex="0169"/>
  <outline>
    <contour>
      <point x="40" y="982" type="line"/>
      <point x="40" y="907" type="line"/>
      <point x="157" y="907"/>
      <point x="185" y="871"/>
      <point x="185" y="762" type="curve"/>
      <point x="185" y="293" type="line"/>
      <point x="185" y="118"/>
      <point x="324" y="-22"/>
      <point x="499" y="-22" type="curve"/>
      <point x="579" y="-22"/>
      <point x="678" y="25"/>
      <point x="751" y="93" type="curve"/>
      <point x="751" y="-22" type="line"/>
      <point x="850" y="-22" type="line"/>
      <point x="1171" y="123" type="line"/>
      <point x="1132" y="201" type="line"/>
      <point x="1082" y="167"/>
      <point x="1058" y="159"/>
      <point x="1045" y="159" type="curve"/>
      <point x="1011" y="159"/>
      <point x="1002" y="191"/>
      <point x="1002" y="301" type="curve"/>
      <point x="1002" y="982" type="line"/>
      <point x="601" y="982" type="line"/>
      <point x="601" y="907" type="line"/>
      <point x="718" y="907"/>
      <point x="751" y="871"/>
      <point x="751" y="762" type="curve"/>
      <point x="751" y="274" type="line"/>
      <point x="708" y="200"/>
      <point x="637" y="140"/>
      <point x="586" y="140" type="curve"/>
      <point x="503" y="140"/>
      <point x="437" y="208"/>
      <point x="437" y="293" type="curve"/>
      <point x="437" y="982" type="line"/>
    </contour>
    <contour>
      <point x="832" y="1470" type="line"/>
      <point x="832" y="1392"/>
      <point x="803" y="1328"/>
      <point x="763" y="1328" type="curve"/>
      <point x="735" y="1328"/>
      <point x="683" y="1359"/>
      <point x="627" y="1394" type="curve"/>
      <point x="566" y="1431"/>
      <point x="503" y="1470"/>
      <point x="416" y="1470" type="curve"/>
      <point x="235" y="1470"/>
      <point x="170" y="1308"/>
      <point x="170" y="1158" type="curve"/>
      <point x="275" y="1158" type="line"/>
      <point x="275" y="1236"/>
      <point x="309" y="1304"/>
      <point x="347" y="1304" type="curve"/>
      <point x="370" y="1304"/>
      <point x="416" y="1275"/>
      <point x="464" y="1244" type="curve" smooth="yes"/>
      <point x="532" y="1200"/>
      <point x="598" y="1158"/>
      <point x="693" y="1158" type="curve"/>
      <point x="877" y="1158"/>
      <point x="937" y="1324"/>
      <point x="937" y="1470" type="curve"/>
    </contour>
  </outline>
</glyph>
<glyph name="Ydieresis" format="2">
  <advance width="1279"/>
  <unicode hex="0178"/>
  <outline>
    <contour>
      <point x="326" y="1714" type="curve" smooth="yes"/>
      <point x="326" y="1657"/>
      <point x="375" y="1609"/>
      <point x="431" y="1609" type="curve" smooth="yes"/>
      <point x="487" y="1609"/>
      <point x="536" y="1657"/>
      <point x="536" y="1714" type="curve" smooth="yes"/>
      <point x="536" y="1770"/>
      <point x="487" y="1819"/>
      <point x="431" y="1819" type="curve" smooth="yes"/>
      <point x="375" y="1819"/>
      <point x="326" y="1770"/>
    </contour>
    <contour>
      <point x="739" y="1714" type="curve" smooth="yes"/>
      <point x="739" y="1657"/>
      <point x="787" y="1609"/>
      <point x="844" y="1609" type="curve" smooth="yes"/>
      <point x="900" y="1609"/>
      <point x="949" y="1657"/>
      <point x="949" y="1714" type="curve" smooth="yes"/>
      <point x="949" y="1770"/>
      <point x="900" y="1819"/>
      <point x="844" y="1819" type="curve" smooth="yes"/>
      <point x="787" y="1819"/>
      <point x="739" y="1770"/>
    </contour>
    <contour>
      <point x="19" y="1447" type="line"/>
      <point x="540" y="581" type="line"/>
      <point x="540" y="0" type="line"/>
      <point x="735" y="0" type="line"/>
      <point x="735" y="581" type="line"/>
      <point x="1260" y="1447" type="line"/>
      <point x="1020" y="1447" type="line"/>
      <point x="637" y="742" type="line"/>
      <point x="259" y="1447" type="line"/>
    </contour>
  </outline>
</glyph>
<glyph name="zcaron" format="2">
  <advance width="1005"/>
  <unicode hex="017E"/>
  <outline>
    <contour>
      <point x="559" y="1121" type="line"/>
      <point x="769" y="1474" type="line"/>
      <point x="735" y="1474" type="line"/>
      <point x="457" y="1249" type="line"/>
      <point x="180" y="1474" type="line"/>
      <point x="142" y="1474" type="line"/>
      <point x="356" y="1121" type="line"/>
    </contour>
    <contour>
      <point x="101" y="1039" type="line"/>
      <point x="101" y="885" type="line"/>
      <point x="667" y="885" type="line"/>
      <point x="667" y="881" type="line"/>
      <point x="64" y="154" type="line"/>
      <point x="64" y="0" type="line"/>
      <point x="922" y="0" type="line"/>
      <point x="922" y="154" type="line"/>
      <point x="296" y="154" type="line"/>
      <point x="296" y="157" type="line"/>
      <point x="904" y="885" type="line"/>
      <point x="904" y="1039" type="line"/>
    </contour>
  </outline>
</glyph>
<glyph name="uni0180" format="2">
  <advance width="1087"/>
  <unicode hex="0180"/>
  <outline>
    <contour>
      <point x="120" y="1447" type="line"/>
      <point x="120" y="1280" type="line"/>
      <point x="10" y="1280" type="line"/>
      <point x="10" y="1130" type="line"/>
      <point x="120" y="1130" type="line"/>
      <point x="120" y="0" type="line"/>
      <point x="292" y="0" type="line"/>
      <point x="292" y="139" type="line"/>
      <point x="296" y="139" type="line"/>
      <point x="367" y="22"/>
      <point x="484" y="-19"/>
      <point x="611" y="-19" type="curve" smooth="yes"/>
      <point x="877" y="-19"/>
      <point x="1016" y="236"/>
      <point x="1016" y="529" type="curve" smooth="yes"/>
      <point x="1016" y="840"/>
      <point x="855" y="1057"/>
      <point x="600" y="1057" type="curve" smooth="yes"/>
      <point x="450" y="1057"/>
      <point x="356" y="982"/>
      <point x="292" y="896" type="curve"/>
      <point x="292" y="1130" type="line"/>
      <point x="523" y="1130" type="line"/>
      <point x="523" y="1280" type="line"/>
      <point x="292" y="1280" type="line"/>
      <point x="292" y="1447" type="line"/>
    </contour>
    <contour>
      <point x="562" y="904" type="curve" smooth="yes"/>
      <point x="742" y="904"/>
      <point x="832" y="720"/>
      <point x="832" y="529" type="curve" smooth="yes"/>
      <point x="832" y="315"/>
      <point x="735" y="131"/>
      <point x="559" y="131" type="curve" smooth="yes"/>
      <point x="349" y="131"/>
      <point x="296" y="326"/>
      <point x="296" y="529" type="curve" smooth="yes"/>
      <point x="296" y="754"/>
      <point x="405" y="904"/>
    </contour>
  </outline>
</glyph>
<glyph name="florin" format="2">
  <advance width="1209"/>
  <unicode hex="0192"/>
  <outline>
    <contour>
      <point x="894" y="1178" type="line"/>
      <point x="915" y="1290"/>
      <point x="933" y="1382"/>
      <point x="991" y="1383" type="curve"/>
      <point x="975" y="1363"/>
      <point x="967" y="1338"/>
      <point x="967" y="1312" type="curve" smooth="yes"/>
      <point x="967" y="1269"/>
      <point x="1019" y="1231"/>
      <point x="1072" y="1231" type="curve"/>
      <point x="1151" y="1231"/>
      <point x="1189" y="1284"/>
      <point x="1189" y="1334" type="curve"/>
      <point x="1189" y="1427"/>
      <point x="1089" y="1470"/>
      <point x="992" y="1470" type="curve"/>
      <point x="772" y="1470"/>
      <point x="698" y="1255"/>
      <point x="645" y="1108" type="curve"/>
      <point x="646" y="1108" type="line"/>
      <point x="588" y="955"/>
      <point x="570" y="923"/>
      <point x="397" y="923" type="curve"/>
      <point x="372" y="823" type="line"/>
      <point x="565" y="823" type="line"/>
      <point x="349" y="-64" type="line" smooth="yes"/>
      <point x="302" y="-258"/>
      <point x="260" y="-330"/>
      <point x="218" y="-333" type="curve"/>
      <point x="234" y="-320"/>
      <point x="249" y="-296"/>
      <point x="249" y="-271" type="curve" smooth="yes"/>
      <point x="249" y="-230"/>
      <point x="193" y="-190"/>
      <point x="140" y="-190" type="curve"/>
      <point x="58" y="-190"/>
      <point x="20" y="-253"/>
      <point x="20" y="-308" type="curve"/>
      <point x="20" y="-390"/>
      <point x="97" y="-437"/>
      <point x="188" y="-437" type="curve"/>
      <point x="485" y="-437"/>
      <point x="603" y="-46"/>
      <point x="653" y="153" type="curve" smooth="yes"/>
      <point x="823" y="823" type="line"/>
      <point x="1014" y="823" type="line"/>
      <point x="1031" y="923" type="line"/>
      <point x="843" y="923" type="line"/>
    </contour>
  </outline>
</glyph>
<glyph name="uni01A1" format="2">
  <advance width="1228"/>
  <unicode hex="01A1"/>
  <anchor x="0" y="0" name="PB"/>
  <anchor x="0" y="0" name="def"/>
  <outline>
    <contour>
      <point x="554" y="1057" type="curve" smooth="yes"/>
      <point x="243" y="1057"/>
      <point x="66" y="810"/>
      <point x="66" y="517" type="curve" smooth="yes"/>
      <point x="66" y="217"/>
      <point x="243" y="-19"/>
      <point x="550" y="-19" type="curve" smooth="yes"/>
      <point x="854" y="-19"/>
      <point x="1034" y="217"/>
      <point x="1034" y="517" type="curve" smooth="yes"/>
      <point x="1034" y="581"/>
      <point x="1026" y="642"/>
      <point x="1009" y="700" type="curve"/>
      <point x="1166" y="760"/>
      <point x="1248" y="909"/>
      <point x="1248" y="1055" type="curve" smooth="yes"/>
      <point x="1248" y="1122"/>
      <point x="1241" y="1157"/>
      <point x="1224" y="1220" type="curve"/>
      <point x="1028" y="1220" type="line"/>
      <point x="1046" y="1179"/>
      <point x="1062" y="1093"/>
      <point x="1062" y="1055" type="curve" smooth="yes"/>
      <point x="1062" y="962"/>
      <point x="1018" y="899"/>
      <point x="931" y="866" type="curve"/>
      <point x="849" y="982"/>
      <point x="721" y="1057"/>
    </contour>
    <contour>
      <point x="554" y="904" type="curve" smooth="yes"/>
      <point x="738" y="904"/>
      <point x="850" y="739"/>
      <point x="850" y="517" type="curve" smooth="yes"/>
      <point x="850" y="281"/>
      <point x="749" y="135"/>
      <point x="550" y="135" type="curve" smooth="yes"/>
      <point x="355" y="135"/>
      <point x="250" y="281"/>
      <point x="250" y="517" type="curve" smooth="yes"/>
      <point x="250" y="746"/>
      <point x="359" y="904"/>
    </contour>
  </outline>
</glyph>
<glyph name="uni01B0" format="2">
  <advance width="1288"/>
  <unicode hex="01B0"/>
  <guideline x="0" y="309" angle="19.29"/>
  <outline>
    <contour>
      <point x="127" y="1039" type="line"/>
      <point x="127" y="270" type="line" smooth="yes"/>
      <point x="127" y="75"/>
      <point x="262" y="-19"/>
      <point x="454" y="-19" type="curve" smooth="yes"/>
      <point x="596" y="-19"/>
      <point x="720" y="34"/>
      <point x="806" y="139" type="curve"/>
      <point x="806" y="0" type="line"/>
      <point x="982" y="0" type="line"/>
      <point x="982" y="668" type="line"/>
      <point x="1062" y="697" type="line" smooth="yes"/>
      <point x="1224" y="754"/>
      <point x="1308" y="907"/>
      <point x="1308" y="1055" type="curve" smooth="yes"/>
      <point x="1308" y="1122"/>
      <point x="1301" y="1157"/>
      <point x="1284" y="1220" type="curve"/>
      <point x="1088" y="1220" type="line"/>
      <point x="1106" y="1179"/>
      <point x="1122" y="1093"/>
      <point x="1122" y="1055" type="curve" smooth="yes"/>
      <point x="1122" y="960"/>
      <point x="1076" y="896"/>
      <point x="984" y="864" type="curve"/>
      <point x="982" y="863" type="line"/>
      <point x="982" y="1039" type="line"/>
      <point x="806" y="1039" type="line"/>
      <point x="806" y="326" type="line"/>
      <point x="750" y="217"/>
      <point x="615" y="135"/>
      <point x="495" y="135" type="curve" smooth="yes"/>
      <point x="394" y="135"/>
      <point x="300" y="195"/>
      <point x="300" y="345" type="curve" smooth="yes"/>
      <point x="300" y="1039" type="line"/>
    </contour>
  </outline>
</glyph>
<glyph name="uni024E" format="2">
  <advance width="1279"/>
  <unicode hex="024E"/>
  <outline>
    <contour>
      <point x="62" y="1004" type="line"/>
      <point x="62" y="881" type="line"/>
      <point x="1219" y="881" type="line"/>
      <point x="1219" y="1004" type="line"/>
    </contour>
    <contour>
      <point x="19" y="1440" type="line"/>
      <point x="540" y="574" type="line"/>
      <point x="540" y="0" type="line"/>
      <point x="735" y="0" type="line"/>
      <point x="735" y="574" type="line"/>
      <point x="1260" y="1440" type="line"/>
      <point x="1020" y="1440" type="line"/>
      <point x="637" y="735" type="line"/>
      <point x="259" y="1440" type="line"/>
    </contour>
  </outline>
</glyph>
<glyph name="uni0255" format="2">
  <advance width="1042"/>
  <unicode hex="0255"/>
  <outline>
    <contour>
      <point x="967" y="705" type="line"/>
      <point x="934" y="904"/>
      <point x="784" y="1057"/>
      <point x="521" y="1057" type="curve" smooth="yes"/>
      <point x="255" y="1057"/>
      <point x="75" y="829"/>
      <point x="75" y="536" type="curve" smooth="yes"/>
      <point x="75" y="270"/>
      <point x="217" y="-19"/>
      <point x="521" y="-19" type="curve" smooth="yes"/>
      <point x="784" y="-19"/>
      <point x="937" y="122"/>
      <point x="937" y="290" type="curve" smooth="yes"/>
      <point x="937" y="410"/>
      <point x="840" y="490"/>
      <point x="690" y="490" type="curve" smooth="yes"/>
      <point x="449" y="490"/>
      <point x="370" y="160"/>
      <point x="370" y="-180" type="curve"/>
      <point x="490" y="-180" type="line"/>
      <point x="490" y="8"/>
      <point x="523" y="370"/>
      <point x="690" y="370" type="curve" smooth="yes"/>
      <point x="742" y="370"/>
      <point x="794" y="342"/>
      <point x="794" y="290" type="curve" smooth="yes"/>
      <point x="794" y="197"/>
      <point x="682" y="131"/>
      <point x="521" y="131" type="curve" smooth="yes"/>
      <point x="330" y="131"/>
      <point x="259" y="334"/>
      <point x="259" y="536" type="curve" smooth="yes"/>
      <point x="259" y="731"/>
      <point x="337" y="904"/>
      <point x="525" y="904" type="curve" smooth="yes"/>
      <point x="675" y="904"/>
      <point x="757" y="851"/>
      <point x="784" y="705" type="curve"/>
    </contour>
  </outline>
</glyph>
<glyph name="uni0258" format="2">
  <advance width="1090"/>
  <unicode hex="0258"/>
  <outline>
    <contour>
      <point x="254" y="619" type="line"/>
      <point x="254" y="780"/>
      <point x="366" y="904"/>
      <point x="546" y="904" type="curve"/>
      <point x="715" y="904"/>
      <point x="831" y="765"/>
      <point x="831" y="619" type="curve"/>
    </contour>
    <contour>
      <point x="831" y="480" type="line"/>
      <point x="831" y="304"/>
      <point x="708" y="131"/>
      <point x="539" y="131" type="curve"/>
      <point x="393" y="131"/>
      <point x="299" y="202"/>
      <point x="254" y="337" type="curve"/>
      <point x="96" y="337" type="line"/>
      <point x="130" y="109"/>
      <point x="321" y="-19"/>
      <point x="539" y="-19" type="curve"/>
      <point x="831" y="-19"/>
      <point x="1015" y="236"/>
      <point x="1015" y="536" type="curve" smooth="yes"/>
      <point x="1015" y="810"/>
      <point x="831" y="1057"/>
      <point x="539" y="1057" type="curve" smooth="yes"/>
      <point x="254" y="1057"/>
      <point x="74" y="844"/>
      <point x="74" y="551" type="curve" smooth="yes"/>
      <point x="74" y="480" type="line"/>
    </contour>
  </outline>
</glyph>
<glyph name="uni025B" format="2">
  <advance width="987"/>
  <unicode hex="025B"/>
  <guideline x="0" y="992" angle="0"/>
  <guideline x="0" y="496" angle="0"/>
  <guideline x="0" y="-23" angle="0"/>
  <outline>
    <contour>
      <point x="743" y="326" type="line"/>
      <point x="705" y="207"/>
      <point x="622" y="131"/>
      <point x="481" y="131" type="curve" smooth="yes"/>
      <point x="371" y="131"/>
      <point x="259" y="192"/>
      <point x="259" y="298" type="curve" smooth="yes"/>
      <point x="259" y="398"/>
      <point x="360" y="453"/>
      <point x="470" y="453" type="curve" smooth="yes"/>
      <point x="535" y="453" type="line"/>
      <point x="535" y="623" type="line"/>
      <point x="470" y="623" type="line" smooth="yes"/>
      <point x="360" y="623"/>
      <point x="269" y="653"/>
      <point x="269" y="748" type="curve" smooth="yes"/>
      <point x="269" y="838"/>
      <point x="327" y="907"/>
      <point x="475" y="907" type="curve" smooth="yes"/>
      <point x="600" y="907"/>
      <point x="674" y="869"/>
      <point x="716" y="772" type="curve"/>
      <point x="874" y="819" type="line"/>
      <point x="813" y="959"/>
      <point x="681" y="1057"/>
      <point x="471" y="1057" type="curve" smooth="yes"/>
      <point x="251" y="1057"/>
      <point x="85" y="928"/>
      <point x="85" y="748" type="curve" smooth="yes"/>
      <point x="85" y="638"/>
      <point x="136" y="578"/>
      <point x="196" y="538" type="curve"/>
      <point x="136" y="498"/>
      <point x="75" y="408"/>
      <point x="75" y="298" type="curve" smooth="yes"/>
      <point x="75" y="111"/>
      <point x="261" y="-19"/>
      <point x="481" y="-19" type="curve" smooth="yes"/>
      <point x="710" y="-19"/>
      <point x="862" y="96"/>
      <point x="912" y="289" type="curve"/>
    </contour>
  </outline>
</glyph>
<glyph name="uni025C" format="2">
  <advance width="987"/>
  <unicode hex="025C"/>
  <outline>
    <contour>
      <point x="75" y="289" type="line"/>
      <point x="125" y="96"/>
      <point x="277" y="-19"/>
      <point x="506" y="-19" type="curve"/>
      <point x="726" y="-19"/>
      <point x="912" y="111"/>
      <point x="912" y="298" type="curve" smooth="yes"/>
      <point x="912" y="408"/>
      <point x="851" y="498"/>
      <point x="791" y="538" type="curve"/>
      <point x="851" y="578"/>
      <point x="902" y="638"/>
      <point x="902" y="748" type="curve"/>
      <point x="902" y="928"/>
      <point x="736" y="1057"/>
      <point x="516" y="1057" type="curve" smooth="yes"/>
      <point x="306" y="1057"/>
      <point x="174" y="959"/>
      <point x="113" y="819" type="curve"/>
      <point x="271" y="772" type="line"/>
      <point x="313" y="869"/>
      <point x="387" y="907"/>
      <point x="512" y="907" type="curve"/>
      <point x="660" y="907"/>
      <point x="718" y="838"/>
      <point x="718" y="748" type="curve" smooth="yes"/>
      <point x="718" y="653"/>
      <point x="627" y="623"/>
      <point x="517" y="623" type="curve" smooth="yes"/>
      <point x="452" y="623" type="line"/>
      <point x="452" y="453" type="line"/>
      <point x="517" y="453" type="line"/>
      <point x="627" y="453"/>
      <point x="728" y="398"/>
      <point x="728" y="298" type="curve" smooth="yes"/>
      <point x="728" y="192"/>
      <point x="616" y="131"/>
      <point x="506" y="131" type="curve" smooth="yes"/>
      <point x="365" y="131"/>
      <point x="282" y="207"/>
      <point x="244" y="326" type="curve"/>
    </contour>
  </outline>
  <guideline angle="0" x="0" y="992"/>
  <guideline angle="0" x="0" y="496"/>
  <guideline angle="0" x="0" y="-23"/>
</glyph>
<glyph name="uni025D" format="2">
  <advance width="1415"/>
  <unicode hex="025D"/>
  <guideline x="0" y="992" angle="0"/>
  <guideline x="0" y="496" angle="0"/>
  <guideline x="0" y="-23" angle="0"/>
  <outline>
    <contour>
      <point x="896" y="805" type="curve"/>
      <point x="1046" y="899" type="line"/>
      <point x="1046" y="821" type="line" smooth="yes"/>
      <point x="1046" y="735"/>
      <point x="1111" y="645"/>
      <point x="1215" y="645" type="curve" smooth="yes"/>
      <point x="1343" y="645"/>
      <point x="1407" y="760"/>
      <point x="1415" y="847" type="curve"/>
      <point x="1330" y="884" type="line"/>
      <point x="1309" y="794"/>
      <point x="1285" y="736"/>
      <point x="1215" y="736" type="curve" smooth="yes"/>
      <point x="1148" y="736"/>
      <point x="1137" y="803"/>
      <point x="1137" y="858" type="curve" smooth="yes"/>
      <point x="1137" y="956" type="line"/>
      <point x="1143" y="960" type="line"/>
      <point x="1137" y="970" type="line"/>
      <point x="1137" y="1014" type="line"/>
      <point x="1097" y="1036" type="line"/>
      <point x="1096" y="1038" type="line"/>
      <point x="861" y="891" type="line"/>
      <point x="799" y="992"/>
      <point x="671" y="1057"/>
      <point x="516" y="1057" type="curve" smooth="yes"/>
      <point x="306" y="1057"/>
      <point x="174" y="959"/>
      <point x="113" y="819" type="curve"/>
      <point x="271" y="772" type="line"/>
      <point x="313" y="869"/>
      <point x="387" y="907"/>
      <point x="512" y="907" type="curve" smooth="yes"/>
      <point x="660" y="907"/>
      <point x="718" y="838"/>
      <point x="718" y="748" type="curve" smooth="yes"/>
      <point x="718" y="653"/>
      <point x="627" y="623"/>
      <point x="517" y="623" type="curve" smooth="yes"/>
      <point x="452" y="623" type="line"/>
      <point x="452" y="453" type="line"/>
      <point x="517" y="453" type="line" smooth="yes"/>
      <point x="627" y="453"/>
      <point x="728" y="398"/>
      <point x="728" y="298" type="curve" smooth="yes"/>
      <point x="728" y="192"/>
      <point x="616" y="131"/>
      <point x="506" y="131" type="curve" smooth="yes"/>
      <point x="365" y="131"/>
      <point x="282" y="207"/>
      <point x="244" y="326" type="curve"/>
      <point x="75" y="289" type="line"/>
      <point x="125" y="96"/>
      <point x="277" y="-19"/>
      <point x="506" y="-19" type="curve" smooth="yes"/>
      <point x="726" y="-19"/>
      <point x="912" y="111"/>
      <point x="912" y="298" type="curve" smooth="yes"/>
      <point x="912" y="408"/>
      <point x="851" y="498"/>
      <point x="791" y="538" type="curve"/>
      <point x="851" y="578"/>
      <point x="902" y="638"/>
      <point x="902" y="748" type="curve" smooth="yes"/>
      <point x="902" y="767"/>
      <point x="900" y="786"/>
    </contour>
  </outline>
</glyph>
<glyph name="uni0262" format="2">
  <advance width="1042"/>
  <unicode hex="0262"/>
  <guideline x="0" y="1057" angle="0"/>
  <outline>
    <contour>
      <point x="977" y="705" type="line"/>
      <point x="944" y="904"/>
      <point x="794" y="1057"/>
      <point x="531" y="1057" type="curve" smooth="yes"/>
      <point x="265" y="1057"/>
      <point x="85" y="829"/>
      <point x="85" y="536" type="curve" smooth="yes"/>
      <point x="85" y="270"/>
      <point x="227" y="-19"/>
      <point x="531" y="-19" type="curve" smooth="yes"/>
      <point x="653" y="-19"/>
      <point x="753" y="14"/>
      <point x="828" y="74" type="curve"/>
      <point x="850" y="0" type="line"/>
      <point x="977" y="0" type="line"/>
      <point x="977" y="500" type="line"/>
      <point x="485" y="500" type="line"/>
      <point x="485" y="324" type="line"/>
      <point x="782" y="324" type="line"/>
      <point x="749" y="206"/>
      <point x="671" y="131"/>
      <point x="531" y="131" type="curve" smooth="yes"/>
      <point x="340" y="131"/>
      <point x="269" y="334"/>
      <point x="269" y="536" type="curve" smooth="yes"/>
      <point x="269" y="731"/>
      <point x="347" y="904"/>
      <point x="535" y="904" type="curve" smooth="yes"/>
      <point x="685" y="904"/>
      <point x="767" y="851"/>
      <point x="794" y="705" type="curve"/>
    </contour>
  </outline>
</glyph>
<glyph name="uni0263" format="2">
  <advance width="1153"/>
  <unicode hex="0263"/>
  <guideline x="0" y="1057" angle="0"/>
  <guideline x="0" y="147" angle="0"/>
  <guideline x="540" y="0" angle="67.2176"/>
  <guideline x="471" y="0" angle="112.782"/>
  <outline>
    <contour>
      <point x="30" y="1057" type="line"/>
      <point x="409" y="147" type="line"/>
      <point x="360" y="31" type="line" smooth="yes"/>
      <point x="322" y="-59"/>
      <point x="303" y="-142"/>
      <point x="303" y="-205" type="curve" smooth="yes"/>
      <point x="303" y="-315"/>
      <point x="376" y="-412"/>
      <point x="506" y="-412" type="curve" smooth="yes"/>
      <point x="636" y="-412"/>
      <point x="723" y="-315"/>
      <point x="723" y="-205" type="curve" smooth="yes"/>
      <point x="723" y="-142"/>
      <point x="688" y="-60"/>
      <point x="650" y="31" type="curve" smooth="yes"/>
      <point x="601" y="147" type="line"/>
      <point x="982" y="1057" type="line"/>
      <point x="790" y="1057" type="line"/>
      <point x="506" y="377" type="line"/>
      <point x="222" y="1057" type="line"/>
    </contour>
    <contour>
      <point x="506" y="-85" type="curve"/>
      <point x="529" y="-138"/>
      <point x="551" y="-181"/>
      <point x="551" y="-217" type="curve" smooth="yes"/>
      <point x="551" y="-249"/>
      <point x="533" y="-272"/>
      <point x="506" y="-272" type="curve" smooth="yes"/>
      <point x="479" y="-272"/>
      <point x="461" y="-249"/>
      <point x="461" y="-217" type="curve" smooth="yes"/>
      <point x="461" y="-181"/>
      <point x="483" y="-138"/>
    </contour>
  </outline>
</glyph>
<glyph name="uni0265" format="2">
  <advance width="1090"/>
  <unicode hex="0265"/>
  <outline>
    <contour>
      <point x="970" y="-411" type="line"/>
      <point x="970" y="1036" type="line"/>
      <point x="793" y="1036" type="line"/>
      <point x="793" y="376" type="line" smooth="yes"/>
      <point x="793" y="237"/>
      <point x="640" y="132"/>
      <point x="508" y="132" type="curve" smooth="yes"/>
      <point x="400" y="132"/>
      <point x="302" y="170"/>
      <point x="302" y="305" type="curve" smooth="yes"/>
      <point x="302" y="1036" type="line"/>
      <point x="126" y="1036" type="line"/>
      <point x="126" y="252" type="line" smooth="yes"/>
      <point x="126" y="80"/>
      <point x="257" y="-21"/>
      <point x="460" y="-21" type="curve" smooth="yes"/>
      <point x="595" y="-21"/>
      <point x="700" y="16"/>
      <point x="793" y="132" type="curve"/>
      <point x="793" y="-411" type="line"/>
    </contour>
  </outline>
</glyph>
<glyph name="uni026A" format="2">
  <advance width="575"/>
  <unicode hex="026A"/>
  <outline>
    <contour>
      <point x="190" y="70" type="line"/>
      <point x="20" y="70" type="line"/>
      <point x="20" y="0" type="line"/>
      <point x="555" y="0" type="line"/>
      <point x="555" y="70" type="line"/>
      <point x="385" y="70" type="line"/>
      <point x="385" y="969" type="line"/>
      <point x="555" y="969" type="line"/>
      <point x="555" y="1039" type="line"/>
      <point x="20" y="1039" type="line"/>
      <point x="20" y="969" type="line"/>
      <point x="190" y="969" type="line"/>
    </contour>
  </outline>
</glyph>
<glyph name="uni026E" format="2">
  <advance width="1233"/>
  <unicode hex="026E"/>
  <outline>
    <contour>
      <point x="127" y="1440" type="line"/>
      <point x="127" y="0" type="line"/>
      <point x="304" y="0" type="line"/>
      <point x="304" y="885" type="line"/>
      <point x="870" y="885" type="line"/>
      <point x="870" y="881" type="line"/>
      <point x="507" y="445" type="line"/>
      <point x="551" y="411" type="line"/>
      <point x="595" y="460"/>
      <point x="661" y="480"/>
      <point x="753" y="480" type="curve" smooth="yes"/>
      <point x="941" y="480"/>
      <point x="1019" y="307"/>
      <point x="1019" y="112" type="curve" smooth="yes"/>
      <point x="1019" y="-90"/>
      <point x="948" y="-293"/>
      <point x="757" y="-293" type="curve" smooth="yes"/>
      <point x="625" y="-293"/>
      <point x="548" y="-227"/>
      <point x="512" y="-120" type="curve"/>
      <point x="323" y="-120" type="line"/>
      <point x="369" y="-322"/>
      <point x="522" y="-443"/>
      <point x="757" y="-443" type="curve" smooth="yes"/>
      <point x="1061" y="-443"/>
      <point x="1203" y="-154"/>
      <point x="1203" y="112" type="curve" smooth="yes"/>
      <point x="1203" y="356"/>
      <point x="1077" y="555"/>
      <point x="882" y="614" type="curve"/>
      <point x="1107" y="885" type="line"/>
      <point x="1107" y="1039" type="line"/>
      <point x="304" y="1039" type="line"/>
      <point x="304" y="1440" type="line"/>
    </contour>
  </outline>
</glyph>
<glyph name="uni0273" format="2">
  <advance width="1094"/>
  <unicode hex="0273"/>
  <outline>
    <contour>
      <point x="127" y="0" type="line"/>
      <point x="304" y="0" type="line"/>
      <point x="304" y="671" type="line"/>
      <point x="334" y="799"/>
      <point x="480" y="904"/>
      <point x="611" y="904" type="curve" smooth="yes"/>
      <point x="690" y="904"/>
      <point x="791" y="825"/>
      <point x="791" y="716" type="curve" smooth="yes"/>
      <point x="791" y="0" type="line" smooth="yes"/>
      <point x="791" y="-289"/>
      <point x="872" y="-443"/>
      <point x="1112" y="-443" type="curve" smooth="yes"/>
      <point x="1304" y="-443"/>
      <point x="1423" y="-321"/>
      <point x="1449" y="-150" type="curve"/>
      <point x="1273" y="-150" type="line"/>
      <point x="1253" y="-261"/>
      <point x="1186" y="-296"/>
      <point x="1105" y="-296" type="curve" smooth="yes"/>
      <point x="1005" y="-296"/>
      <point x="967" y="-199"/>
      <point x="967" y="-23" type="curve" smooth="yes"/>
      <point x="967" y="776" type="line" smooth="yes"/>
      <point x="967" y="945"/>
      <point x="825" y="1057"/>
      <point x="626" y="1057" type="curve" smooth="yes"/>
      <point x="506" y="1057"/>
      <point x="375" y="1009"/>
      <point x="304" y="900" type="curve"/>
      <point x="304" y="1039" type="line"/>
      <point x="127" y="1039" type="line"/>
    </contour>
  </outline>
</glyph>
<glyph name="uni0276" format="2">
  <advance width="1443"/>
  <unicode hex="0276"/>
  <outline>
    <contour>
      <point x="692" y="1038" type="line"/>
      <point x="649" y="1050"/>
      <point x="603" y="1057"/>
      <point x="554" y="1057" type="curve" smooth="yes"/>
      <point x="243" y="1057"/>
      <point x="66" y="810"/>
      <point x="66" y="517" type="curve" smooth="yes"/>
      <point x="66" y="217"/>
      <point x="243" y="-19"/>
      <point x="550" y="-19" type="curve" smooth="yes"/>
      <point x="601" y="-19"/>
      <point x="648" y="-12"/>
      <point x="692" y="0" type="curve"/>
      <point x="1377" y="0" type="line"/>
      <point x="1377" y="157" type="line"/>
      <point x="833" y="157" type="line"/>
      <point x="833" y="453" type="line"/>
      <point x="1318" y="453" type="line"/>
      <point x="1318" y="620" type="line"/>
      <point x="833" y="620" type="line"/>
      <point x="833" y="881" type="line"/>
      <point x="1351" y="881" type="line"/>
      <point x="1351" y="1038" type="line"/>
    </contour>
    <contour>
      <point x="550" y="135" type="curve" smooth="yes"/>
      <point x="355" y="135"/>
      <point x="250" y="281"/>
      <point x="250" y="517" type="curve" smooth="yes"/>
      <point x="250" y="746"/>
      <point x="359" y="904"/>
      <point x="554" y="904" type="curve" smooth="yes"/>
      <point x="606" y="904"/>
      <point x="652" y="890"/>
      <point x="692" y="866" type="curve"/>
      <point x="692" y="167" type="line"/>
      <point x="652" y="146"/>
      <point x="605" y="135"/>
    </contour>
  </outline>
</glyph>
<glyph name="uni027A" format="2">
  <advance width="634"/>
  <unicode hex="027A"/>
  <outline>
    <contour>
      <point x="507" y="1440" type="line"/>
      <point x="330" y="1440" type="line"/>
      <point x="330" y="390" type="line" smooth="yes"/>
      <point x="330" y="255"/>
      <point x="240" y="158"/>
      <point x="87" y="158" type="curve" smooth="yes"/>
      <point x="60" y="158"/>
      <point x="45" y="162"/>
      <point x="8" y="169" type="curve"/>
      <point x="8" y="0" type="line"/>
      <point x="30" y="-15"/>
      <point x="57" y="-18"/>
      <point x="87" y="-18" type="curve" smooth="yes"/>
      <point x="210" y="-18"/>
      <point x="274" y="38"/>
      <point x="330" y="135" type="curve"/>
      <point x="330" y="0" type="line"/>
      <point x="507" y="0" type="line"/>
    </contour>
  </outline>
</glyph>
<glyph name="uni0284" format="2">
  <advance width="785"/>
  <unicode hex="0284"/>
  <outline>
    <contour>
      <point x="785" y="458" type="line"/>
      <point x="785" y="569" type="line"/>
      <point x="0" y="569" type="line"/>
      <point x="0" y="458" type="line"/>
    </contour>
    <contour>
      <point x="481" y="0" type="curve"/>
      <point x="481" y="1065" type="line" smooth="yes"/>
      <point x="481" y="1241"/>
      <point x="517" y="1338"/>
      <point x="617" y="1338" type="curve" smooth="yes"/>
      <point x="698" y="1338"/>
      <point x="765" y="1303"/>
      <point x="785" y="1192" type="curve"/>
      <point x="961" y="1192" type="line"/>
      <point x="935" y="1363"/>
      <point x="816" y="1485"/>
      <point x="624" y="1485" type="curve" smooth="yes"/>
      <point x="384" y="1485"/>
      <point x="304" y="1331"/>
      <point x="304" y="1042" type="curve" smooth="yes"/>
      <point x="304" y="-23" type="line" smooth="yes"/>
      <point x="304" y="-199"/>
      <point x="268" y="-296"/>
      <point x="168" y="-296" type="curve" smooth="yes"/>
      <point x="87" y="-296"/>
      <point x="20" y="-261"/>
      <point x="0" y="-150" type="curve"/>
      <point x="-176" y="-150" type="line"/>
      <point x="-150" y="-321"/>
      <point x="-31" y="-443"/>
      <point x="161" y="-443" type="curve" smooth="yes"/>
      <point x="401" y="-443"/>
      <point x="481" y="-289"/>
    </contour>
  </outline>
  <guideline angle="0" x="0" y="509"/>
</glyph>
<glyph name="uni028B" format="2">
  <advance width="1100"/>
  <unicode hex="028B"/>
  <outline>
    <contour>
      <point x="554" y="904" type="line"/>
      <point x="738" y="904"/>
      <point x="850" y="739"/>
      <point x="850" y="517" type="curve" smooth="yes"/>
      <point x="850" y="281"/>
      <point x="749" y="135"/>
      <point x="550" y="135" type="curve" smooth="yes"/>
      <point x="355" y="135"/>
      <point x="250" y="281"/>
      <point x="250" y="517" type="curve" smooth="yes"/>
      <point x="250" y="1039" type="line"/>
      <point x="66" y="1037" type="line"/>
      <point x="66" y="517" type="line"/>
      <point x="66" y="217"/>
      <point x="243" y="-19"/>
      <point x="550" y="-19" type="curve" smooth="yes"/>
      <point x="854" y="-19"/>
      <point x="1034" y="217"/>
      <point x="1034" y="517" type="curve" smooth="yes"/>
      <point x="1034" y="810"/>
      <point x="858" y="1057"/>
      <point x="554" y="1057" type="curve"/>
    </contour>
  </outline>
</glyph>
<glyph name="uni028C" format="2">
  <advance width="1005"/>
  <unicode hex="028C"/>
  <outline>
    <contour>
      <point x="994" y="-1" type="line"/>
      <point x="593" y="1038" type="line"/>
      <point x="413" y="1038" type="line"/>
      <point x="11" y="-1" type="line"/>
      <point x="210" y="-1" type="line"/>
      <point x="503" y="821" type="line"/>
      <point x="795" y="-1" type="line"/>
    </contour>
  </outline>
</glyph>
